<svg xmlns="http://www.w3.org/2000/svg" width="30" height="30" viewBox="0 0 30 30">
  <g id="bottom_ic03_on" transform="translate(-1692 -2887)">
    <g id="그룹_3866" data-name="그룹 3866" transform="translate(2.048 1.667)">
      <g id="그룹_3850" data-name="그룹 3850" transform="translate(1693 2887.333)">
        <path id="패스_18227" data-name="패스 18227" d="M737.945,269.038a.742.742,0,0,1-.742-.742v-3.588h-3.255a.742.742,0,0,1-.742-.742V247.992a.742.742,0,0,1,.742-.742H754.6a.742.742,0,0,1,.742.742v15.975a.742.742,0,0,1-.742.742H742.581l-4.112,4.112A.742.742,0,0,1,737.945,269.038Zm-3.255-5.813h3.255a.742.742,0,0,1,.742.742v2.539l3.063-3.063a.742.742,0,0,1,.525-.217h11.58V248.734H734.69Z" transform="translate(-733.206 -243.038)" fill="#288fa4"/>
        <path id="패스_18228" data-name="패스 18228" d="M787.278,237.633a.967.967,0,0,0-.921-.67h-2.489L783.1,234.6a.969.969,0,0,0-1.843,0l-.769,2.367H778a.969.969,0,0,0-.569,1.753l2.013,1.463-.769,2.366a.969.969,0,0,0,1.491,1.083l2.013-1.463,2.014,1.463a.969.969,0,0,0,1.49-1.083l-.769-2.366,2.013-1.463A.968.968,0,0,0,787.278,237.633Z" transform="translate(-762.582 -233.927)" fill="#288fa4" stroke="#fff" stroke-width="2"/>
        <path id="패스_18229" data-name="패스 18229" d="M756.2,261.846h-9.149a.742.742,0,1,1,0-1.484H756.2a.742.742,0,1,1,0,1.484Z" transform="translate(-741.987 -251.711)" fill="#288fa4"/>
        <path id="패스_18230" data-name="패스 18230" d="M759.081,273.1H747.048a.742.742,0,1,1,0-1.484h12.033a.742.742,0,1,1,0,1.484Z" transform="translate(-741.987 -259.279)" fill="#288fa4"/>
        <path id="패스_18231" data-name="패스 18231" d="M759.081,284.346H747.048a.742.742,0,1,1,0-1.484h12.033a.742.742,0,1,1,0,1.484Z" transform="translate(-741.987 -266.847)" fill="#288fa4"/>
      </g>
      <path id="패스_18242" data-name="패스 18242" d="M699.731,867.176l1.105,2.3a.483.483,0,0,0,.364.272l2.47.369a.5.5,0,0,1,.268.847l-1.787,1.791a.5.5,0,0,0-.139.439l.422,2.529a.486.486,0,0,1-.7.524l-2.209-1.194a.474.474,0,0,0-.45,0l-2.209,1.194a.486.486,0,0,1-.7-.524l.422-2.529a.5.5,0,0,0-.139-.439l-1.787-1.791a.5.5,0,0,1,.268-.847l2.47-.369a.483.483,0,0,0,.364-.272l1.1-2.3A.477.477,0,0,1,699.731,867.176Z" transform="translate(1013.66 2020.684)" fill="#2ebac2"/>
    </g>
    <rect id="사각형_2950" data-name="사각형 2950" width="30" height="30" transform="translate(1692 2887)" fill="none"/>
  </g>
</svg>
