<svg xmlns="http://www.w3.org/2000/svg" width="30" height="30" viewBox="0 0 30 30">
  <g id="bottom_ic01_on" transform="translate(-1476 -2887)">
    <g id="그룹_3862" data-name="그룹 3862" transform="translate(1382.974 2653.715)">
      <g id="그룹_3861" data-name="그룹 3861" transform="translate(95.026 236.285)">
        <path id="패스_18239" data-name="패스 18239" d="M128.149,274.519a3.7,3.7,0,0,0-3.7,3.7v6.807h7.408v-6.807A3.7,3.7,0,0,0,128.149,274.519Z" transform="translate(-114.841 -262.144)" fill="#2ebac2"/>
        <g id="그룹_3860" data-name="그룹 3860">
          <path id="패스_18240" data-name="패스 18240" d="M123.587,273.175H103.82a.744.744,0,0,1-.736-.751V255.806a.736.736,0,1,1,1.472,0v15.867h18.294V255.806a.736.736,0,1,1,1.472,0v16.618A.744.744,0,0,1,123.587,273.175Z" transform="translate(-100.395 -249.175)" fill="#288fa4"/>
          <path id="패스_18241" data-name="패스 18241" d="M120.9,245.16a.729.729,0,0,1-.369-.1l-12.2-7.156-12.2,7.156a.733.733,0,0,1-1.01-.275.758.758,0,0,1,.271-1.026l12.569-7.373a.731.731,0,0,1,.739,0l12.569,7.373a.757.757,0,0,1,.271,1.026A.736.736,0,0,1,120.9,245.16Z" transform="translate(-95.026 -236.285)" fill="#288fa4"/>
        </g>
      </g>
    </g>
    <rect id="사각형_2948" data-name="사각형 2948" width="30" height="30" transform="translate(1476 2887)" fill="none"/>
  </g>
</svg>
