<svg id="ic_star_on" xmlns="http://www.w3.org/2000/svg" width="16" height="16" viewBox="0 0 16 16">
  <rect id="사각형_2488" data-name="사각형 2488" width="16" height="16" transform="translate(0 0)" fill="none"/>
  <path id="패스_805" data-name="패스 805" d="M701.837,867.287l1.551,3.229a.678.678,0,0,0,.51.381l3.467.518a.7.7,0,0,1,.376,1.189l-2.509,2.514a.706.706,0,0,0-.195.616l.592,3.549a.683.683,0,0,1-.984.735l-3.1-1.676a.665.665,0,0,0-.632,0l-3.1,1.676a.683.683,0,0,1-.984-.735l.592-3.549a.707.707,0,0,0-.195-.616l-2.509-2.514a.7.7,0,0,1,.376-1.189l3.467-.518a.678.678,0,0,0,.51-.381l1.551-3.229A.669.669,0,0,1,701.837,867.287Z" transform="translate(-693.081 -865.648)" fill="#288fa4"/>
</svg>
