<svg xmlns="http://www.w3.org/2000/svg" width="68.579" height="38.3" viewBox="0 0 68.579 38.3">
  <g id="logo" transform="translate(-270.944 -242.301)">
    <g id="그룹_2" data-name="그룹 2" transform="translate(270.944 242.301)">
      <g id="그룹_1" data-name="그룹 1">
        <path id="패스_1" data-name="패스 1" d="M309.075,280.546h-7.131v-4.321a18.98,18.98,0,1,1,7.131-14.747ZM289.9,273.47a11.728,11.728,0,0,0,8.535-3.51,11.558,11.558,0,0,0,3.511-8.481A11.989,11.989,0,0,0,289.9,249.431a11.55,11.55,0,0,0-8.481,3.512,11.734,11.734,0,0,0-3.512,8.535A11.989,11.989,0,0,0,289.9,273.47Z" transform="translate(-270.775 -242.301)" fill="#2cbbc3"/>
      </g>
    </g>
    <g id="그룹_6" data-name="그룹 6" transform="translate(284.262 255.579)">
      <g id="그룹_5" data-name="그룹 5">
        <g id="그룹_4" data-name="그룹 4">
          <path id="패스_9" data-name="패스 9" d="M282.08,260.993h3.12a3.7,3.7,0,0,0,.443-.014,3.869,3.869,0,0,0,.012-.424v-3.43h3.778v-3.58H285.59v-3.788h-3.541v3.84h-3.8v3.535h3.828Z" transform="translate(-278.252 -249.756)" fill="#2790a5"/>
        </g>
      </g>
    </g>
    <path id="패스_10" data-name="패스 10" d="M317.227,247.919a18.48,18.48,0,0,0-13.559-5.618,18.261,18.261,0,0,0-11.755,4.066,20.283,20.283,0,0,1,1.71,2.082,20.021,20.021,0,0,1,2.164,3.945,11.985,11.985,0,0,1,16.361.547,11.645,11.645,0,0,1,3.566,8.537V280.6h7.131V261.478A18.48,18.48,0,0,0,317.227,247.919Z" transform="translate(16.679 0)" fill="#2790a5"/>
  </g>
</svg>
