<svg xmlns="http://www.w3.org/2000/svg" xmlns:xlink="http://www.w3.org/1999/xlink" width="412" height="230" viewBox="0 0 412 230">
  <defs>
    <clipPath id="clip-path">
      <rect id="사각형_2991" data-name="사각형 2991" width="412" height="230" transform="translate(0 75)" fill="#fff" stroke="#707070" stroke-width="1"/>
    </clipPath>
    <clipPath id="clip-path-2">
      <rect id="사각형_2990" data-name="사각형 2990" width="430.4" height="240.163" transform="translate(0 0)" fill="none"/>
    </clipPath>
    <clipPath id="clip-path-3">
      <circle id="타원_192" data-name="타원 192" cx="77.242" cy="77.242" r="77.242" fill="none"/>
    </clipPath>
    <clipPath id="clip-path-4">
      <path id="패스_18532" data-name="패스 18532" d="M697.495-695.919c-5.676,9.55-11.955,18.649-16.029,28.668-5.379,13.228-11.9,25.251-21.677,35.811a104.369,104.369,0,0,1-76.175,33.293A104.583,104.583,0,0,1,497.286-644.3c-23.543-35.2-16.534-74.973,7.852-108.188,14.127-19.242,32.736-34.761,52.253-48.506,40.454-28.489,88.071-50.7,137.484-48.145,11.611.6,23.592,2.742,33.08,9.461,13.813,9.781,19.885,27.954,18.665,44.835s-8.714,32.686-17.526,47.136-19.079,28.041-26.772,43.117C700.815-701.635,699.181-698.757,697.495-695.919Z" transform="translate(-482.812 849.338)" fill="none"/>
    </clipPath>
  </defs>
  <g id="마스크_그룹_1" data-name="마스크 그룹 1" transform="translate(0 -75)" clip-path="url(#clip-path)">
    <g id="그룹_4096" data-name="그룹 4096" transform="translate(843.861 787.837)">
      <g id="그룹_4095" data-name="그룹 4095" transform="translate(-862 -723)" clip-path="url(#clip-path-2)">
        <g id="그룹_4055" data-name="그룹 4055" transform="translate(184.153 11.906)" opacity="0.6">
          <g id="그룹_4054" data-name="그룹 4054" transform="translate(0)" clip-path="url(#clip-path-3)">
            <g id="그룹_4053" data-name="그룹 4053" transform="translate(-34.846 -32.714)">
              <g id="그룹_4033" data-name="그룹 4033" transform="translate(47.564 95.034)">
                <g id="그룹_4027" data-name="그룹 4027" transform="translate(59.169 59.841)">
                  <path id="패스_18343" data-name="패스 18343" d="M1217.006,160.436a1.6,1.6,0,1,0,2.261.013A1.6,1.6,0,0,0,1217.006,160.436Z" transform="translate(-1156.976 -159.974)" fill="#2cb9c2"/>
                  <path id="패스_18344" data-name="패스 18344" d="M1138.559,238a1.6,1.6,0,1,0,2.261.013A1.6,1.6,0,0,0,1138.559,238Z" transform="translate(-1090.44 -225.763)" fill="#2cb9c2"/>
                  <path id="패스_18345" data-name="패스 18345" d="M1060.112,315.567a1.6,1.6,0,1,0,2.261.013A1.6,1.6,0,0,0,1060.112,315.567Z" transform="translate(-1023.904 -291.551)" fill="#2cb9c2"/>
                  <path id="패스_18346" data-name="패스 18346" d="M981.665,393.134a1.6,1.6,0,1,0,2.261.013A1.6,1.6,0,0,0,981.665,393.134Z" transform="translate(-957.368 -357.34)" fill="#2cb9c2"/>
                  <path id="패스_18347" data-name="패스 18347" d="M903.218,470.7a1.6,1.6,0,1,0,2.261.013A1.6,1.6,0,0,0,903.218,470.7Z" transform="translate(-890.832 -423.129)" fill="#2cb9c2"/>
                  <path id="패스_18348" data-name="패스 18348" d="M824.771,548.266a1.6,1.6,0,1,0,2.261.013A1.6,1.6,0,0,0,824.771,548.266Z" transform="translate(-824.296 -488.917)" fill="#2cb9c2"/>
                </g>
                <g id="그룹_4028" data-name="그룹 4028" transform="translate(47.335 47.873)">
                  <path id="패스_18349" data-name="패스 18349" d="M1139.068,81.611a1.6,1.6,0,1,0,2.261.013A1.6,1.6,0,0,0,1139.068,81.611Z" transform="translate(-1079.038 -81.149)" fill="#2cb9c2"/>
                  <path id="패스_18350" data-name="패스 18350" d="M1060.621,159.178a1.6,1.6,0,1,0,2.261.013A1.6,1.6,0,0,0,1060.621,159.178Z" transform="translate(-1012.502 -146.939)" fill="#2cb9c2"/>
                  <path id="패스_18351" data-name="패스 18351" d="M982.173,236.744a1.6,1.6,0,1,0,2.261.013A1.6,1.6,0,0,0,982.173,236.744Z" transform="translate(-945.966 -212.728)" fill="#2cb9c2"/>
                  <path id="패스_18352" data-name="패스 18352" d="M903.727,314.31a1.6,1.6,0,1,0,2.261.013A1.6,1.6,0,0,0,903.727,314.31Z" transform="translate(-879.43 -278.516)" fill="#2cb9c2"/>
                  <path id="패스_18353" data-name="패스 18353" d="M825.28,391.876a1.6,1.6,0,1,0,2.261.013A1.6,1.6,0,0,0,825.28,391.876Z" transform="translate(-812.894 -344.304)" fill="#2cb9c2"/>
                  <path id="패스_18354" data-name="패스 18354" d="M746.832,469.442a1.6,1.6,0,1,0,2.261.013A1.6,1.6,0,0,0,746.832,469.442Z" transform="translate(-746.358 -410.094)" fill="#2cb9c2"/>
                </g>
                <g id="그룹_4029" data-name="그룹 4029" transform="translate(35.502 35.905)">
                  <path id="패스_18355" data-name="패스 18355" d="M1061.13,2.788a1.6,1.6,0,1,0,2.261.013A1.6,1.6,0,0,0,1061.13,2.788Z" transform="translate(-1001.1 -2.326)" fill="#2cb9c2"/>
                  <path id="패스_18356" data-name="패스 18356" d="M982.682,80.354a1.6,1.6,0,1,0,2.261.013A1.6,1.6,0,0,0,982.682,80.354Z" transform="translate(-934.563 -68.115)" fill="#2cb9c2"/>
                  <path id="패스_18357" data-name="패스 18357" d="M904.235,157.92a1.6,1.6,0,1,0,2.261.013A1.6,1.6,0,0,0,904.235,157.92Z" transform="translate(-868.027 -133.903)" fill="#2cb9c2"/>
                  <path id="패스_18358" data-name="패스 18358" d="M825.788,235.486a1.6,1.6,0,1,0,2.261.013A1.6,1.6,0,0,0,825.788,235.486Z" transform="translate(-801.491 -199.692)" fill="#2cb9c2"/>
                  <path id="패스_18359" data-name="패스 18359" d="M747.341,313.052a1.6,1.6,0,1,0,2.261.013A1.6,1.6,0,0,0,747.341,313.052Z" transform="translate(-734.956 -265.481)" fill="#2cb9c2"/>
                  <path id="패스_18360" data-name="패스 18360" d="M668.894,390.618a1.6,1.6,0,1,0,2.261.013A1.6,1.6,0,0,0,668.894,390.618Z" transform="translate(-668.42 -331.269)" fill="#2cb9c2"/>
                </g>
                <g id="그룹_4030" data-name="그룹 4030" transform="translate(23.668 23.936)">
                  <path id="패스_18361" data-name="패스 18361" d="M983.191-76.036a1.6,1.6,0,0,0-.013,2.261,1.6,1.6,0,0,0,2.261.013,1.6,1.6,0,0,0,.013-2.261A1.6,1.6,0,0,0,983.191-76.036Z" transform="translate(-923.161 76.498)" fill="#2cb9c2"/>
                  <path id="패스_18362" data-name="패스 18362" d="M904.744,1.53a1.6,1.6,0,1,0,2.261.013A1.6,1.6,0,0,0,904.744,1.53Z" transform="translate(-856.625 10.709)" fill="#2cb9c2"/>
                  <path id="패스_18363" data-name="패스 18363" d="M826.3,79.1a1.6,1.6,0,1,0,2.261.013A1.6,1.6,0,0,0,826.3,79.1Z" transform="translate(-790.089 -55.08)" fill="#2cb9c2"/>
                  <path id="패스_18364" data-name="패스 18364" d="M747.849,156.663a1.6,1.6,0,1,0,2.261.013A1.6,1.6,0,0,0,747.849,156.663Z" transform="translate(-723.553 -120.869)" fill="#2cb9c2"/>
                  <path id="패스_18365" data-name="패스 18365" d="M669.4,234.228a1.6,1.6,0,1,0,2.261.013A1.6,1.6,0,0,0,669.4,234.228Z" transform="translate(-657.017 -186.657)" fill="#2cb9c2"/>
                  <path id="패스_18366" data-name="패스 18366" d="M590.956,311.795a1.6,1.6,0,1,0,2.261.013A1.6,1.6,0,0,0,590.956,311.795Z" transform="translate(-590.481 -252.446)" fill="#2cb9c2"/>
                </g>
                <g id="그룹_4031" data-name="그룹 4031" transform="translate(11.834 11.968)">
                  <path id="패스_18367" data-name="패스 18367" d="M905.253-154.86a1.6,1.6,0,0,0-.013,2.261,1.6,1.6,0,0,0,2.261.013,1.6,1.6,0,0,0,.013-2.261A1.6,1.6,0,0,0,905.253-154.86Z" transform="translate(-845.223 155.322)" fill="#2cb9c2"/>
                  <path id="패스_18368" data-name="패스 18368" d="M826.806-77.294a1.6,1.6,0,0,0-.013,2.261,1.6,1.6,0,0,0,2.261.013,1.6,1.6,0,0,0,.013-2.261A1.6,1.6,0,0,0,826.806-77.294Z" transform="translate(-778.687 89.533)" fill="#2cb9c2"/>
                  <path id="패스_18369" data-name="패스 18369" d="M748.359.272a1.6,1.6,0,1,0,2.261.013A1.6,1.6,0,0,0,748.359.272Z" transform="translate(-712.151 23.744)" fill="#2cb9c2"/>
                  <path id="패스_18370" data-name="패스 18370" d="M669.911,77.838a1.6,1.6,0,1,0,2.261.013A1.6,1.6,0,0,0,669.911,77.838Z" transform="translate(-645.614 -42.044)" fill="#2cb9c2"/>
                  <path id="패스_18371" data-name="패스 18371" d="M591.464,155.4a1.6,1.6,0,1,0,2.261.013A1.6,1.6,0,0,0,591.464,155.4Z" transform="translate(-579.078 -107.834)" fill="#2cb9c2"/>
                  <path id="패스_18372" data-name="패스 18372" d="M513.017,232.97a1.6,1.6,0,1,0,2.261.013A1.6,1.6,0,0,0,513.017,232.97Z" transform="translate(-512.542 -173.622)" fill="#2cb9c2"/>
                </g>
                <g id="그룹_4032" data-name="그룹 4032" transform="translate(0 0)">
                  <path id="패스_18373" data-name="패스 18373" d="M827.315-233.683a1.6,1.6,0,0,0-.013,2.261,1.6,1.6,0,0,0,2.261.013,1.6,1.6,0,0,0,.013-2.261A1.6,1.6,0,0,0,827.315-233.683Z" transform="translate(-767.284 234.145)" fill="#2cb9c2"/>
                  <path id="패스_18374" data-name="패스 18374" d="M748.867-156.117a1.6,1.6,0,0,0-.013,2.261,1.6,1.6,0,0,0,2.261.013,1.6,1.6,0,0,0,.013-2.261A1.6,1.6,0,0,0,748.867-156.117Z" transform="translate(-700.748 168.357)" fill="#2cb9c2"/>
                  <path id="패스_18375" data-name="패스 18375" d="M670.42-78.551a1.6,1.6,0,0,0-.013,2.261,1.6,1.6,0,0,0,2.261.013,1.6,1.6,0,0,0,.013-2.261A1.6,1.6,0,0,0,670.42-78.551Z" transform="translate(-634.212 102.567)" fill="#2cb9c2"/>
                  <path id="패스_18376" data-name="패스 18376" d="M591.973-.985a1.6,1.6,0,1,0,2.261.013A1.6,1.6,0,0,0,591.973-.985Z" transform="translate(-567.676 36.779)" fill="#2cb9c2"/>
                  <path id="패스_18377" data-name="패스 18377" d="M513.526,76.581a1.6,1.6,0,1,0,2.261.013A1.6,1.6,0,0,0,513.526,76.581Z" transform="translate(-501.14 -29.01)" fill="#2cb9c2"/>
                  <path id="패스_18378" data-name="패스 18378" d="M435.079,154.147a1.6,1.6,0,1,0,2.261.013A1.6,1.6,0,0,0,435.079,154.147Z" transform="translate(-434.604 -94.798)" fill="#2cb9c2"/>
                </g>
              </g>
              <g id="그룹_4039" data-name="그룹 4039" transform="translate(0 47.469)">
                <g id="그룹_4034" data-name="그룹 4034" transform="translate(47.335 47.873)">
                  <path id="패스_18379" data-name="패스 18379" d="M825.806-231.651a1.6,1.6,0,0,0-.013,2.261,1.6,1.6,0,0,0,2.261.013,1.6,1.6,0,0,0,.013-2.261A1.6,1.6,0,0,0,825.806-231.651Z" transform="translate(-765.775 232.113)" fill="#2cb9c2"/>
                  <path id="패스_18380" data-name="패스 18380" d="M747.358-154.084a1.6,1.6,0,0,0-.013,2.261,1.6,1.6,0,0,0,2.261.013,1.6,1.6,0,0,0,.013-2.261A1.6,1.6,0,0,0,747.358-154.084Z" transform="translate(-699.24 166.324)" fill="#2cb9c2"/>
                  <path id="패스_18381" data-name="패스 18381" d="M668.911-76.519a1.6,1.6,0,0,0-.013,2.261,1.6,1.6,0,0,0,2.261.013,1.6,1.6,0,0,0,.013-2.261A1.6,1.6,0,0,0,668.911-76.519Z" transform="translate(-632.703 100.535)" fill="#2cb9c2"/>
                  <path id="패스_18382" data-name="패스 18382" d="M590.464,1.048a1.6,1.6,0,1,0,2.261.013A1.6,1.6,0,0,0,590.464,1.048Z" transform="translate(-566.167 34.746)" fill="#2cb9c2"/>
                  <path id="패스_18383" data-name="패스 18383" d="M512.017,78.613a1.6,1.6,0,1,0,2.261.013A1.6,1.6,0,0,0,512.017,78.613Z" transform="translate(-499.631 -31.042)" fill="#2cb9c2"/>
                  <path id="패스_18384" data-name="패스 18384" d="M433.57,156.18a1.6,1.6,0,1,0,2.261.013A1.6,1.6,0,0,0,433.57,156.18Z" transform="translate(-433.095 -96.831)" fill="#2cb9c2"/>
                </g>
                <g id="그룹_4035" data-name="그룹 4035" transform="translate(35.502 35.905)">
                  <path id="패스_18385" data-name="패스 18385" d="M747.868-310.474a1.6,1.6,0,0,0-.013,2.261,1.6,1.6,0,0,0,2.261.013,1.6,1.6,0,0,0,.013-2.261A1.6,1.6,0,0,0,747.868-310.474Z" transform="translate(-687.838 310.936)" fill="#2cb9c2"/>
                  <path id="패스_18386" data-name="패스 18386" d="M669.421-232.908a1.6,1.6,0,0,0-.013,2.261,1.6,1.6,0,0,0,2.261.013,1.6,1.6,0,0,0,.013-2.261A1.6,1.6,0,0,0,669.421-232.908Z" transform="translate(-621.302 245.147)" fill="#2cb9c2"/>
                  <path id="패스_18387" data-name="패스 18387" d="M590.973-155.342a1.6,1.6,0,0,0-.013,2.261,1.6,1.6,0,0,0,2.261.013,1.6,1.6,0,0,0,.013-2.261A1.6,1.6,0,0,0,590.973-155.342Z" transform="translate(-554.765 179.359)" fill="#2cb9c2"/>
                  <path id="패스_18388" data-name="패스 18388" d="M512.526-77.776a1.6,1.6,0,0,0-.013,2.261,1.6,1.6,0,0,0,2.261.013,1.6,1.6,0,0,0,.013-2.261A1.6,1.6,0,0,0,512.526-77.776Z" transform="translate(-488.23 113.57)" fill="#2cb9c2"/>
                  <path id="패스_18389" data-name="패스 18389" d="M434.079-.21A1.6,1.6,0,1,0,436.34-.2,1.6,1.6,0,0,0,434.079-.21Z" transform="translate(-421.693 47.781)" fill="#2cb9c2"/>
                  <path id="패스_18390" data-name="패스 18390" d="M355.632,77.356a1.6,1.6,0,1,0,2.261.013A1.6,1.6,0,0,0,355.632,77.356Z" transform="translate(-355.157 -18.008)" fill="#2cb9c2"/>
                </g>
                <g id="그룹_4036" data-name="그룹 4036" transform="translate(23.668 23.937)">
                  <path id="패스_18391" data-name="패스 18391" d="M669.929-389.3a1.6,1.6,0,0,0-.013,2.261,1.6,1.6,0,0,0,2.261.013,1.6,1.6,0,0,0,.013-2.261A1.6,1.6,0,0,0,669.929-389.3Z" transform="translate(-609.899 389.76)" fill="#2cb9c2"/>
                  <path id="패스_18392" data-name="패스 18392" d="M591.482-311.732a1.6,1.6,0,0,0-.013,2.261,1.6,1.6,0,0,0,2.261.013,1.6,1.6,0,0,0,.013-2.261A1.6,1.6,0,0,0,591.482-311.732Z" transform="translate(-543.363 323.971)" fill="#2cb9c2"/>
                  <path id="패스_18393" data-name="패스 18393" d="M513.035-234.166a1.6,1.6,0,0,0-.013,2.261,1.6,1.6,0,0,0,2.261.013,1.6,1.6,0,0,0,.013-2.261A1.6,1.6,0,0,0,513.035-234.166Z" transform="translate(-476.827 258.183)" fill="#2cb9c2"/>
                  <path id="패스_18394" data-name="패스 18394" d="M434.587-156.6a1.6,1.6,0,0,0-.013,2.261,1.6,1.6,0,0,0,2.261.013,1.6,1.6,0,0,0,.013-2.261A1.6,1.6,0,0,0,434.587-156.6Z" transform="translate(-410.291 192.394)" fill="#2cb9c2"/>
                  <path id="패스_18395" data-name="패스 18395" d="M356.141-79.034a1.6,1.6,0,0,0-.013,2.261,1.6,1.6,0,0,0,2.261.013,1.6,1.6,0,0,0,.013-2.261A1.6,1.6,0,0,0,356.141-79.034Z" transform="translate(-343.755 126.605)" fill="#2cb9c2"/>
                  <path id="패스_18396" data-name="패스 18396" d="M277.693-1.468a1.6,1.6,0,0,0-.013,2.261,1.6,1.6,0,0,0,2.261.013,1.6,1.6,0,0,0,.013-2.261A1.6,1.6,0,0,0,277.693-1.468Z" transform="translate(-277.219 60.816)" fill="#2cb9c2"/>
                </g>
                <g id="그룹_4037" data-name="그룹 4037" transform="translate(11.834 11.968)">
                  <path id="패스_18397" data-name="패스 18397" d="M591.991-468.122a1.6,1.6,0,0,0-.013,2.261,1.6,1.6,0,0,0,2.261.013,1.6,1.6,0,0,0,.013-2.261A1.6,1.6,0,0,0,591.991-468.122Z" transform="translate(-531.961 468.584)" fill="#2cb9c2"/>
                  <path id="패스_18398" data-name="패스 18398" d="M513.543-390.556a1.6,1.6,0,0,0-.013,2.261,1.6,1.6,0,0,0,2.261.013,1.6,1.6,0,0,0,.013-2.261A1.6,1.6,0,0,0,513.543-390.556Z" transform="translate(-465.425 402.795)" fill="#2cb9c2"/>
                  <path id="패스_18399" data-name="패스 18399" d="M435.1-312.99a1.6,1.6,0,0,0-.013,2.261,1.6,1.6,0,0,0,2.261.013,1.6,1.6,0,0,0,.013-2.261A1.6,1.6,0,0,0,435.1-312.99Z" transform="translate(-398.889 337.006)" fill="#2cb9c2"/>
                  <path id="패스_18400" data-name="패스 18400" d="M356.649-235.424a1.6,1.6,0,0,0-.013,2.261,1.6,1.6,0,0,0,2.261.013,1.6,1.6,0,0,0,.013-2.261A1.6,1.6,0,0,0,356.649-235.424Z" transform="translate(-332.353 271.218)" fill="#2cb9c2"/>
                  <path id="패스_18401" data-name="패스 18401" d="M278.2-157.858a1.6,1.6,0,0,0-.013,2.261,1.6,1.6,0,0,0,2.261.013,1.6,1.6,0,0,0,.013-2.261A1.6,1.6,0,0,0,278.2-157.858Z" transform="translate(-265.816 205.429)" fill="#2cb9c2"/>
                  <path id="패스_18402" data-name="패스 18402" d="M199.755-80.292a1.6,1.6,0,0,0-.013,2.261,1.6,1.6,0,0,0,2.261.013,1.6,1.6,0,0,0,.013-2.261A1.6,1.6,0,0,0,199.755-80.292Z" transform="translate(-199.28 139.64)" fill="#2cb9c2"/>
                </g>
                <g id="그룹_4038" data-name="그룹 4038">
                  <path id="패스_18403" data-name="패스 18403" d="M514.052-546.945a1.6,1.6,0,0,0-.013,2.261,1.6,1.6,0,0,0,2.261.013,1.6,1.6,0,0,0,.013-2.261A1.6,1.6,0,0,0,514.052-546.945Z" transform="translate(-454.022 547.407)" fill="#2cb9c2"/>
                  <path id="패스_18404" data-name="패스 18404" d="M435.6-469.379a1.6,1.6,0,0,0-.013,2.261,1.6,1.6,0,0,0,2.261.013,1.6,1.6,0,0,0,.013-2.261A1.6,1.6,0,0,0,435.6-469.379Z" transform="translate(-387.486 481.618)" fill="#2cb9c2"/>
                  <path id="패스_18405" data-name="패스 18405" d="M357.158-391.814a1.6,1.6,0,0,0-.013,2.261,1.6,1.6,0,0,0,2.261.013,1.6,1.6,0,0,0,.013-2.261A1.6,1.6,0,0,0,357.158-391.814Z" transform="translate(-320.95 415.83)" fill="#2cb9c2"/>
                  <path id="패스_18406" data-name="패스 18406" d="M278.711-314.248a1.6,1.6,0,0,0-.013,2.261,1.6,1.6,0,0,0,2.261.013,1.6,1.6,0,0,0,.013-2.261A1.6,1.6,0,0,0,278.711-314.248Z" transform="translate(-254.414 350.041)" fill="#2cb9c2"/>
                  <path id="패스_18407" data-name="패스 18407" d="M200.263-236.682a1.6,1.6,0,0,0-.013,2.261,1.6,1.6,0,0,0,2.261.013,1.6,1.6,0,0,0,.013-2.261A1.6,1.6,0,0,0,200.263-236.682Z" transform="translate(-187.878 284.253)" fill="#2cb9c2"/>
                  <path id="패스_18408" data-name="패스 18408" d="M121.816-159.116a1.6,1.6,0,0,0-.013,2.261,1.6,1.6,0,0,0,2.261.013,1.6,1.6,0,0,0,.013-2.261A1.6,1.6,0,0,0,121.816-159.116Z" transform="translate(-121.342 218.464)" fill="#2cb9c2"/>
                </g>
              </g>
              <g id="그룹_4046" data-name="그룹 4046" transform="translate(106.945 47.564)">
                <g id="그룹_4040" data-name="그룹 4040" transform="translate(59.169 59.841)">
                  <path id="패스_18409" data-name="패스 18409" d="M1529.642-152.2a1.6,1.6,0,0,0-.013,2.261,1.6,1.6,0,0,0,2.261.013,1.6,1.6,0,0,0,.013-2.261A1.6,1.6,0,0,0,1529.642-152.2Z" transform="translate(-1481.523 152.662)" fill="#2cb9c2"/>
                  <path id="패스_18410" data-name="패스 18410" d="M1451.194-74.634a1.6,1.6,0,0,0-.013,2.261,1.6,1.6,0,0,0,2.261.013,1.6,1.6,0,0,0,.013-2.261A1.6,1.6,0,0,0,1451.194-74.634Z" transform="translate(-1414.986 86.873)" fill="#2cb9c2"/>
                  <path id="패스_18411" data-name="패스 18411" d="M1372.747,2.933a1.6,1.6,0,1,0,2.261.013A1.6,1.6,0,0,0,1372.747,2.933Z" transform="translate(-1348.45 21.084)" fill="#2cb9c2"/>
                  <path id="패스_18412" data-name="패스 18412" d="M1294.3,80.5a1.6,1.6,0,1,0,2.261.013A1.6,1.6,0,0,0,1294.3,80.5Z" transform="translate(-1281.914 -44.705)" fill="#2cb9c2"/>
                  <path id="패스_18413" data-name="패스 18413" d="M1215.853,158.065a1.6,1.6,0,1,0,2.261.013A1.6,1.6,0,0,0,1215.853,158.065Z" transform="translate(-1215.378 -110.494)" fill="#2cb9c2"/>
                </g>
                <g id="그룹_4041" data-name="그룹 4041" transform="translate(47.335 47.873)">
                  <path id="패스_18414" data-name="패스 18414" d="M1451.7-231.023a1.6,1.6,0,0,0-.013,2.261,1.6,1.6,0,0,0,2.261.013,1.6,1.6,0,0,0,.013-2.261A1.6,1.6,0,0,0,1451.7-231.023Z" transform="translate(-1403.584 231.485)" fill="#2cb9c2"/>
                  <path id="패스_18415" data-name="패스 18415" d="M1373.256-153.458a1.6,1.6,0,0,0-.013,2.261,1.6,1.6,0,0,0,2.261.013,1.6,1.6,0,0,0,.013-2.261A1.6,1.6,0,0,0,1373.256-153.458Z" transform="translate(-1337.048 165.697)" fill="#2cb9c2"/>
                  <path id="패스_18416" data-name="패스 18416" d="M1294.809-75.891a1.6,1.6,0,0,0-.013,2.261,1.6,1.6,0,0,0,2.261.013,1.6,1.6,0,0,0,.013-2.261A1.6,1.6,0,0,0,1294.809-75.891Z" transform="translate(-1270.512 99.907)" fill="#2cb9c2"/>
                  <path id="패스_18417" data-name="패스 18417" d="M1216.361,1.675a1.6,1.6,0,1,0,2.261.013A1.6,1.6,0,0,0,1216.361,1.675Z" transform="translate(-1203.976 34.118)" fill="#2cb9c2"/>
                  <path id="패스_18418" data-name="패스 18418" d="M1137.914,79.241a1.6,1.6,0,1,0,2.261.013A1.6,1.6,0,0,0,1137.914,79.241Z" transform="translate(-1137.44 -31.67)" fill="#2cb9c2"/>
                </g>
                <g id="그룹_4042" data-name="그룹 4042" transform="translate(35.501 35.905)">
                  <path id="패스_18419" data-name="패스 18419" d="M1373.765-309.847a1.6,1.6,0,0,0-.013,2.261,1.6,1.6,0,0,0,2.261.013,1.6,1.6,0,0,0,.013-2.261A1.6,1.6,0,0,0,1373.765-309.847Z" transform="translate(-1325.646 310.309)" fill="#2cb9c2"/>
                  <path id="패스_18420" data-name="패스 18420" d="M1295.318-232.281a1.6,1.6,0,0,0-.013,2.261,1.6,1.6,0,0,0,2.261.013,1.6,1.6,0,0,0,.013-2.261A1.6,1.6,0,0,0,1295.318-232.281Z" transform="translate(-1259.11 244.52)" fill="#2cb9c2"/>
                  <path id="패스_18421" data-name="패스 18421" d="M1216.871-154.715a1.6,1.6,0,0,0-.013,2.261,1.6,1.6,0,0,0,2.261.013,1.6,1.6,0,0,0,.013-2.261A1.6,1.6,0,0,0,1216.871-154.715Z" transform="translate(-1192.574 178.731)" fill="#2cb9c2"/>
                  <path id="패스_18422" data-name="패스 18422" d="M1138.423-77.149a1.6,1.6,0,0,0-.013,2.261,1.6,1.6,0,0,0,2.261.013,1.6,1.6,0,0,0,.013-2.261A1.6,1.6,0,0,0,1138.423-77.149Z" transform="translate(-1126.037 112.943)" fill="#2cb9c2"/>
                  <path id="패스_18423" data-name="패스 18423" d="M1059.976.417a1.6,1.6,0,1,0,2.261.013A1.6,1.6,0,0,0,1059.976.417Z" transform="translate(-1059.501 47.154)" fill="#2cb9c2"/>
                </g>
                <g id="그룹_4043" data-name="그룹 4043" transform="translate(23.668 23.937)">
                  <path id="패스_18424" data-name="패스 18424" d="M1295.826-388.671a1.6,1.6,0,0,0-.013,2.261,1.6,1.6,0,0,0,2.261.013,1.6,1.6,0,0,0,.013-2.261A1.6,1.6,0,0,0,1295.826-388.671Z" transform="translate(-1247.708 389.133)" fill="#2cb9c2"/>
                  <path id="패스_18425" data-name="패스 18425" d="M1217.379-311.1a1.6,1.6,0,0,0-.013,2.261,1.6,1.6,0,0,0,2.261.013,1.6,1.6,0,0,0,.013-2.261A1.6,1.6,0,0,0,1217.379-311.1Z" transform="translate(-1181.171 323.343)" fill="#2cb9c2"/>
                  <path id="패스_18426" data-name="패스 18426" d="M1138.932-233.539a1.6,1.6,0,0,0-.013,2.261,1.6,1.6,0,0,0,2.261.013,1.6,1.6,0,0,0,.013-2.261A1.6,1.6,0,0,0,1138.932-233.539Z" transform="translate(-1114.635 257.555)" fill="#2cb9c2"/>
                  <path id="패스_18427" data-name="패스 18427" d="M1060.485-155.973a1.6,1.6,0,0,0-.013,2.261,1.6,1.6,0,0,0,2.261.013,1.6,1.6,0,0,0,.013-2.261A1.6,1.6,0,0,0,1060.485-155.973Z" transform="translate(-1048.099 191.766)" fill="#2cb9c2"/>
                  <path id="패스_18428" data-name="패스 18428" d="M982.038-78.406a1.6,1.6,0,0,0-.013,2.261,1.6,1.6,0,0,0,2.261.013,1.6,1.6,0,0,0,.013-2.261A1.6,1.6,0,0,0,982.038-78.406Z" transform="translate(-981.563 125.977)" fill="#2cb9c2"/>
                </g>
                <g id="그룹_4044" data-name="그룹 4044" transform="translate(11.834 11.968)">
                  <path id="패스_18429" data-name="패스 18429" d="M1217.887-467.494a1.6,1.6,0,0,0-.013,2.261,1.6,1.6,0,0,0,2.261.013,1.6,1.6,0,0,0,.013-2.261A1.6,1.6,0,0,0,1217.887-467.494Z" transform="translate(-1169.769 467.956)" fill="#2cb9c2"/>
                  <path id="패스_18430" data-name="패스 18430" d="M1139.441-389.929a1.6,1.6,0,0,0-.013,2.261,1.6,1.6,0,0,0,2.261.013,1.6,1.6,0,0,0,.013-2.261A1.6,1.6,0,0,0,1139.441-389.929Z" transform="translate(-1103.233 402.168)" fill="#2cb9c2"/>
                  <path id="패스_18431" data-name="패스 18431" d="M1060.994-312.363a1.6,1.6,0,0,0-.013,2.261,1.6,1.6,0,0,0,2.261.013,1.6,1.6,0,0,0,.013-2.261A1.6,1.6,0,0,0,1060.994-312.363Z" transform="translate(-1036.697 336.379)" fill="#2cb9c2"/>
                  <path id="패스_18432" data-name="패스 18432" d="M982.546-234.8a1.6,1.6,0,0,0-.013,2.261,1.6,1.6,0,0,0,2.261.013,1.6,1.6,0,0,0,.013-2.261A1.6,1.6,0,0,0,982.546-234.8Z" transform="translate(-970.161 270.591)" fill="#2cb9c2"/>
                  <path id="패스_18433" data-name="패스 18433" d="M904.1-157.231a1.6,1.6,0,0,0-.013,2.261,1.6,1.6,0,0,0,2.261.013,1.6,1.6,0,0,0,.013-2.261A1.6,1.6,0,0,0,904.1-157.231Z" transform="translate(-903.624 204.802)" fill="#2cb9c2"/>
                </g>
                <g id="그룹_4045" data-name="그룹 4045">
                  <path id="패스_18434" data-name="패스 18434" d="M1139.949-546.318a1.6,1.6,0,0,0-.013,2.261,1.6,1.6,0,0,0,2.261.013,1.6,1.6,0,0,0,.013-2.261A1.6,1.6,0,0,0,1139.949-546.318Z" transform="translate(-1091.83 546.78)" fill="#2cb9c2"/>
                  <path id="패스_18435" data-name="패스 18435" d="M1061.5-468.752a1.6,1.6,0,0,0-.013,2.261,1.6,1.6,0,0,0,2.261.013,1.6,1.6,0,0,0,.013-2.261A1.6,1.6,0,0,0,1061.5-468.752Z" transform="translate(-1025.295 480.991)" fill="#2cb9c2"/>
                  <path id="패스_18436" data-name="패스 18436" d="M983.055-391.186a1.6,1.6,0,0,0-.012,2.261,1.6,1.6,0,0,0,2.261.013,1.6,1.6,0,0,0,.013-2.261A1.6,1.6,0,0,0,983.055-391.186Z" transform="translate(-958.758 415.203)" fill="#2cb9c2"/>
                  <path id="패스_18437" data-name="패스 18437" d="M904.608-313.62a1.6,1.6,0,0,0-.013,2.261,1.6,1.6,0,0,0,2.261.013,1.6,1.6,0,0,0,.013-2.261A1.6,1.6,0,0,0,904.608-313.62Z" transform="translate(-892.223 349.414)" fill="#2cb9c2"/>
                  <path id="패스_18438" data-name="패스 18438" d="M826.161-236.054a1.6,1.6,0,0,0-.013,2.261,1.6,1.6,0,0,0,2.261.013,1.6,1.6,0,0,0,.013-2.261A1.6,1.6,0,0,0,826.161-236.054Z" transform="translate(-825.687 283.625)" fill="#2cb9c2"/>
                </g>
              </g>
              <g id="그룹_4052" data-name="그룹 4052" transform="translate(59.38)">
                <g id="그룹_4047" data-name="그룹 4047" transform="translate(47.335 47.873)">
                  <path id="패스_18439" data-name="패스 18439" d="M1138.441-544.286a1.6,1.6,0,0,0-.013,2.261,1.6,1.6,0,0,0,2.261.013,1.6,1.6,0,0,0,.013-2.261A1.6,1.6,0,0,0,1138.441-544.286Z" transform="translate(-1090.322 544.747)" fill="#2cb9c2"/>
                  <path id="패스_18440" data-name="패스 18440" d="M1059.993-466.719a1.6,1.6,0,0,0-.013,2.261,1.6,1.6,0,0,0,2.261.013,1.6,1.6,0,0,0,.013-2.261A1.6,1.6,0,0,0,1059.993-466.719Z" transform="translate(-1023.785 478.959)" fill="#2cb9c2"/>
                  <path id="패스_18441" data-name="패스 18441" d="M981.546-389.153a1.6,1.6,0,0,0-.013,2.261,1.6,1.6,0,0,0,2.261.013,1.6,1.6,0,0,0,.013-2.261A1.6,1.6,0,0,0,981.546-389.153Z" transform="translate(-957.249 413.169)" fill="#2cb9c2"/>
                  <path id="패스_18442" data-name="패스 18442" d="M903.1-311.588a1.6,1.6,0,0,0-.013,2.261,1.6,1.6,0,0,0,2.261.013,1.6,1.6,0,0,0,.013-2.261A1.6,1.6,0,0,0,903.1-311.588Z" transform="translate(-890.714 347.381)" fill="#2cb9c2"/>
                  <path id="패스_18443" data-name="패스 18443" d="M824.652-234.022a1.6,1.6,0,0,0-.013,2.261,1.6,1.6,0,0,0,2.261.013,1.6,1.6,0,0,0,.013-2.261A1.6,1.6,0,0,0,824.652-234.022Z" transform="translate(-824.177 281.593)" fill="#2cb9c2"/>
                </g>
                <g id="그룹_4048" data-name="그룹 4048" transform="translate(35.502 35.905)">
                  <path id="패스_18444" data-name="패스 18444" d="M1060.5-623.109a1.6,1.6,0,0,0-.013,2.261,1.6,1.6,0,0,0,2.261.013,1.6,1.6,0,0,0,.013-2.261A1.6,1.6,0,0,0,1060.5-623.109Z" transform="translate(-1012.383 623.571)" fill="#2cb9c2"/>
                  <path id="패스_18445" data-name="패스 18445" d="M982.055-545.543a1.6,1.6,0,0,0-.013,2.261,1.6,1.6,0,0,0,2.261.013,1.6,1.6,0,0,0,.013-2.261A1.6,1.6,0,0,0,982.055-545.543Z" transform="translate(-945.847 557.782)" fill="#2cb9c2"/>
                  <path id="패스_18446" data-name="패스 18446" d="M903.608-467.977a1.6,1.6,0,0,0-.013,2.261,1.6,1.6,0,0,0,2.261.013,1.6,1.6,0,0,0,.013-2.261A1.6,1.6,0,0,0,903.608-467.977Z" transform="translate(-879.311 491.994)" fill="#2cb9c2"/>
                  <path id="패스_18447" data-name="패스 18447" d="M825.161-390.411a1.6,1.6,0,0,0-.013,2.261,1.6,1.6,0,0,0,2.261.013,1.6,1.6,0,0,0,.013-2.261A1.6,1.6,0,0,0,825.161-390.411Z" transform="translate(-812.776 426.205)" fill="#2cb9c2"/>
                  <path id="패스_18448" data-name="패스 18448" d="M746.714-312.845a1.6,1.6,0,0,0-.013,2.261,1.6,1.6,0,0,0,2.261.013,1.6,1.6,0,0,0,.013-2.261A1.6,1.6,0,0,0,746.714-312.845Z" transform="translate(-746.24 360.416)" fill="#2cb9c2"/>
                </g>
                <g id="그룹_4049" data-name="그룹 4049" transform="translate(23.668 23.937)">
                  <path id="패스_18449" data-name="패스 18449" d="M982.564-701.933a1.6,1.6,0,0,0-.013,2.261,1.6,1.6,0,0,0,2.261.013,1.6,1.6,0,0,0,.013-2.261A1.6,1.6,0,0,0,982.564-701.933Z" transform="translate(-934.445 702.395)" fill="#2cb9c2"/>
                  <path id="패스_18450" data-name="패스 18450" d="M904.117-624.367a1.6,1.6,0,0,0-.013,2.261,1.6,1.6,0,0,0,2.261.013,1.6,1.6,0,0,0,.013-2.261A1.6,1.6,0,0,0,904.117-624.367Z" transform="translate(-867.909 636.606)" fill="#2cb9c2"/>
                  <path id="패스_18451" data-name="패스 18451" d="M825.669-546.8a1.6,1.6,0,0,0-.013,2.261,1.6,1.6,0,0,0,2.261.013,1.6,1.6,0,0,0,.013-2.261A1.6,1.6,0,0,0,825.669-546.8Z" transform="translate(-801.372 570.817)" fill="#2cb9c2"/>
                  <path id="패스_18452" data-name="패스 18452" d="M747.223-469.235a1.6,1.6,0,0,0-.013,2.261,1.6,1.6,0,0,0,2.261.013,1.6,1.6,0,0,0,.013-2.261A1.6,1.6,0,0,0,747.223-469.235Z" transform="translate(-734.837 505.028)" fill="#2cb9c2"/>
                  <path id="패스_18453" data-name="패스 18453" d="M668.776-391.669a1.6,1.6,0,0,0-.013,2.261,1.6,1.6,0,0,0,2.261.013,1.6,1.6,0,0,0,.013-2.261A1.6,1.6,0,0,0,668.776-391.669Z" transform="translate(-668.301 439.24)" fill="#2cb9c2"/>
                </g>
                <g id="그룹_4050" data-name="그룹 4050" transform="translate(11.834 11.968)">
                  <path id="패스_18454" data-name="패스 18454" d="M904.625-780.757a1.6,1.6,0,0,0-.013,2.261,1.6,1.6,0,0,0,2.261.013,1.6,1.6,0,0,0,.013-2.261A1.6,1.6,0,0,0,904.625-780.757Z" transform="translate(-856.507 781.219)" fill="#2cb9c2"/>
                  <path id="패스_18455" data-name="패스 18455" d="M826.179-703.191a1.6,1.6,0,0,0-.013,2.261,1.6,1.6,0,0,0,2.261.013,1.6,1.6,0,0,0,.013-2.261A1.6,1.6,0,0,0,826.179-703.191Z" transform="translate(-789.971 715.43)" fill="#2cb9c2"/>
                  <path id="패스_18456" data-name="패스 18456" d="M747.731-625.625a1.6,1.6,0,0,0-.013,2.261,1.6,1.6,0,0,0,2.261.013,1.6,1.6,0,0,0,.013-2.261A1.6,1.6,0,0,0,747.731-625.625Z" transform="translate(-723.434 649.642)" fill="#2cb9c2"/>
                  <path id="패스_18457" data-name="패스 18457" d="M669.284-548.059a1.6,1.6,0,0,0-.013,2.261,1.6,1.6,0,0,0,2.261.013,1.6,1.6,0,0,0,.013-2.261A1.6,1.6,0,0,0,669.284-548.059Z" transform="translate(-656.898 583.853)" fill="#2cb9c2"/>
                  <path id="패스_18458" data-name="패스 18458" d="M590.837-470.493a1.6,1.6,0,0,0-.013,2.261,1.6,1.6,0,0,0,2.261.013,1.6,1.6,0,0,0,.013-2.261A1.6,1.6,0,0,0,590.837-470.493Z" transform="translate(-590.363 518.064)" fill="#2cb9c2"/>
                </g>
                <g id="그룹_4051" data-name="그룹 4051" transform="translate(0)">
                  <path id="패스_18459" data-name="패스 18459" d="M826.687-859.581a1.6,1.6,0,0,0-.013,2.261,1.6,1.6,0,0,0,2.261.013,1.6,1.6,0,0,0,.013-2.261A1.6,1.6,0,0,0,826.687-859.581Z" transform="translate(-778.568 860.042)" fill="#2cb9c2"/>
                  <path id="패스_18460" data-name="패스 18460" d="M748.24-782.014a1.6,1.6,0,0,0-.013,2.261,1.6,1.6,0,0,0,2.261.013A1.6,1.6,0,0,0,750.5-782,1.6,1.6,0,0,0,748.24-782.014Z" transform="translate(-712.032 794.254)" fill="#2cb9c2"/>
                  <path id="패스_18461" data-name="패스 18461" d="M669.793-704.449a1.6,1.6,0,0,0-.013,2.261,1.6,1.6,0,0,0,2.261.013,1.6,1.6,0,0,0,.013-2.261A1.6,1.6,0,0,0,669.793-704.449Z" transform="translate(-645.496 728.465)" fill="#2cb9c2"/>
                  <path id="패스_18462" data-name="패스 18462" d="M591.346-626.882a1.6,1.6,0,0,0-.013,2.261,1.6,1.6,0,0,0,2.261.013,1.6,1.6,0,0,0,.013-2.261A1.6,1.6,0,0,0,591.346-626.882Z" transform="translate(-578.96 662.676)" fill="#2cb9c2"/>
                  <path id="패스_18463" data-name="패스 18463" d="M512.9-549.317a1.6,1.6,0,0,0-.013,2.261,1.6,1.6,0,0,0,2.261.013,1.6,1.6,0,0,0,.013-2.261A1.6,1.6,0,0,0,512.9-549.317Z" transform="translate(-512.424 596.888)" fill="#2cb9c2"/>
                </g>
              </g>
            </g>
          </g>
        </g>
        <path id="패스_18464" data-name="패스 18464" d="M697.495-698.919c-5.676,9.55-11.955,18.649-16.029,28.668-5.379,13.227-11.9,25.251-21.677,35.811a104.37,104.37,0,0,1-76.175,33.293A104.583,104.583,0,0,1,497.286-647.3c-23.543-35.2-16.534-74.973,7.852-108.188,14.127-19.242,32.736-34.761,52.253-48.506,40.454-28.489,88.071-50.7,137.484-48.145,11.611.6,23.592,2.742,33.08,9.461,13.813,9.781,19.885,27.954,18.665,44.835s-8.714,32.686-17.526,47.136-19.079,28.041-26.772,43.117C700.815-704.635,699.181-701.757,697.495-698.919Z" transform="translate(-278.622 832.7)" fill="#2cb9c2"/>
        <g id="그룹_4057" data-name="그룹 4057" transform="translate(348.406 18.635)">
          <g id="그룹_4056" data-name="그룹 4056">
            <path id="패스_18465" data-name="패스 18465" d="M1440.6-576.859h6.5a7.362,7.362,0,0,0,.923-.031,7.165,7.165,0,0,0,.029-.882v-7.144h7.867v-7.457h-8v-7.892h-7.377v8h-7.911v7.365h7.975Z" transform="translate(-1432.623 600.266)" fill="#fff"/>
          </g>
        </g>
        <g id="그룹_4059" data-name="그룹 4059" transform="translate(369.875 85.56)" opacity="0.2">
          <g id="그룹_4058" data-name="그룹 4058">
            <path id="패스_18466" data-name="패스 18466" d="M1597.547-90.455h19.169a21.735,21.735,0,0,0,2.721-.091,21.23,21.23,0,0,0,.085-2.6v-21.073h23.207v-22h-23.61V-159.5h-21.761v23.592h-23.335v21.725h23.523Z" transform="translate(-1574.024 159.499)" fill="#fff"/>
          </g>
        </g>
        <g id="그룹_4061" data-name="그룹 4061" transform="translate(224.69 148.755)" opacity="0.2">
          <g id="그룹_4060" data-name="그룹 4060" transform="translate(0)">
            <path id="패스_18467" data-name="패스 18467" d="M628.82,288.981h8.96a10.171,10.171,0,0,0,1.272-.042,9.946,9.946,0,0,0,.04-1.217v-9.85h10.847V267.591H638.9V256.71H628.732v11.027H617.825v10.154H628.82Z" transform="translate(-617.825 -256.71)" fill="#fff"/>
          </g>
        </g>
        <g id="그룹_4094" data-name="그룹 4094" transform="translate(204.19 -19.183)">
          <g id="그룹_4093" data-name="그룹 4093" transform="translate(0)" clip-path="url(#clip-path-4)">
            <g id="그룹_4092" data-name="그룹 4092" transform="translate(48.232 57.398)">
              <g id="그룹_4064" data-name="그룹 4064" transform="translate(46.732 282.453)">
                <g id="그룹_4062" data-name="그룹 4062" transform="translate(1.556 0)">
                  <path id="패스_18468" data-name="패스 18468" d="M1140.672,1394.112c-.279.008-3.323.074-3.332.007.276,2.366.575,4.722.721,7.1q.266,4.327.531,8.655c.09,1.468.261,5.113-1.761,5.521a64.424,64.424,0,0,0-11.57,3.5,4.93,4.93,0,0,0-2.215,1.441c-1.017,1.378-.391,3.4.723,4.7,2.628,3.074,7.228,3.615,11.215,2.938s7.775-2.329,11.79-2.823a12.2,12.2,0,0,0,3.271-.619,4.838,4.838,0,0,0,2.866-4.771c-.145-1.57-1.059-2.945-1.245-4.5a43.767,43.767,0,0,1-.351-5.554c.011-1.335.12-2.666.2-4,.257-4.244.231-8.5.206-12.751a28.643,28.643,0,0,0-5.708.65A42.246,42.246,0,0,1,1140.672,1394.112Z" transform="translate(-1121.921 -1392.341)" fill="#fff"/>
                  <path id="패스_18469" data-name="패스 18469" d="M1128.578,1425.45c-3.669,0-6.8-1.2-8.689-3.411-1.234-1.444-2-3.767-.75-5.455a5.45,5.45,0,0,1,2.474-1.642,65.1,65.1,0,0,1,11.679-3.533c.71-.143,1.507-1.108,1.275-4.889l-.531-8.655c-.126-2.053-.372-4.133-.609-6.145l-.109-.923a.608.608,0,0,1,.758-.658c.422.03,2.709-.013,3.158-.027h0a41.759,41.759,0,0,0,5.265-.5c.378-.06.756-.125,1.135-.191a21.97,21.97,0,0,1,4.694-.466.607.607,0,0,1,.581.6c.025,4.191.051,8.525-.207,12.792q-.027.446-.057.892c-.066,1.01-.134,2.054-.142,3.075a42.95,42.95,0,0,0,.346,5.477,9.177,9.177,0,0,0,.582,2.041,9.739,9.739,0,0,1,.666,2.474,5.43,5.43,0,0,1-3.236,5.387,9.931,9.931,0,0,1-2.832.594c-.2.022-.4.044-.6.068a41.265,41.265,0,0,0-6.3,1.466,50.158,50.158,0,0,1-5.459,1.353A18.5,18.5,0,0,1,1128.578,1425.45Zm6.03-34.086.025.214c.24,2.028.487,4.126.615,6.213l.531,8.655c.085,1.393.345,5.63-2.247,6.154a63.9,63.9,0,0,0-11.46,3.466,4.409,4.409,0,0,0-1.956,1.239c-.814,1.1-.267,2.82.7,3.945,2.124,2.484,6.106,3.506,10.652,2.735a49.253,49.253,0,0,0,5.326-1.323,42.207,42.207,0,0,1,6.491-1.5c.2-.025.411-.048.617-.07a8.909,8.909,0,0,0,2.493-.507,4.245,4.245,0,0,0,2.5-4.155,8.662,8.662,0,0,0-.6-2.167,10.255,10.255,0,0,1-.647-2.315,44.107,44.107,0,0,1-.355-5.632c.008-1.055.077-2.117.145-3.144q.029-.443.056-.886c.244-4.026.232-8.132.209-12.118a24.04,24.04,0,0,0-3.857.459c-.384.066-.768.132-1.151.193a43.026,43.026,0,0,1-5.418.511c-.144,0-.979.023-1.779.032C1135.144,1391.363,1134.847,1391.364,1134.609,1391.364Zm-.16-.94a.606.606,0,0,1,.076.225A.593.593,0,0,0,1134.449,1390.423Z" transform="translate(-1118.503 -1388.948)" fill="#251a18"/>
                </g>
                <g id="그룹_4063" data-name="그룹 4063" transform="translate(0 20.02)">
                  <path id="패스_18470" data-name="패스 18470" d="M1120.726,1540.454a16.741,16.741,0,0,1-4.133-.937c-1.626-.608-3.683-2.054-4.206-3.8a4.118,4.118,0,0,1,.828-3.6,8.9,8.9,0,0,1,3.013-2.317,27.894,27.894,0,0,1,5.522-2.115c1.118-.309,2.266-.474,3.4-.7a21.31,21.31,0,0,1,3.536-.435c-1.222,1.373.649,2.454,1.833,2.659a12.569,12.569,0,0,0,2.88.028,15.537,15.537,0,0,0,6.37-2.025c1.188-.641,2.074-1.733,3.227-2.414-.006,0,1.048.967,1.144,1.077a7.751,7.751,0,0,1,1.033,1.655,9.825,9.825,0,0,1,.854,3.5,13.553,13.553,0,0,1-1.3,6.932,2.238,2.238,0,0,1-.776.975,2.451,2.451,0,0,1-.916.258l-3.67.531a3.484,3.484,0,0,1-1.171.036,1.779,1.779,0,0,1-1.361-1.344,3.475,3.475,0,0,1-2.467,1.467,7.737,7.737,0,0,1-1.814.2C1128.7,1540.218,1124.62,1540.865,1120.726,1540.454Z" transform="translate(-1111.646 -1524.195)" fill="#251a18"/>
                  <path id="패스_18471" data-name="패스 18471" d="M1120.11,1537.8a27.042,27.042,0,0,1-2.84-.138h0a17.24,17.24,0,0,1-4.282-.972c-1.86-.7-4-2.264-4.575-4.2a4.685,4.685,0,0,1,.929-4.14,9.528,9.528,0,0,1,3.213-2.484,28.344,28.344,0,0,1,5.642-2.163c.817-.225,1.649-.376,2.453-.523.33-.06.66-.12.989-.185a21.748,21.748,0,0,1,3.617-.445.607.607,0,0,1,.49,1.01c-.315.354-.246.55-.221.624a2.437,2.437,0,0,0,1.7,1.032,10.984,10.984,0,0,0,2.5.035l.241-.015a14.773,14.773,0,0,0,6.117-1.953,9.478,9.478,0,0,0,1.6-1.188,11.6,11.6,0,0,1,1.6-1.214.607.607,0,0,1,.643.016.621.621,0,0,1,.111.094c.046.045.181.169.341.318.586.543.754.7.817.775a8.3,8.3,0,0,1,1.124,1.794,10.413,10.413,0,0,1,.91,3.713,14.114,14.114,0,0,1-1.364,7.248,2.777,2.777,0,0,1-1.008,1.224,3,3,0,0,1-1.139.337l-3.669.531a4,4,0,0,1-1.375.031,2.358,2.358,0,0,1-1.369-.835,5.531,5.531,0,0,1-2.139.937l-.041.011a8.231,8.231,0,0,1-1.956.226c-1.234.041-2.527.139-3.778.233C1123.659,1537.67,1121.88,1537.8,1120.11,1537.8Zm-2.713-1.346a44.529,44.529,0,0,0,7.911-.131c1.263-.1,2.569-.194,3.829-.236a7.333,7.333,0,0,0,1.673-.182l.041-.011c1.047-.29,1.707-.5,2.052-1.153a.607.607,0,0,1,1.132.158,1.172,1.172,0,0,0,.885.874,3.028,3.028,0,0,0,.966-.041l3.67-.531a2.023,2.023,0,0,0,.693-.179,1.751,1.751,0,0,0,.543-.726,12.883,12.883,0,0,0,1.237-6.616,9.211,9.211,0,0,0-.8-3.28,7.263,7.263,0,0,0-.942-1.516c-.062-.065-.494-.466-.726-.681l-.029-.027c-.358.251-.7.543-1.056.847a10.558,10.558,0,0,1-1.813,1.333,15.939,15.939,0,0,1-6.623,2.1l-.238.015a11.911,11.911,0,0,1-2.781-.051,3.524,3.524,0,0,1-2.643-1.829,1.622,1.622,0,0,1-.079-.753,19.525,19.525,0,0,0-2.425.355c-.335.066-.671.127-1.008.189-.778.141-1.583.288-2.347.5a27.142,27.142,0,0,0-5.4,2.068,8.415,8.415,0,0,0-2.814,2.149,3.525,3.525,0,0,0-.727,3.051c.436,1.459,2.26,2.819,3.837,3.409a16.074,16.074,0,0,0,3.984.9Z" transform="translate(-1108.252 -1520.802)" fill="#251a18"/>
                </g>
              </g>
              <g id="그룹_4067" data-name="그룹 4067" transform="translate(18.211 282.987)">
                <g id="그룹_4065" data-name="그룹 4065" transform="translate(1.556 0)">
                  <path id="패스_18472" data-name="패스 18472" d="M952.826,1397.623c-.279.009-3.323.075-3.331.008.276,2.366.575,4.722.721,7.1l.531,8.655c.09,1.468.261,5.113-1.761,5.521a64.421,64.421,0,0,0-11.57,3.5,4.93,4.93,0,0,0-2.215,1.441c-1.017,1.378-.391,3.4.722,4.7,2.628,3.074,7.227,3.615,11.215,2.938s7.775-2.329,11.79-2.823a12.212,12.212,0,0,0,3.271-.619,4.838,4.838,0,0,0,2.866-4.771c-.145-1.57-1.059-2.945-1.245-4.5a43.733,43.733,0,0,1-.351-5.554c.011-1.335.119-2.666.2-4,.257-4.244.232-8.5.206-12.752a28.657,28.657,0,0,0-5.707.65A42.255,42.255,0,0,1,952.826,1397.623Z" transform="translate(-934.075 -1395.852)" fill="#fff"/>
                  <path id="패스_18473" data-name="패스 18473" d="M940.731,1428.961c-3.669,0-6.8-1.2-8.689-3.411-1.235-1.444-2-3.767-.749-5.456a5.458,5.458,0,0,1,2.474-1.642,65.129,65.129,0,0,1,11.679-3.532c.71-.144,1.507-1.108,1.275-4.889l-.531-8.655c-.126-2.053-.372-4.133-.609-6.145l-.109-.923a.607.607,0,0,1,.758-.658c.417.029,2.653-.012,3.158-.027a41.822,41.822,0,0,0,5.265-.5c.378-.06.756-.125,1.134-.191a22,22,0,0,1,4.7-.466.607.607,0,0,1,.581.6c.025,4.191.051,8.525-.207,12.792q-.027.443-.056.886c-.066,1.012-.134,2.058-.143,3.081a42.953,42.953,0,0,0,.346,5.477,9.19,9.19,0,0,0,.582,2.041,9.723,9.723,0,0,1,.666,2.474,5.43,5.43,0,0,1-3.236,5.387,9.965,9.965,0,0,1-2.833.594c-.2.022-.4.043-.6.068a41.307,41.307,0,0,0-6.3,1.466,50.092,50.092,0,0,1-5.459,1.353A18.487,18.487,0,0,1,940.731,1428.961Zm6.03-34.086.025.214c.24,2.029.487,4.126.615,6.213l.531,8.655c.086,1.393.345,5.63-2.247,6.154a63.889,63.889,0,0,0-11.46,3.466,4.41,4.41,0,0,0-1.956,1.239c-.814,1.1-.267,2.82.7,3.945,2.124,2.484,6.106,3.506,10.652,2.734a49.232,49.232,0,0,0,5.326-1.323,42.221,42.221,0,0,1,6.491-1.5c.2-.025.411-.047.617-.07a8.917,8.917,0,0,0,2.494-.506,4.245,4.245,0,0,0,2.5-4.156,8.67,8.67,0,0,0-.6-2.166,10.23,10.23,0,0,1-.648-2.315,44.194,44.194,0,0,1-.355-5.632c.009-1.057.078-2.121.145-3.15q.029-.441.056-.881c.244-4.027.232-8.132.208-12.118a24.063,24.063,0,0,0-3.858.459c-.383.067-.767.133-1.15.194a42.977,42.977,0,0,1-5.419.511h0c-.146,0-.986.023-1.778.032C947.3,1394.874,947,1394.877,946.762,1394.875Zm2.645-.644h0Zm-2.8-.295a.6.6,0,0,1,.076.226A.6.6,0,0,0,946.6,1393.936Z" transform="translate(-930.656 -1392.46)" fill="#251a18"/>
                </g>
                <g id="그룹_4066" data-name="그룹 4066" transform="translate(0 20.02)">
                  <path id="패스_18474" data-name="패스 18474" d="M932.88,1543.966a16.725,16.725,0,0,1-4.133-.937c-1.626-.608-3.683-2.054-4.206-3.8a4.117,4.117,0,0,1,.828-3.6,8.9,8.9,0,0,1,3.013-2.317,27.891,27.891,0,0,1,5.522-2.115c1.118-.308,2.266-.474,3.4-.7a21.261,21.261,0,0,1,3.536-.434c-1.222,1.373.649,2.453,1.833,2.658a12.582,12.582,0,0,0,2.88.028,15.538,15.538,0,0,0,6.37-2.025c1.188-.641,2.074-1.733,3.227-2.414-.007,0,1.048.966,1.144,1.077a7.753,7.753,0,0,1,1.033,1.655,9.827,9.827,0,0,1,.854,3.5,13.554,13.554,0,0,1-1.3,6.932,2.239,2.239,0,0,1-.776.975,2.459,2.459,0,0,1-.916.258l-3.67.531a3.48,3.48,0,0,1-1.17.036,1.778,1.778,0,0,1-1.361-1.344,3.474,3.474,0,0,1-2.467,1.467,7.756,7.756,0,0,1-1.814.2C940.858,1543.73,936.774,1544.377,932.88,1543.966Z" transform="translate(-923.799 -1527.706)" fill="#251a18"/>
                  <path id="패스_18475" data-name="패스 18475" d="M932.263,1541.314a27.087,27.087,0,0,1-2.841-.138h0a17.242,17.242,0,0,1-4.282-.972c-1.861-.7-4-2.264-4.575-4.2a4.685,4.685,0,0,1,.929-4.14,9.524,9.524,0,0,1,3.213-2.484,28.315,28.315,0,0,1,5.642-2.163c.817-.225,1.648-.377,2.453-.523.33-.06.661-.12.99-.185a21.723,21.723,0,0,1,3.617-.445.607.607,0,0,1,.49,1.01c-.315.354-.246.55-.221.624a2.437,2.437,0,0,0,1.7,1.032,11.041,11.041,0,0,0,2.5.035l.242-.015a14.781,14.781,0,0,0,6.117-1.954,9.467,9.467,0,0,0,1.6-1.188,11.6,11.6,0,0,1,1.6-1.214.608.608,0,0,1,.754.11c.046.045.183.171.344.321.59.547.749.7.813.771a8.317,8.317,0,0,1,1.124,1.794,10.412,10.412,0,0,1,.91,3.713,14.116,14.116,0,0,1-1.364,7.248,2.772,2.772,0,0,1-1.008,1.224,2.989,2.989,0,0,1-1.139.337l-3.67.531a3.987,3.987,0,0,1-1.375.031,2.36,2.36,0,0,1-1.37-.836,5.529,5.529,0,0,1-2.139.937l-.041.011a8.238,8.238,0,0,1-1.956.226c-1.234.041-2.527.138-3.776.233C935.812,1541.18,934.033,1541.314,932.263,1541.314Zm4.189-13.967a19.47,19.47,0,0,0-2.425.355c-.335.066-.672.128-1.008.189-.778.142-1.582.288-2.347.5a27.122,27.122,0,0,0-5.4,2.068,8.414,8.414,0,0,0-2.814,2.149,3.524,3.524,0,0,0-.727,3.051c.436,1.459,2.26,2.819,3.837,3.409a16.057,16.057,0,0,0,3.984.9h0a44.579,44.579,0,0,0,7.912-.131c1.262-.1,2.568-.194,3.827-.236a7.318,7.318,0,0,0,1.673-.182l.041-.011c1.047-.289,1.706-.5,2.051-1.153a.607.607,0,0,1,1.131.158,1.173,1.173,0,0,0,.885.874,3.038,3.038,0,0,0,.966-.042l3.67-.531a2.021,2.021,0,0,0,.692-.179,1.75,1.75,0,0,0,.544-.726,12.882,12.882,0,0,0,1.237-6.616,9.211,9.211,0,0,0-.8-3.28,7.284,7.284,0,0,0-.942-1.516c-.061-.064-.491-.463-.722-.677l-.033-.031c-.358.251-.7.543-1.056.847a10.545,10.545,0,0,1-1.813,1.333,15.95,15.95,0,0,1-6.622,2.1l-.24.014a11.921,11.921,0,0,1-2.779-.051,3.523,3.523,0,0,1-2.643-1.829A1.614,1.614,0,0,1,936.452,1527.348Z" transform="translate(-920.405 -1524.313)" fill="#251a18"/>
                </g>
              </g>
              <g id="그룹_4068" data-name="그룹 4068" transform="translate(26.56 138.801)">
                <path id="패스_18476" data-name="패스 18476" d="M1006.6,508.6q-.155-1.272-.316-2.545c1.944,15.353,1.075,32.077.192,47.49-.87,15.172-1.359,30.731-1.688,46a31.822,31.822,0,0,1-16.975.477,2.744,2.744,0,0,1-2.53-3.24l-.356-8.441c-1.267-30.091-5.145-60.018-5.518-90.172a143.149,143.149,0,0,1,1.914-26.2c1.184-6.836,2.323-16.835,7.63-22.009a8.224,8.224,0,0,1,4.537-1.763,104.275,104.275,0,0,1,22.983-1.167,14.026,14.026,0,0,1,4.408.775c4.282,1.719,6.781,7.737,8.961,11.455,14.963,25.528,11.425,55.384,8.987,83.325q-2.378,27.26-5.519,54.45a40.806,40.806,0,0,1-17.935,2.613c-1.1-.074-3.029-20.8-3.255-22.867q-1.262-11.479-1.789-23.018a519.788,519.788,0,0,0-5.8-59" transform="translate(-978.788 -446.234)" fill="#00a3b6"/>
                <path id="패스_18477" data-name="패스 18477" d="M992.029,598.16a32.188,32.188,0,0,1-7.757-.938,3.319,3.319,0,0,1-2.99-3.8l-.356-8.441c-.541-12.832-1.574-25.854-2.573-38.448-1.343-16.931-2.732-34.438-2.946-51.742a142.6,142.6,0,0,1,1.923-26.316c.121-.7.242-1.432.366-2.189,1.128-6.847,2.532-15.369,7.438-20.152A8.693,8.693,0,0,1,990,444.2a104.937,104.937,0,0,1,23.117-1.174,14.663,14.663,0,0,1,4.6.818c3.7,1.485,6.1,5.924,8.027,9.491.43.8.837,1.547,1.231,2.221,6.419,10.952,10.012,23.694,10.985,38.953.859,13.472-.368,27.274-1.554,40.621q-.183,2.061-.363,4.11c-1.578,18.1-3.436,36.421-5.521,54.467a.607.607,0,0,1-.383.5,41.446,41.446,0,0,1-18.2,2.653c-.563-.037-.881-.48-1.37-3.125-.27-1.457-.574-3.527-.9-6.152-.59-4.69-1.128-10.071-1.387-12.657-.071-.713-.123-1.226-.15-1.472-.839-7.629-1.442-15.386-1.793-23.057-.4-8.771-.953-17.166-1.663-25.257-.048,8.816-.542,17.433-.978,25.046-.761,13.268-1.3,27.879-1.687,45.982a.607.607,0,0,1-.427.567A32.386,32.386,0,0,1,992.029,598.16Zm14.821-154.1a103.675,103.675,0,0,0-16.656,1.346,7.727,7.727,0,0,0-4.211,1.6c-4.62,4.5-5.988,12.808-7.087,19.479-.125.761-.246,1.5-.368,2.2a141.4,141.4,0,0,0-1.905,26.094c.214,17.264,1.6,34.75,2.942,51.661,1,12.6,2.034,25.638,2.575,38.493l.356,8.441a3.084,3.084,0,0,0,.5,1.953,3.17,3.17,0,0,0,1.569.722,31.43,31.43,0,0,0,16.231-.341c.39-17.915.925-32.41,1.68-45.584.731-12.763,1.625-28.356.3-42.922q-1-8.031-2.239-15.726a.607.607,0,1,1,1.2-.193q.874,5.425,1.627,11a.6.6,0,0,1,.135.311c0,.019,0,.038.007.058q.157,1.246.309,2.49a.611.611,0,0,1,0,.169q.092.878.173,1.763c1.682,13.527,2.856,27.817,3.563,43.276.349,7.644.951,15.376,1.786,22.979.027.248.079.766.151,1.484.242,2.424.747,7.469,1.3,11.98.82,6.657,1.3,8.419,1.491,8.883a40.251,40.251,0,0,0,17.081-2.462c2.066-17.916,3.908-36.105,5.475-54.067q.179-2.049.363-4.112c2.391-26.912,4.864-54.74-9.269-78.853-.405-.692-.816-1.452-1.252-2.258-1.835-3.395-4.119-7.62-7.412-8.941a13.452,13.452,0,0,0-4.218-.732Q1009.951,444.057,1006.849,444.057Zm5.172,151.592h0Z" transform="translate(-975.393 -442.842)" fill="#251a18"/>
              </g>
              <g id="그룹_4069" data-name="그룹 4069" transform="translate(37.423 48.218)">
                <path id="패스_18478" data-name="패스 18478" d="M1086.979-145.693a1.678,1.678,0,0,1,.391.7c.532,2.155-2.33,7.349-3,9.5-2.193,7.087-4.164,14.242-5.987,21.432s-3.5,14.431-5.1,21.681c-.449,2.032-3.512,21.182-4.563,21.312a27.241,27.241,0,0,1-12.21-1.293,2.608,2.608,0,0,1-1.37-.85,2.743,2.743,0,0,1-.319-1.569c-.041-22.744-2.443-45.184-3.866-67.818a.975.975,0,0,1,.108-.643.968.968,0,0,1,.389-.271,70.293,70.293,0,0,1,13.813-5,46.887,46.887,0,0,1,7.219-1.143,13.652,13.652,0,0,1,6.325.684C1080.525-148.382,1085.49-147.378,1086.979-145.693Z" transform="translate(-1050.338 150.353)" fill="#00a3b6"/>
                <path id="패스_18479" data-name="패스 18479" d="M1062.027-73.648a27.891,27.891,0,0,1-9.113-1.529,3.136,3.136,0,0,1-1.672-1.081,3.287,3.287,0,0,1-.425-1.911c-.029-16.035-1.255-32.207-2.44-47.847-.495-6.527-1.006-13.275-1.425-19.934a1.523,1.523,0,0,1,.224-1.038,1.511,1.511,0,0,1,.621-.463,70.511,70.511,0,0,1,13.932-5.046,47.692,47.692,0,0,1,7.313-1.158,14.275,14.275,0,0,1,6.569.715c.377.13.935.285,1.581.465,2.356.656,5.582,1.555,6.848,2.988h0a2.275,2.275,0,0,1,.526.955c.423,1.711-.862,4.689-2,7.316-.422.978-.821,1.9-1.01,2.512-2.057,6.648-4.012,13.649-5.979,21.4-1.65,6.5-3.271,13.388-5.1,21.663-.1.455-.349,1.867-.664,3.654-3.023,17.175-3.594,18.027-4.419,18.129A27.545,27.545,0,0,1,1062.027-73.648Zm-13.864-72.626a1.445,1.445,0,0,0,0,.248c.418,6.651.93,13.4,1.424,19.918,1.187,15.662,2.414,31.857,2.443,47.936a2.245,2.245,0,0,0,.212,1.227,2.125,2.125,0,0,0,1.068.62,26.66,26.66,0,0,0,11.729,1.289c.827-1.527,2.745-12.429,3.578-17.159.329-1.873.568-3.226.674-3.706,1.833-8.287,3.456-15.182,5.109-21.7,1.972-7.774,3.933-14.794,6-21.462.208-.673.6-1.582,1.055-2.635.953-2.207,2.257-5.229,1.932-6.543a1.09,1.09,0,0,0-.257-.442c-1.028-1.163-4.179-2.041-6.264-2.622-.665-.185-1.239-.345-1.65-.487a13.071,13.071,0,0,0-6.081-.653,46.491,46.491,0,0,0-7.126,1.129,69.324,69.324,0,0,0-13.693,4.962A1.562,1.562,0,0,0,1048.163-146.274Zm0-.017Z" transform="translate(-1046.942 153.743)" fill="#251a18"/>
              </g>
              <g id="그룹_4070" data-name="그룹 4070" transform="translate(14.778 54.927)">
                <path id="패스_18480" data-name="패스 18480" d="M931.607,68.058c.541-23.34.6-46.708.619-70.056q.021-26.75.041-53.5c0-.5-5.348-30.866-8.553-46.514-.362-1.769-.159-1.782-.552-3.544a105.122,105.122,0,0,0-17.125,6.478,377.01,377.01,0,0,0-2.165,47.411c.286,31.959-.224,63.558-1.485,95.465q-.3,7.476-.591,14.952c-.1,2.5.457,2.436,2.69,2.952q2.674.618,5.35,1.231c2.378.544,4.768,1.05,7.136,1.64C921.837,65.786,926.739,66.849,931.607,68.058Z" transform="translate(-901.178 106.164)" fill="#fff"/>
                <path id="패스_18481" data-name="패스 18481" d="M928.224,65.272a.609.609,0,0,1-.146-.018c-2.389-.593-4.829-1.161-7.189-1.711-2.443-.569-4.97-1.157-7.448-1.775-1.622-.4-3.286-.776-4.895-1.136q-1.116-.249-2.229-.5-2.677-.612-5.351-1.231l-.442-.1c-2.013-.452-2.826-.744-2.718-3.468L898.4,40.38c1.284-32.483,1.769-63.7,1.485-95.436a373.481,373.481,0,0,1,2.169-47.485.607.607,0,0,1,.341-.479,105.666,105.666,0,0,1,17.22-6.514.608.608,0,0,1,.477.062.608.608,0,0,1,.283.39,13.475,13.475,0,0,1,.3,1.894,13.846,13.846,0,0,0,.25,1.66c3.188,15.563,8.565,46.043,8.565,46.636,0,11.911-.012,24.021-.024,35.732q-.009,8.884-.017,17.769c-.018,23.653-.079,46.81-.619,70.07a.607.607,0,0,1-.607.593ZM903.218-102.069a373.039,373.039,0,0,0-2.124,47c.285,31.755-.2,62.991-1.485,95.495l-.591,14.952c-.039.979.03,1.489.23,1.706a3.529,3.529,0,0,0,1.541.528l.45.1q2.674.618,5.349,1.23,1.11.254,2.223.5c1.616.361,3.287.734,4.924,1.143,2.469.616,4.99,1.2,7.429,1.77,2.122.494,4.31,1,6.47,1.533.523-22.992.583-45.9.6-69.286q.007-8.884.017-17.769c.012-11.7.024-23.805.024-35.709-.13-1.209-5.38-30.984-8.541-46.415a14.893,14.893,0,0,1-.269-1.785c-.032-.324-.062-.634-.151-1.114A104.031,104.031,0,0,0,903.218-102.069Zm25.058,43.177v0Z" transform="translate(-897.795 109.558)" fill="#251a18"/>
              </g>
              <g id="그룹_4071" data-name="그룹 4071" transform="translate(30.288 52.191)">
                <path id="패스_18482" data-name="패스 18482" d="M1019.281-70.977q-3.347-26.194-4.947-52.6c-2.415,1.194-4.448,2.01-6.862,3.2-1.544,7.068-2.569,14.268-3.427,21.467l4.257.924a56.5,56.5,0,0,0-4.076,6.24,1.573,1.573,0,0,0-.273.822,1.805,1.805,0,0,0,.531.934C1009.744-83.119,1013.442-77.8,1019.281-70.977Z" transform="translate(-1003.343 124.18)" fill="#fff"/>
                <path id="패스_18483" data-name="패스 18483" d="M1015.888-73.762a.608.608,0,0,1-.462-.213c-4.188-4.9-7.313-9.065-10.622-13.478-1.327-1.77-2.7-3.6-4.2-5.554-.038-.05-.078-.1-.119-.148a1.92,1.92,0,0,1-.537-1.125,2.125,2.125,0,0,1,.351-1.15,57.379,57.379,0,0,1,3.559-5.548l-3.338-.725a.607.607,0,0,1-.474-.665c.707-5.934,1.737-13.743,3.437-21.525a.608.608,0,0,1,.324-.415c1.217-.6,2.352-1.115,3.451-1.611s2.214-1,3.412-1.593a.608.608,0,0,1,.574.019.607.607,0,0,1,.3.489c1.06,17.5,2.723,35.181,4.943,52.556a.607.607,0,0,1-.356.632A.605.605,0,0,1,1015.888-73.762Zm-14.568-29.009,3.717.807a.608.608,0,0,1,.44.382.608.608,0,0,1-.084.577,56.035,56.035,0,0,0-4.032,6.173,1.2,1.2,0,0,0-.2.494,1.061,1.061,0,0,0,.262.414c.049.06.1.12.145.18,1.5,1.957,2.875,3.791,4.2,5.564,2.938,3.919,5.732,7.644,9.252,11.855-2.057-16.446-3.616-33.149-4.638-49.7-.912.436-1.782.829-2.63,1.212-1.009.456-2.05.926-3.151,1.464C1003.01-115.947,1002.013-108.532,1001.321-102.771Z" transform="translate(-999.95 127.573)" fill="#251a18"/>
              </g>
              <g id="그룹_4072" data-name="그룹 4072" transform="translate(0 61.072)">
                <path id="패스_18484" data-name="패스 18484" d="M824.172-65.087c-7,3.824-11.2,12.575-12.085,20.128-.6,5.182-2.675,10.448-3.862,15.539-1.238,5.31-2.325,10.658-3.145,16.049a29.3,29.3,0,0,0-.249,10.147c.67,3.335,2.59,6.583,5.658,8.052,2.942,1.409,6.41,1,9.6.307a62.58,62.58,0,0,0,8.557-2.507,5.656,5.656,0,0,0,2.451-1.451,5.671,5.671,0,0,0,1.026-2.841q.4-2.5.6-5.017c.451-5.632-6.027-5.51-10.13-6.424a2.049,2.049,0,0,1-1.223-.585,2.036,2.036,0,0,1-.188-1.6,84.222,84.222,0,0,1,6.709-21.892" transform="translate(-803.871 65.695)" fill="#fff"/>
                <path id="패스_18485" data-name="패스 18485" d="M811.674,2.989a11.1,11.1,0,0,1-4.85-1.006,11.768,11.768,0,0,1-5.991-8.48,29.785,29.785,0,0,1,.244-10.358c.758-4.98,1.79-10.245,3.154-16.1.438-1.88,1-3.812,1.552-5.681a60.9,60.9,0,0,0,2.3-9.791c.856-7.345,5.022-16.56,12.4-20.591a.608.608,0,0,1,.824.242.608.608,0,0,1-.242.824c-6.995,3.822-10.953,12.631-11.774,19.665a61.738,61.738,0,0,1-2.339,9.992c-.543,1.853-1.1,3.768-1.535,5.615-1.357,5.819-2.383,11.054-3.137,16a28.759,28.759,0,0,0-.254,9.936A10.558,10.558,0,0,0,807.349.887c2.859,1.369,6.258.9,9.206.261a62.152,62.152,0,0,0,8.474-2.482,5.128,5.128,0,0,0,2.2-1.274,5.131,5.131,0,0,0,.89-2.545c.261-1.64.461-3.312.594-4.97.306-3.815-2.854-4.63-7.352-5.364-.815-.133-1.585-.259-2.3-.419a2.594,2.594,0,0,1-1.568-.8,2.6,2.6,0,0,1-.31-2.069,84.693,84.693,0,0,1,6.757-22.05.607.607,0,0,1,.806-.3.607.607,0,0,1,.3.806,83.489,83.489,0,0,0-6.661,21.733,1.613,1.613,0,0,0,.065,1.122,1.621,1.621,0,0,0,.878.368c.686.153,1.439.276,2.237.406a18.187,18.187,0,0,1,5.708,1.558,4.932,4.932,0,0,1,2.659,5.1c-.135,1.689-.339,3.393-.6,5.063a6.191,6.191,0,0,1-1.162,3.138,6.188,6.188,0,0,1-2.7,1.628,63.4,63.4,0,0,1-8.64,2.531A24.484,24.484,0,0,1,811.674,2.989Z" transform="translate(-800.469 69.088)" fill="#251a18"/>
              </g>
              <g id="그룹_4073" data-name="그룹 4073" transform="translate(29.847 8.411)">
                <path id="패스_18486" data-name="패스 18486" d="M1002.809-409.584a8.077,8.077,0,0,0-1.664,6.432,12.558,12.558,0,0,0,2.954,6.089,14.684,14.684,0,0,1,5.911-11.356c1.713-1.254,1.308-3.257-.869-3.455A7.623,7.623,0,0,0,1002.809-409.584Z" transform="translate(-1000.435 412.516)" fill="#251a18"/>
                <path id="패스_18487" data-name="패스 18487" d="M1000.707-399.853a.607.607,0,0,1-.465-.216,13.159,13.159,0,0,1-3.09-6.389,8.7,8.7,0,0,1,1.8-6.919h0a8.22,8.22,0,0,1,6.847-2.5,2.544,2.544,0,0,1,2.408,1.715,2.7,2.7,0,0,1-1.236,2.834,14.116,14.116,0,0,0-5.662,10.879.607.607,0,0,1-.405.56A.6.6,0,0,1,1000.707-399.853Zm-.829-12.732a7.47,7.47,0,0,0-1.524,5.944,11.181,11.181,0,0,0,1.874,4.544,15.4,15.4,0,0,1,6.031-10.211,1.536,1.536,0,0,0,.783-1.53c-.126-.454-.63-.765-1.348-.83a6.98,6.98,0,0,0-5.816,2.082Z" transform="translate(-997.044 415.913)" fill="#251a18"/>
              </g>
              <g id="그룹_4074" data-name="그룹 4074" transform="translate(31.462 7.221)">
                <path id="패스_18488" data-name="패스 18488" d="M1041.5-388.537c.074-.117.151-.233.225-.349a23.133,23.133,0,0,0,3.293-13.679,19.072,19.072,0,0,0-4.4-10.717,17.859,17.859,0,0,0-15.426-6.344,15.1,15.1,0,0,0-10.027,5.889c-2.574,3.341-3.139,7.441-3.1,11.509a11.434,11.434,0,0,1-.058,1.587,17.931,17.931,0,0,0-.164,5.589,14.253,14.253,0,0,0,3.376,7.547c3.219,3.482,6.641,4.355,11.151,4.846.9.1.614,3.112.656,3.937q.124,2.422.247,4.843a2.235,2.235,0,0,0,.584,1.7,2.039,2.039,0,0,0,1.032.348,13.145,13.145,0,0,0,10.251-3.136c.936-.826,2.429-2.007,2.59-3.322a4.225,4.225,0,0,0-.007-.82l-.4-5.4C1041.218-385.907,1040.708-387.28,1041.5-388.537Z" transform="translate(-1011.079 420.349)" fill="#fff"/>
                <path id="패스_18489" data-name="패스 18489" d="M1027.11-374.52a13.126,13.126,0,0,1-1.694-.109,2.586,2.586,0,0,1-1.332-.475,2.817,2.817,0,0,1-.812-2.143l-.247-4.843c-.009-.188,0-.444,0-.768a8.581,8.581,0,0,0-.2-2.6c-4.8-.529-8.214-1.532-11.446-5.028a14.677,14.677,0,0,1-3.53-7.865,17.7,17.7,0,0,1,.13-5.52l.031-.241a11.04,11.04,0,0,0,.053-1.5c-.032-3.264.268-8.047,3.225-11.886a15.6,15.6,0,0,1,10.434-6.121,18.34,18.34,0,0,1,15.965,6.554,19.674,19.674,0,0,1,4.542,11.06,23.8,23.8,0,0,1-3.387,14.054l-.1.152-.125.195h0a3.665,3.665,0,0,0-.215,2.61c.05.34.1.692.127,1.051l.4,5.4a4.764,4.764,0,0,1,0,.939c-.174,1.427-1.533,2.609-2.525,3.472l-.266.232A13.784,13.784,0,0,1,1027.11-374.52Zm-3.465-48.011a14.385,14.385,0,0,0-1.772.108,14.4,14.4,0,0,0-9.621,5.657c-2.1,2.732-3.021,6.165-2.973,11.133a11.911,11.911,0,0,1-.063,1.671l-.032.242a16.53,16.53,0,0,0-.135,5.175,13.492,13.492,0,0,0,3.222,7.229c3.009,3.255,6.106,4.147,10.77,4.655,1.27.138,1.231,2.183,1.2,3.826-.005.289-.01.538,0,.683l.247,4.843c.025.49.075,1.031.357,1.257a1.576,1.576,0,0,0,.731.22,12.523,12.523,0,0,0,9.771-2.989l.272-.238c.844-.734,2-1.739,2.116-2.7a3.742,3.742,0,0,0-.01-.7l-.4-5.4c-.024-.317-.072-.647-.118-.967a4.757,4.757,0,0,1,.39-3.434h0c.043-.069.088-.138.132-.206l.093-.145a22.519,22.519,0,0,0,3.2-13.3,18.449,18.449,0,0,0-4.258-10.373A17.633,17.633,0,0,0,1023.646-422.531Zm14.461,30.593h0Z" transform="translate(-1007.683 423.751)" fill="#251a18"/>
              </g>
              <g id="그룹_4075" data-name="그룹 4075" transform="translate(42.919 18.452)">
                <path id="패스_18490" data-name="패스 18490" d="M1091.348-345a3.789,3.789,0,0,0-4.211-.214" transform="translate(-1086.529 346.364)" fill="#fff"/>
                <path id="패스_18491" data-name="패스 18491" d="M1087.954-347.811a.6.6,0,0,1-.371-.127,3.181,3.181,0,0,0-3.518-.179.607.607,0,0,1-.837-.195.607.607,0,0,1,.194-.836,4.374,4.374,0,0,1,4.9.249.607.607,0,0,1,.109.852A.607.607,0,0,1,1087.954-347.811Z" transform="translate(-1083.136 349.782)" fill="#251a18"/>
              </g>
              <g id="그룹_4076" data-name="그룹 4076" transform="translate(32.778 19.703)">
                <path id="패스_18492" data-name="패스 18492" d="M1023.744-337.286a3.49,3.49,0,0,0-3.4.454" transform="translate(-1019.738 338.145)" fill="#fff"/>
                <path id="패스_18493" data-name="패스 18493" d="M1016.952-339.622a.606.606,0,0,1-.481-.236.607.607,0,0,1,.109-.852,4.091,4.091,0,0,1,4-.534.608.608,0,0,1,.329.794.607.607,0,0,1-.794.329,2.894,2.894,0,0,0-2.8.373A.605.605,0,0,1,1016.952-339.622Z" transform="translate(-1016.344 341.542)" fill="#251a18"/>
              </g>
              <g id="그룹_4077" data-name="그룹 4077" transform="translate(36.796 28.401)">
                <path id="패스_18494" data-name="패스 18494" d="M1049.171-280.256a5.8,5.8,0,0,1-1.265,1.433c-.476.386-1.068.791-1.092,1.4-.027.695.687,1.156,1.307,1.469a2.878,2.878,0,0,0,1.359.419" transform="translate(-1046.206 280.863)" fill="#fff"/>
                <path id="패스_18495" data-name="패스 18495" d="M1046.032-278.316a3.511,3.511,0,0,1-1.577-.485c-.461-.233-1.688-.851-1.641-2.036a2.471,2.471,0,0,1,1.173-1.737l.143-.114a5.177,5.177,0,0,0,1.132-1.283.608.608,0,0,1,.837-.194.607.607,0,0,1,.194.837,6.391,6.391,0,0,1-1.4,1.583l-.152.121c-.347.276-.705.562-.716.834s.317.572.974.9a2.455,2.455,0,0,0,1.063.355.607.607,0,0,1,.629.584.607.607,0,0,1-.585.629Z" transform="translate(-1042.813 284.256)" fill="#251a18"/>
              </g>
              <g id="그룹_4078" data-name="그룹 4078" transform="translate(43.838 26.085)">
                <path id="패스_18496" data-name="패스 18496" d="M1093.739-295.418c1.232-.61,1.692,1.805.378,1.8a.943.943,0,0,1-.479-1.742Q1093.689-295.394,1093.739-295.418Z" transform="translate(-1092.584 296.123)" fill="#251a18"/>
                <path id="패스_18497" data-name="패스 18497" d="M1090.729-296.4h-.008a1.526,1.526,0,0,1-1.471-1.133,1.532,1.532,0,0,1,.678-1.735c.05-.03.1-.058.148-.082h0a1.307,1.307,0,0,1,1.513.177,1.815,1.815,0,0,1,.42,1.914A1.327,1.327,0,0,1,1090.729-296.4Zm-.113-1.862c-.018.009-.036.019-.054.03a.316.316,0,0,0-.141.373.311.311,0,0,0,.307.244h0c.109,0,.126-.03.149-.088a.613.613,0,0,0-.11-.575C1090.749-298.294,1090.727-298.315,1090.616-298.261Z" transform="translate(-1089.192 299.51)" fill="#251a18"/>
              </g>
              <g id="그룹_4079" data-name="그룹 4079" transform="translate(34.498 27.754)">
                <path id="패스_18498" data-name="패스 18498" d="M1032.226-284.43c1.232-.61,1.692,1.805.378,1.8a.942.942,0,0,1-.48-1.742C1032.159-284.4,1032.193-284.414,1032.226-284.43Z" transform="translate(-1031.071 285.135)" fill="#251a18"/>
                <path id="패스_18499" data-name="패스 18499" d="M1029.217-285.411h-.008a1.526,1.526,0,0,1-1.471-1.132,1.532,1.532,0,0,1,.678-1.735c.051-.031.1-.058.148-.082h0a1.306,1.306,0,0,1,1.513.177,1.814,1.814,0,0,1,.42,1.914A1.327,1.327,0,0,1,1029.217-285.411Zm-.005-1.9a.264.264,0,0,0-.108.035h0a.6.6,0,0,0-.055.031.316.316,0,0,0-.141.373.311.311,0,0,0,.307.244c.108,0,.129-.03.152-.087a.613.613,0,0,0-.11-.575A.059.059,0,0,0,1029.211-287.307Zm-.378-.509h0Z" transform="translate(-1027.679 288.522)" fill="#251a18"/>
              </g>
              <g id="그룹_4080" data-name="그룹 4080" transform="translate(47.362 3.506)">
                <path id="패스_18500" data-name="패스 18500" d="M1137.588-427.144a21.935,21.935,0,0,0-1.421-8.332c-2.4-5.836-9.472-9.233-15.535-8.682-.617.056-3.928,1.179-4.231.985a18.834,18.834,0,0,1,2.111,1.751,19.051,19.051,0,0,1,2.4,2.556c4.276,5.293,8.529,12.112,7.508,19.228-.225,1.566-.718,1.816.4,3.049.813.9,2.2,2.264,3.518,2.2,3.512-.173,4.818-7.125,5.091-9.721C1137.522-425.092,1137.582-426.111,1137.588-427.144Z" transform="translate(-1115.793 444.824)" fill="#251a18"/>
                <path id="패스_18501" data-name="패스 18501" d="M1128.842-417.178c-1.149,0-2.418-.787-3.877-2.4a2.4,2.4,0,0,1-.718-2.669c.057-.247.121-.527.171-.874,1.052-7.326-3.708-14.215-7.379-18.759a18.618,18.618,0,0,0-2.317-2.476c-.224-.191-.432-.38-.633-.562a10.5,10.5,0,0,0-1.41-1.138h0a.607.607,0,0,1-.185-.839.608.608,0,0,1,.673-.259,20.18,20.18,0,0,0,2.264-.565,13.484,13.484,0,0,1,1.75-.439,17.114,17.114,0,0,1,9.484,2.015,14.41,14.41,0,0,1,6.669,7.041,22.531,22.531,0,0,1,1.467,8.567h0c-.006,1.018-.064,2.059-.172,3.093s-1.184,10.043-5.665,10.264Q1128.9-417.178,1128.842-417.178ZM1114.484-446.2c.145.127.285.254.424.38.194.176.395.358.605.538a19.723,19.723,0,0,1,2.473,2.636c3.815,4.721,8.756,11.9,7.636,19.7-.057.4-.13.717-.19.974-.171.743-.2.877.436,1.582,1.535,1.7,2.494,2.027,3.038,2,2.824-.139,4.189-6.064,4.516-9.178.1-.994.16-1.995.166-2.973h0a21.311,21.311,0,0,0-1.375-8.1c-2.4-5.832-9.468-8.8-14.919-8.308-.187.017-.931.228-1.528.4C1115.251-446.407,1114.831-446.29,1114.484-446.2Zm19.711,15.658h0Zm-20.863-16.542h0Z" transform="translate(-1112.4 448.222)" fill="#251a18"/>
              </g>
              <g id="그룹_4081" data-name="그룹 4081" transform="translate(35.991)">
                <path id="패스_18502" data-name="패스 18502" d="M1067.362-445.155a9.515,9.515,0,0,1-3.622.307,9.6,9.6,0,0,1-6.192-3.3c-2.53-2.985-3.139-7.579-6.8-9.509a6.171,6.171,0,0,0-5.052-.284,20.988,20.988,0,0,0-3.5,2.16c-.155-1.417-.776-2.645-.673-4.13a7.561,7.561,0,0,1,1.443-3.943,8.959,8.959,0,0,1,6.814-3.451c3.666-.142,7.334,1.795,10.056,4.109,3.112,2.645,4.224,6.308,5.6,10.055a14.8,14.8,0,0,0,1.713,3.78,5.526,5.526,0,0,0,3.213,1.974c.167.059.364.154.374.331.009.145-.117.259-.232.346A9.507,9.507,0,0,1,1067.362-445.155Z" transform="translate(-1040.903 467.916)" fill="#251a18"/>
                <path id="패스_18503" data-name="패스 18503" d="M1061.356-447.579a9.728,9.728,0,0,1-1.074-.059,10.2,10.2,0,0,1-6.588-3.506,19.618,19.618,0,0,1-2.423-4.023c-1.087-2.182-2.113-4.243-4.2-5.342a5.548,5.548,0,0,0-4.548-.256,11.066,11.066,0,0,0-2.318,1.373c-.347.245-.706.5-1.077.734a.607.607,0,0,1-.589.034.606.606,0,0,1-.34-.481,11.205,11.205,0,0,0-.313-1.535,8.327,8.327,0,0,1-.362-2.7,8.207,8.207,0,0,1,1.56-4.262,9.519,9.519,0,0,1,7.279-3.7c4.548-.176,8.515,2.589,10.473,4.253,2.953,2.51,4.147,5.807,5.411,9.3q.182.5.368,1.011c.073.2.145.4.216.6a11.56,11.56,0,0,0,1.416,3.029,4.557,4.557,0,0,0,2.649,1.665l.276.1c.614.216.763.591.779.868a1.028,1.028,0,0,1-.473.867,10.049,10.049,0,0,1-3.343,1.652h0A10.287,10.287,0,0,1,1061.356-447.579Zm-16.849-14.768a6.735,6.735,0,0,1,3.13.763c2.432,1.282,3.6,3.617,4.72,5.875a18.71,18.71,0,0,0,2.262,3.779,8.968,8.968,0,0,0,5.8,3.084,8.97,8.97,0,0,0,3.39-.288h0a8.884,8.884,0,0,0,2.591-1.2,5.572,5.572,0,0,1-3.128-2.057,12.649,12.649,0,0,1-1.581-3.341c-.07-.2-.141-.394-.213-.59q-.187-.51-.37-1.017c-1.207-3.334-2.348-6.484-5.055-8.785-3.1-2.636-6.614-4.081-9.639-3.964a8.3,8.3,0,0,0-6.349,3.2,6.98,6.98,0,0,0-1.325,3.625,7.282,7.282,0,0,0,.328,2.322c.061.242.123.487.178.738l.263-.185a12.145,12.145,0,0,1,2.576-1.512A6.674,6.674,0,0,1,1044.507-462.348Z" transform="translate(-1037.511 471.31)" fill="#251a18"/>
              </g>
              <path id="패스_18504" data-name="패스 18504" d="M1084.832-303.491a.608.608,0,0,1-.09-.007,8.977,8.977,0,0,1-3.411-1.089.607.607,0,0,1-.255-.82.607.607,0,0,1,.82-.255,7.786,7.786,0,0,0,3.025.963.607.607,0,0,1,.511.69A.607.607,0,0,1,1084.832-303.491Z" transform="translate(-1038.41 330.873)" fill="#251a18"/>
              <path id="패스_18505" data-name="패스 18505" d="M1023.126-295.774a.637.637,0,0,1-.09-.007,8.979,8.979,0,0,1-3.411-1.089.607.607,0,0,1-.255-.82.607.607,0,0,1,.82-.255,7.786,7.786,0,0,0,3.025.963.607.607,0,0,1,.511.69A.607.607,0,0,1,1023.126-295.774Z" transform="translate(-986.074 324.328)" fill="#251a18"/>
              <path id="패스_18506" data-name="패스 18506" d="M1055.046-233.436l-.189,0a.607.607,0,0,1-.6-.618.607.607,0,0,1,.607-.6h.011a9.974,9.974,0,0,0,5.306-1.441.608.608,0,0,1,.835.2.607.607,0,0,1-.2.835A11.2,11.2,0,0,1,1055.046-233.436Z" transform="translate(-1015.726 271.883)" fill="#251a18"/>
              <g id="그룹_4082" data-name="그룹 4082" transform="translate(57.963 22.256)">
                <path id="패스_18507" data-name="패스 18507" d="M1186.22-319.279c.309-.823,1.09-1.036,1.929-1.3,3.366-1.052,5.141,2.8,3.4,5.488a3.558,3.558,0,0,1-4.484.851" transform="translate(-1185.612 321.359)" fill="#fff"/>
                <path id="패스_18508" data-name="패스 18508" d="M1185.443-316.563a4.2,4.2,0,0,1-2.079-.523.607.607,0,0,1-.222-.83.607.607,0,0,1,.83-.222,2.939,2.939,0,0,0,3.67-.655,3.4,3.4,0,0,0-.012-3.842,2.3,2.3,0,0,0-2.695-.736l-.1.031c-.8.248-1.259.413-1.443.9a.607.607,0,0,1-.782.355.607.607,0,0,1-.355-.782,2.937,2.937,0,0,1,2.219-1.634l.1-.03a3.526,3.526,0,0,1,4.025,1.161,4.633,4.633,0,0,1,.063,5.238A3.776,3.776,0,0,1,1185.443-316.563Z" transform="translate(-1182.219 324.732)" fill="#251a18"/>
              </g>
              <g id="그룹_4083" data-name="그룹 4083" transform="translate(63.486 29.91)">
                <path id="패스_18509" data-name="패스 18509" d="M1232.333-267.354a8.577,8.577,0,0,1,1.472,2.063,15.777,15.777,0,0,1,1.236,7.7,39.873,39.873,0,0,0,.058,7.856c.42,2.528,1.663,5.157,3.979,6.453-.888-.5-2.673-.017-3.707-.089-3.374-.237-7.144-1.347-9.489-3.943a11.344,11.344,0,0,1-2.881-8.013c.13-2.921,1.39-5.88.555-8.683-.933-3.131-2.432-6.56,2.343-6.291A9.815,9.815,0,0,1,1232.333-267.354Z" transform="translate(-1221.97 270.926)" fill="#251a18"/>
                <path id="패스_18510" data-name="패스 18510" d="M1235.7-246.069a.606.606,0,0,1-.3-.077h0a4.567,4.567,0,0,0-2.059-.076,8.992,8.992,0,0,1-1.393.063c-2.454-.172-7-.94-9.9-4.142a11.908,11.908,0,0,1-3.037-8.447,24.11,24.11,0,0,1,.426-3.172,11.478,11.478,0,0,0,.154-5.31c-.078-.262-.16-.526-.242-.79-.607-1.952-1.234-3.97-.243-5.24.622-.8,1.748-1.137,3.444-1.041a10.389,10.389,0,0,1,6.838,3.136,9.186,9.186,0,0,1,1.576,2.209,16.368,16.368,0,0,1,1.3,7.991c-.019.572-.048,1.153-.075,1.714a28.487,28.487,0,0,0,.125,6.022,8.227,8.227,0,0,0,3.676,6.022h0a.607.607,0,0,1,.233.826A.607.607,0,0,1,1235.7-246.069ZM1222.008-273.1a2.419,2.419,0,0,0-1.94.59c-.6.768-.068,2.478.446,4.132.083.268.167.537.246.8a12.544,12.544,0,0,1-.122,5.872,23.218,23.218,0,0,0-.407,3.011,10.684,10.684,0,0,0,2.725,7.579c2.608,2.886,6.809,3.585,9.081,3.744a8.31,8.31,0,0,0,1.2-.06c.159-.015.318-.03.477-.043a10.5,10.5,0,0,1-2.586-5.556,29.419,29.419,0,0,1-.14-6.281c.027-.557.056-1.132.075-1.695a15.29,15.29,0,0,0-1.171-7.4,7.972,7.972,0,0,0-1.369-1.917h0a9.162,9.162,0,0,0-6.03-2.765Q1222.235-273.1,1222.008-273.1Z" transform="translate(-1218.592 274.317)" fill="#251a18"/>
              </g>
              <path id="패스_18511" data-name="패스 18511" d="M1073.448-317.02c-.264,0-.542-.014-.837-.042h0a3.862,3.862,0,0,1-3.7-2.572,4.9,4.9,0,0,1,.69-4.725,4.872,4.872,0,0,1,5.976-1.2,5.521,5.521,0,0,1,1.716,1.493,3.78,3.78,0,0,1,.712,3.374,4.854,4.854,0,0,1-2.431,3.243A4.778,4.778,0,0,1,1073.448-317.02Zm-.723-1.251a4.33,4.33,0,0,0,2.319-.274,3.655,3.655,0,0,0,1.784-2.455,2.541,2.541,0,0,0-.5-2.324,4.317,4.317,0,0,0-1.336-1.17,3.675,3.675,0,0,0-4.449.894,3.667,3.667,0,0,0-.5,3.536c.44,1.163,1.166,1.649,2.679,1.792Z" transform="translate(-1027.881 348.155)" fill="#251a18"/>
              <path id="패스_18512" data-name="패스 18512" d="M1001.689-308.461c-.264,0-.542-.014-.838-.042h0a3.862,3.862,0,0,1-3.7-2.572,4.9,4.9,0,0,1,.69-4.725,4.873,4.873,0,0,1,5.976-1.2,5.523,5.523,0,0,1,1.716,1.493,3.78,3.78,0,0,1,.712,3.374,4.853,4.853,0,0,1-2.431,3.243A4.78,4.78,0,0,1,1001.689-308.461Zm-.724-1.251a4.332,4.332,0,0,0,2.32-.274,3.656,3.656,0,0,0,1.784-2.455,2.542,2.542,0,0,0-.5-2.324,4.32,4.32,0,0,0-1.336-1.17,3.676,3.676,0,0,0-4.449.895,3.667,3.667,0,0,0-.5,3.536c.44,1.163,1.166,1.649,2.679,1.792Z" transform="translate(-967.018 340.896)" fill="#251a18"/>
              <path id="패스_18513" data-name="패스 18513" d="M1053.461-294.577a.608.608,0,0,1-.6-.512.608.608,0,0,1,.5-.695c.827-.131,1.669-.224,2.5-.276a.608.608,0,0,1,.644.568.607.607,0,0,1-.568.644c-.8.05-1.6.138-2.39.263A.615.615,0,0,1,1053.461-294.577Z" transform="translate(-1014.533 322.671)" fill="#251a18"/>
              <path id="패스_18514" data-name="패스 18514" d="M1125.874-316.481a.608.608,0,0,1-.594-.484.607.607,0,0,1,.472-.718l9.1-1.884a.607.607,0,0,1,.718.472.607.607,0,0,1-.471.718l-9.1,1.884A.605.605,0,0,1,1125.874-316.481Z" transform="translate(-1075.951 342.618)" fill="#251a18"/>
              <g id="그룹_4084" data-name="그룹 4084" transform="translate(49.079 49.968)">
                <path id="패스_18515" data-name="패스 18515" d="M1131.112-82.4c.549,15.024-.689,30.061-1.034,45.091-.117,5.091-.233,10.182-.478,15.269-.178,3.688-.422,7.372-.667,11.056-1.154,17.391-.769,35.033-1.226,52.536q11.18-.926,22.381-1.583c5.489-.322,10.983-.61,16.478-.819,1.328-.051,4.614.564,5.76-.246,1.686-1.191.9-4.719.858-6.452-.252-11.031-.711-22.056-1.181-33.08-.93-21.815-1.907-43.652-1.378-65.492.4-16.456,1.65-32.882,1.8-49.345.057-6.1.211-9.027-.2-15.114-4.6-3.8-16.491-6.668-24.808-7.638-2.29,11.238-4.7,22.509-6.989,33.746C1138.852-96.725,1131.043-84.3,1131.112-82.4Z" transform="translate(-1127.101 138.824)" fill="#fff"/>
                <path id="패스_18516" data-name="패스 18516" d="M1124.315,38.766a.607.607,0,0,1-.607-.623c.162-6.188.219-12.5.274-18.6.1-11.161.206-22.7.953-33.957.24-3.619.489-7.361.666-11.045.244-5.072.362-10.238.477-15.234v-.019c.115-5.017.333-10.115.544-15.045.421-9.841.855-20.018.49-30.009h0c-.032-.875.9-2.77,2.849-6.632,2.341-4.645,5.548-11.008,6.48-15.582,1.144-5.616,2.338-11.334,3.493-16.864s2.351-11.261,3.5-16.882a.606.606,0,0,1,.665-.482c7.356.858,20.118,3.637,25.125,7.773a.608.608,0,0,1,.219.427c.338,4.976.3,7.787.241,12.041-.013.957-.027,1.984-.038,3.12-.086,9.277-.528,18.691-.955,27.8-.331,7.065-.674,14.371-.848,21.558-.513,21.183.407,42.717,1.3,63.542l.081,1.909c.5,11.753.936,22.356,1.182,33.092.008.335.047.763.089,1.217.179,1.94.423,4.6-1.2,5.746-.991.7-2.909.556-4.6.428-.583-.044-1.134-.085-1.485-.072-4.854.184-10.085.445-16.465.819-7.427.435-14.952.967-22.367,1.582Zm20.193-179.706c-1.112,5.448-2.267,10.982-3.386,16.34-1.154,5.528-2.348,11.245-3.491,16.858-.964,4.734-4.213,11.18-6.585,15.887-1.285,2.55-2.742,5.44-2.72,6.041h0c.367,10.04-.069,20.241-.49,30.106-.21,4.924-.428,10.017-.543,15.021v.019c-.115,5-.234,10.177-.478,15.265-.178,3.695-.427,7.443-.667,11.067-.744,11.22-.849,22.743-.95,33.887-.053,5.887-.109,11.967-.258,17.948,7.206-.591,14.51-1.105,21.721-1.528,6.388-.374,11.628-.635,16.49-.82a15.943,15.943,0,0,1,1.623.075c1.265.095,3.175.239,3.809-.209,1.053-.744.846-3,.695-4.643-.044-.475-.085-.923-.093-1.3C1168.939,18.348,1168.5,7.752,1168-4l-.081-1.909c-.89-20.845-1.811-42.4-1.3-63.623.174-7.2.518-14.514.849-21.586.427-9.093.868-18.5.954-27.75.011-1.139.025-2.167.038-3.126.056-4.148.094-6.914-.221-11.677C1163.9-137.07,1153.2-139.863,1144.508-140.94Z" transform="translate(-1123.708 142.217)" fill="#251a18"/>
              </g>
              <g id="그룹_4085" data-name="그룹 4085" transform="translate(62.913 91.148)">
                <path id="패스_18517" data-name="패스 18517" d="M1234.239,152.68a110.481,110.481,0,0,1-15.422-1.363q.226-9.16.452-18.321l9.449.728c2.36.181,4.738-.057,7.05.612.351.105-.592,7.973-.669,8.827Q1234.669,147.922,1234.239,152.68Z" transform="translate(-1218.21 -132.389)" fill="#fff"/>
                <path id="패스_18518" data-name="패스 18518" d="M1230.846,149.894h-.011a111.452,111.452,0,0,1-15.506-1.37.608.608,0,0,1-.511-.615l.452-18.321a.607.607,0,0,1,.654-.591l9.449.728c.729.056,1.48.072,2.207.087a18.964,18.964,0,0,1,4.965.548c.555.167.534.8.509,1.527-.017.512-.067,1.237-.147,2.156-.144,1.651-.358,3.6-.486,4.768-.055.5-.1.865-.109,1.014l-.86,9.516A.607.607,0,0,1,1230.846,149.894Zm-14.8-2.487a110.269,110.269,0,0,0,14.248,1.261l.81-8.952c.014-.152.055-.525.111-1.037.17-1.549.658-5.991.638-7.248a19.309,19.309,0,0,0-4.3-.4c-.743-.015-1.512-.031-2.275-.09l-8.811-.679Z" transform="translate(-1214.817 -128.995)" fill="#251a18"/>
              </g>
              <g id="그룹_4086" data-name="그룹 4086" transform="translate(73.967 83.242)">
                <path id="패스_18519" data-name="패스 18519" d="M1296.479,81.453a13.044,13.044,0,0,0-3.835-.526q-.382,4.144-1.02,8.258a6.564,6.564,0,0,1,1.116.17.469.469,0,0,1,.248.111.477.477,0,0,1,.046.428,48.012,48.012,0,0,0-.926,6.52c.711.018,1.413-.015,2.119-.015a27.989,27.989,0,0,0,.389-2.886q.234-1.5.535-2.985c.371-1.835.545-3.73.817-5.585Z" transform="translate(-1291.017 -80.319)" fill="#251a18"/>
                <path id="패스_18520" data-name="패스 18520" d="M1289.165,93.635q-.232,0-.466-.006a.607.607,0,0,1-.59-.651,48.81,48.81,0,0,1,.909-6.466,5.45,5.45,0,0,0-.821-.114.608.608,0,0,1-.566-.7c.422-2.718.763-5.484,1.015-8.221a.607.607,0,0,1,.6-.551,13.567,13.567,0,0,1,4.014.55.607.607,0,0,1,.43.671l-.511,3.491c-.09.616-.171,1.249-.25,1.861-.158,1.236-.322,2.514-.573,3.756-.2.974-.375,1.97-.53,2.959-.009.055-.036.317-.063.571-.045.421-.106,1-.165,1.468-.11.862-.16,1.256-.645,1.349a.6.6,0,0,1-.115.011c-.274,0-.548.005-.822.01S1289.452,93.635,1289.165,93.635Zm-.238-8.375c.173.029.356.065.555.11a.942.942,0,0,1,.753,1.257,47.683,47.683,0,0,0-.863,5.791c.207,0,.414-.005.618-.009l.359-.006c.071-.5.159-1.329.2-1.745.039-.369.058-.549.071-.631.157-1.007.339-2.02.539-3.012.242-1.2.4-2.455.559-3.67.079-.618.161-1.257.253-1.883l.433-2.957a12.4,12.4,0,0,0-2.6-.359C1289.575,80.516,1289.281,82.9,1288.927,85.26Z" transform="translate(-1287.624 -76.926)" fill="#251a18"/>
              </g>
              <g id="그룹_4087" data-name="그룹 4087" transform="translate(52.395 47.905)">
                <path id="패스_18521" data-name="패스 18521" d="M1149.547-94.07l20.413-20.43a1.973,1.973,0,0,0,.7-1.145,1.958,1.958,0,0,0-.258-.954l-3.94-8.479a44.958,44.958,0,0,1,8.925-3.359.93.93,0,0,0,.4-.175c.278-.25.157-.7.016-1.049q-2.741-6.752-4.9-13.719c-.673-2.168-1.682-4.733-2.244-6.919-.181-.7-3.5-1.2-5.417-1.5-.4-.064-1.893,9.936-2.049,10.83q-1.007,5.77-2.211,11.5-2.408,11.464-5.594,22.746Q1151.589-100.362,1149.547-94.07Z" transform="translate(-1148.94 152.412)" fill="#fff"/>
                <path id="패스_18522" data-name="패스 18522" d="M1146.154-96.856a.606.606,0,0,1-.317-.089.608.608,0,0,1-.26-.705c1.353-4.167,2.643-8.418,3.833-12.633,2.11-7.471,3.989-15.11,5.584-22.706.8-3.8,1.54-7.66,2.207-11.483.025-.144.085-.528.17-1.068,1.529-9.728,1.779-9.91,2.1-10.14a.636.636,0,0,1,.477-.116l.248.039c3.8.6,5.426,1,5.661,1.914.339,1.318.851,2.8,1.345,4.228.323.934.628,1.817.891,2.663,1.43,4.605,3.074,9.2,4.887,13.671.311.765.252,1.347-.173,1.729a1.486,1.486,0,0,1-.654.311,44.391,44.391,0,0,0-8.277,3.052l3.691,7.941a2.506,2.506,0,0,1,.313,1.259,2.512,2.512,0,0,1-.879,1.526l-20.413,20.43A.606.606,0,0,1,1146.154-96.856Zm14.049-57.671c-.286,1.015-.833,4.092-1.631,9.174-.087.551-.148.942-.174,1.089-.67,3.836-1.415,7.713-2.215,11.524-1.6,7.623-3.486,15.289-5.6,22.787-.968,3.426-2,6.876-3.08,10.285l18.638-18.654a1.544,1.544,0,0,0,.528-.764,1.554,1.554,0,0,0-.2-.651l-3.94-8.479a.607.607,0,0,1,.278-.8,45.612,45.612,0,0,1,9.045-3.4c.032-.008.078-.02.114-.031a1.277,1.277,0,0,0-.106-.376c-1.826-4.5-3.482-9.13-4.922-13.768-.257-.828-.559-1.7-.879-2.626-.493-1.425-1-2.9-1.353-4.243C1164.2-153.876,1161.469-154.325,1160.2-154.527Zm4.526,1.093Z" transform="translate(-1145.546 155.806)" fill="#251a18"/>
              </g>
              <g id="그룹_4088" data-name="그룹 4088" transform="translate(6.299 81.53)">
                <path id="패스_18523" data-name="패스 18523" d="M864.077,131.008l45.652,8.683-18.12-61.354-45.652-8.683Z" transform="translate(-845.35 -69.046)" fill="#a0cfda"/>
                <path id="패스_18524" data-name="패스 18524" d="M906.336,136.906a.609.609,0,0,1-.113-.011l-45.652-8.683a.607.607,0,0,1-.469-.425L841.982,66.432a.607.607,0,0,1,.7-.769l45.652,8.683a.607.607,0,0,1,.469.425l18.12,61.354a.607.607,0,0,1-.582.779Zm-45.174-9.818,44.31,8.428L887.739,75.471l-44.31-8.428Z" transform="translate(-841.957 -65.653)" fill="#251a18"/>
              </g>
              <g id="그룹_4089" data-name="그룹 4089" transform="translate(4.192 80.597)">
                <path id="패스_18525" data-name="패스 18525" d="M846.025,112.156l27.891,5.032a26.58,26.58,0,0,1-2.535-7.056,80.71,80.71,0,0,1-2.129-22.445c.221-4.813.913-10.7,3.851-14.69a4.372,4.372,0,0,1,2.27-1.788,1.994,1.994,0,0,1,2.413,1.132c.129-.93-1.015-1.457-1.929-1.672-10.7-2.517-24.646-5.022-35.43-7.161a11.646,11.646,0,0,0-6.278,6.177,26.6,26.6,0,0,0-1.9,8.732c-.85,10.315,1.055,21.6,4.174,31.472C836.592,110.406,843.359,111.623,846.025,112.156Z" transform="translate(-831.448 -62.902)" fill="#fff"/>
                <path id="패스_18526" data-name="패스 18526" d="M870.546,114.4a.6.6,0,0,1-.108-.01l-27.891-5.032-.011,0c-.425-.085-.956-.188-1.547-.3-7.947-1.537-8.335-1.823-8.51-2.376-3.485-11.027-4.977-22.287-4.2-31.7a27.385,27.385,0,0,1,1.946-8.93,12.308,12.308,0,0,1,6.619-6.5.608.608,0,0,1,.331-.027q4.442.881,9.469,1.838c8.535,1.64,18.208,3.5,25.982,5.327,1.647.387,2.541,1.264,2.392,2.346a.607.607,0,0,1-1.184.091,1.4,1.4,0,0,0-1.678-.718,3.745,3.745,0,0,0-1.934,1.56c-2.94,3.994-3.539,10.107-3.733,14.358A79.945,79.945,0,0,0,868.6,106.6a25.965,25.965,0,0,0,2.472,6.9.607.607,0,0,1-.528.908Zm-27.777-6.236,26.666,4.811a30.728,30.728,0,0,1-2.014-6.1,81.15,81.15,0,0,1-2.145-22.614c.2-4.409.833-10.763,3.969-15.022a5.8,5.8,0,0,1,1.786-1.683c-7.509-1.723-16.569-3.465-24.615-5.011q-4.925-.946-9.3-1.805a11.125,11.125,0,0,0-5.778,5.8,26.3,26.3,0,0,0-1.844,8.534c-.759,9.215.694,20.24,4.093,31.064a71.233,71.233,0,0,0,7.637,1.724C841.812,107.979,842.343,108.081,842.769,108.167Z" transform="translate(-828.079 -59.509)" fill="#251a18"/>
              </g>
              <g id="그룹_4090" data-name="그룹 4090" transform="translate(44.989 106.583)">
                <path id="패스_18527" data-name="패스 18527" d="M1110.042,239.375c-1.665-.046-3.3-.486-4.957-.6a1.614,1.614,0,0,0-1.373.362,1.124,1.124,0,0,0-.018,1.288,2.692,2.692,0,0,0,1.043.875c2.592,1.427,5.665,1.6,8.62,1.748a17.306,17.306,0,0,1-7.192-1.242c-1.418-.574-2.887-1.355-4.39-1.071a.961.961,0,0,0-.615.312c-1.846,2.475,3.226,3.758,4.766,4.25a29.535,29.535,0,0,0,8.258,1.363c-2.366.033-2.832.267-9.834-1.275a2.654,2.654,0,0,0-1.281.007,1.094,1.094,0,0,0-.834.879c-.045.537.435.96.89,1.25,3.05,1.948,6.837,2.233,10.449,2.464a29.82,29.82,0,0,1-6.891-.75,1.635,1.635,0,0,0-1.3.057,1.074,1.074,0,0,0-.1,1.484,2.894,2.894,0,0,0,1.4.848,26.635,26.635,0,0,0,8.383,1.527c4.434.085,9.078-.908,13.179.781.192.079.527-.174.6-.37q1.783-5.166,3.375-10.4l-7.876-2.182a14.837,14.837,0,0,1-3.086-.806c-.942-.539-1.717-1.953-2.4-2.788a4.188,4.188,0,0,0-2.451-1.767,22.545,22.545,0,0,0-3.307-.949.351.351,0,0,0-.273.027.357.357,0,0,0-.1.266,2.216,2.216,0,0,0,.458,1.951,4.908,4.908,0,0,0,.766.418.831.831,0,0,1,.486.675C1114.409,239.34,1110.855,239.4,1110.042,239.375Z" transform="translate(-1100.157 -234.049)" fill="#fff"/>
                <path id="패스_18528" data-name="패스 18528" d="M1124.949,251.157a.815.815,0,0,1-.311-.06c-2.8-1.153-5.844-1-9.068-.84-1.277.064-2.6.13-3.891.1a27.138,27.138,0,0,1-8.574-1.562,3.439,3.439,0,0,1-1.682-1.053,1.854,1.854,0,0,1-.352-1.384,1.484,1.484,0,0,1,.313-.714,12.327,12.327,0,0,1-1.97-1.013,2.012,2.012,0,0,1-1.167-1.813,1.664,1.664,0,0,1,1.151-1.374,4.233,4.233,0,0,1-2.533-2.172,2.115,2.115,0,0,1,.424-1.99,1.57,1.57,0,0,1,.99-.546,4.326,4.326,0,0,1,1.261-.046,1.613,1.613,0,0,1,.326-1.349,2.173,2.173,0,0,1,1.877-.573c.776.055,1.544.177,2.287.3a20.358,20.358,0,0,0,2.644.306h0c1.216.034,3.168-.146,3.7-.651a.2.2,0,0,0,.072-.107.507.507,0,0,0-.177-.149c-.07-.039-.152-.078-.238-.118a2.688,2.688,0,0,1-.617-.362,2.791,2.791,0,0,1-.674-2.472.856.856,0,0,1,1.087-.837,23.094,23.094,0,0,1,3.4.972,4.76,4.76,0,0,1,2.723,1.956c.212.258.422.555.645.869a6.433,6.433,0,0,0,1.589,1.777,6.651,6.651,0,0,0,1.849.514c.393.073.764.141,1.1.234l7.875,2.182a.607.607,0,0,1,.419.762c-1.058,3.475-2.2,6.98-3.382,10.417a1.291,1.291,0,0,1-.677.7A1.006,1.006,0,0,1,1124.949,251.157Zm-6.148-2.223a16.57,16.57,0,0,1,6.113.965c1.1-3.2,2.168-6.468,3.162-9.711l-7.275-2.015c-.283-.078-.629-.143-1-.21a7.282,7.282,0,0,1-2.23-.654,7.171,7.171,0,0,1-1.976-2.128c-.21-.3-.409-.576-.594-.8a5.133,5.133,0,0,0-1.154-1.144,5.052,5.052,0,0,0-1.024-.434,24.652,24.652,0,0,0-2.9-.864,1.408,1.408,0,0,0,.264,1.118,1.729,1.729,0,0,0,.352.194c.1.049.212.1.325.162a1.408,1.408,0,0,1,.794,1.217,1.373,1.373,0,0,1-.45.975c-1.081,1.028-4,1-4.57.985h0a21.576,21.576,0,0,1-2.8-.321c-.717-.114-1.458-.233-2.181-.283-.463-.033-.755.018-.869.151a.548.548,0,0,0,.038.574,1.5,1.5,0,0,0,.413.412c.389.143.772.3,1.151.465.207.088.414.175.619.258a16.591,16.591,0,0,0,2.642.818,38.442,38.442,0,0,0,4.352.381.607.607,0,0,1,0,1.213,17.964,17.964,0,0,1-4.541-.393,13.578,13.578,0,0,1-4.4-1.429c-.123-.068-.25-.141-.375-.222a4.21,4.21,0,0,0-2.181-.279.535.535,0,0,0-.243.081.917.917,0,0,0-.241.882c.36,1.1,3.1,1.931,4.271,2.288.165.05.313.1.437.135a28.876,28.876,0,0,0,8.089,1.335.607.607,0,0,1-.006,1.215c-.266,0-.508.01-.738.016-1.843.048-2.957.077-9.235-1.306a2.053,2.053,0,0,0-.985,0c-.206.058-.383.213-.394.346-.015.176.214.433.611.687,2.994,1.912,6.8,2.155,10.16,2.37a.607.607,0,0,1-.034,1.213,30.486,30.486,0,0,1-7.031-.765c-.244-.056-.652-.149-.813-.037a.238.238,0,0,0-.08.158.645.645,0,0,0,.118.46,2.413,2.413,0,0,0,1.122.644,25.933,25.933,0,0,0,8.191,1.492c1.25.023,2.55-.041,3.807-.1C1116.6,248.988,1117.7,248.934,1118.8,248.934Zm-8.85-17.347Z" transform="translate(-1096.77 -230.655)" fill="#251a18"/>
              </g>
              <g id="그룹_4091" data-name="그룹 4091" transform="translate(67.341 56.007)">
                <path id="패스_18529" data-name="패스 18529" d="M1271.841-98.443c3.682,1.667,7.157,5.776,9.156,9.289,6.12,10.76,10.131,23.221,14.244,34.856,1.8,5.082,3.6,10.184,5.09,15.346,2.189,7.565,1.143,16.857-8.207,18.351a28.779,28.779,0,0,1-8.986-.428c-8.165-1.287-15.562-2.3-23.626-4.11-1.767-.4-4.318-1.068-6.1-1.417-1.8-.354-3.664-.853-5.432-1.115.567-3.381,1.067-7.241,1.49-10.641a36.418,36.418,0,0,1,.709-4.02c.348-1.469.533-2.732.913-4.533,5.148.442,10.339,1.438,15.481,2.157,1.9.265,3.795.508,5.7.686,1.323.124,3.013.656,4.223.62-1.064-5.152-3.662-10.42-5.651-15.287" transform="translate(-1247.377 99.05)" fill="#fff"/>
                <path id="패스_18530" data-name="패스 18530" d="M1285.987-23.18a41,41,0,0,1-6.336-.642c-1.516-.239-3-.468-4.477-.695-6.48-1-12.6-1.94-19.188-3.422-.679-.153-1.462-.343-2.29-.544-1.329-.323-2.7-.657-3.79-.87-.691-.136-1.4-.294-2.081-.447-1.1-.248-2.247-.5-3.324-.663a.608.608,0,0,1-.4-.244.608.608,0,0,1-.108-.458c.565-3.37,1.068-7.257,1.486-10.616a37,37,0,0,1,.721-4.084c.2-.825.342-1.6.5-2.426.122-.646.248-1.314.412-2.093a.608.608,0,0,1,.646-.48c3.474.3,7.01.854,10.43,1.391,1.669.262,3.394.533,5.083.769,2.268.317,4.017.528,5.673.682.581.054,1.221.182,1.841.3.53.105,1.072.213,1.56.271a69.005,69.005,0,0,0-4.019-11.025c-.479-1.117-.975-2.272-1.429-3.383a.608.608,0,0,1,.332-.792.608.608,0,0,1,.792.332c.45,1.1.922,2.2,1.421,3.363a64.781,64.781,0,0,1,4.263,12.03.608.608,0,0,1-.118.5.608.608,0,0,1-.459.23,12.349,12.349,0,0,1-2.58-.336c-.616-.123-1.2-.238-1.717-.287-1.675-.157-3.442-.369-5.728-.689-1.7-.237-3.429-.509-5.1-.772-3.222-.506-6.548-1.029-9.808-1.333-.112.551-.206,1.052-.3,1.54-.158.837-.307,1.628-.509,2.48a35.835,35.835,0,0,0-.7,3.955c-.395,3.173-.866,6.818-1.394,10.064.93.161,1.879.374,2.8.581.676.151,1.374.308,2.049.441,1.113.218,2.5.556,3.843.881.823.2,1.6.389,2.27.539,6.546,1.473,12.647,2.412,19.106,3.407q2.21.34,4.481.7a28.059,28.059,0,0,0,8.8.428,9.488,9.488,0,0,0,6.883-4.221c2.022-3.188,2.335-8.183.836-13.362-1.5-5.2-3.322-10.339-5.08-15.312q-.776-2.2-1.553-4.429c-3.6-10.31-7.324-20.971-12.646-30.329-1.772-3.116-5.161-7.352-8.878-9.036a.607.607,0,0,1-.3-.8.607.607,0,0,1,.8-.3c3.978,1.8,7.481,6.11,9.433,9.542,5.377,9.454,9.119,20.168,12.737,30.529q.778,2.227,1.552,4.424c1.764,4.99,3.588,10.149,5.1,15.379,1.618,5.59,1.262,10.821-.978,14.35a10.651,10.651,0,0,1-7.717,4.769A17.926,17.926,0,0,1,1285.987-23.18Z" transform="translate(-1243.984 102.444)" fill="#251a18"/>
              </g>
              <path id="패스_18531" data-name="패스 18531" d="M1441.023,264a.6.6,0,0,1-.25-.054,29.623,29.623,0,0,0-5.838-1.479c-1.314-.247-2.555-.481-3.538-.755a.607.607,0,0,1,.326-1.17c.933.26,2.149.489,3.437.732a29.774,29.774,0,0,1,6.114,1.566.607.607,0,0,1-.251,1.161Z" transform="translate(-1335.223 -149.404)" fill="#251a18"/>
            </g>
          </g>
        </g>
      </g>
    </g>
  </g>
</svg>
