<svg xmlns="http://www.w3.org/2000/svg" xmlns:xlink="http://www.w3.org/1999/xlink" width="791" height="448" viewBox="0 0 791 448">
  <defs>
    <clipPath id="clip-path">
      <rect id="사각형_2986" data-name="사각형 2986" width="791" height="448" transform="translate(928 110)" fill="#edf9f9"/>
    </clipPath>
    <clipPath id="clip-path-2">
      <rect id="사각형_2508" data-name="사각형 2508" width="1054.738" height="377.174" rx="188.587" transform="translate(0 745.812) rotate(-45)" fill="#2cb9c2"/>
    </clipPath>
  </defs>
  <g id="main_visual" transform="translate(-928 -110)" clip-path="url(#clip-path)">
    <g id="그룹_4087" data-name="그룹 4087">
      <g id="그룹_2942" data-name="그룹 2942" transform="translate(45.31 -442.116) rotate(-1)">
        <circle id="타원_1" data-name="타원 1" cx="4" cy="4" r="4" transform="translate(1032 625)" fill="#8cd3d7"/>
        <circle id="타원_2" data-name="타원 2" cx="4" cy="4" r="4" transform="translate(1011 646)" fill="#8cd3d7"/>
        <circle id="타원_3" data-name="타원 3" cx="4" cy="4" r="4" transform="translate(1011 646)" fill="#8cd3d7"/>
        <circle id="타원_4" data-name="타원 4" cx="4" cy="4" r="4" transform="translate(989 667)" fill="#8cd3d7"/>
        <circle id="타원_21" data-name="타원 21" cx="4" cy="4" r="4" transform="translate(988.232 710.993)" fill="#8cd3d7"/>
        <circle id="타원_27" data-name="타원 27" cx="4" cy="4" r="4" transform="translate(987.482 753.987)" fill="#8cd3d7"/>
        <circle id="타원_15" data-name="타원 15" cx="4" cy="4" r="4" transform="translate(989 625)" fill="#8cd3d7"/>
        <circle id="타원_5" data-name="타원 5" cx="4" cy="4" r="4" transform="translate(968 688)" fill="#8cd3d7"/>
        <circle id="타원_20" data-name="타원 20" cx="4" cy="4" r="4" transform="translate(967.232 731.993)" fill="#8cd3d7"/>
        <circle id="타원_26" data-name="타원 26" cx="4" cy="4" r="4" transform="translate(966.482 774.987)" fill="#8cd3d7"/>
        <circle id="타원_14" data-name="타원 14" cx="4" cy="4" r="4" transform="translate(968 646)" fill="#8cd3d7"/>
        <circle id="타원_6" data-name="타원 6" cx="4" cy="4" r="4" transform="translate(946 710)" fill="#8cd3d7"/>
        <circle id="타원_19" data-name="타원 19" cx="4" cy="4" r="4" transform="translate(945.232 753.993)" fill="#8cd3d7"/>
        <circle id="타원_25" data-name="타원 25" cx="4" cy="4" r="4" transform="translate(944.482 796.987)" fill="#8cd3d7"/>
        <circle id="타원_13" data-name="타원 13" cx="4" cy="4" r="4" transform="translate(946 668)" fill="#8cd3d7"/>
        <circle id="타원_7" data-name="타원 7" cx="4" cy="4" r="4" transform="translate(925 731)" fill="#8cd3d7"/>
        <circle id="타원_18" data-name="타원 18" cx="4" cy="4" r="4" transform="translate(924.232 774.993)" fill="#8cd3d7"/>
        <circle id="타원_24" data-name="타원 24" cx="4" cy="4" r="4" transform="translate(923.482 817.987)" fill="#8cd3d7"/>
        <circle id="타원_12" data-name="타원 12" cx="4" cy="4" r="4" transform="translate(925 689)" fill="#8cd3d7"/>
        <circle id="타원_8" data-name="타원 8" cx="4" cy="4" r="4" transform="translate(903 752)" fill="#8cd3d7"/>
        <circle id="타원_17" data-name="타원 17" cx="4" cy="4" r="4" transform="translate(902.232 795.993)" fill="#8cd3d7"/>
        <circle id="타원_11" data-name="타원 11" cx="4" cy="4" r="4" transform="translate(903 710)" fill="#8cd3d7"/>
        <circle id="타원_9" data-name="타원 9" cx="4" cy="4" r="4" transform="translate(882 773)" fill="#8cd3d7"/>
        <circle id="타원_16" data-name="타원 16" cx="4" cy="4" r="4" transform="translate(881.232 816.993)" fill="#8cd3d7"/>
        <circle id="타원_10" data-name="타원 10" cx="4" cy="4" r="4" transform="translate(882 731)" fill="#8cd3d7"/>
      </g>
      <rect id="사각형_2507" data-name="사각형 2507" width="1054.738" height="377.174" rx="188.587" transform="translate(937.75 349.812) rotate(-45)" fill="#2cb9c2"/>
      <path id="합치기_3" data-name="합치기 3" d="M11.986,35V23.014H0V12.226H11.986V0H22.774V12.226H35V23.014H22.774V35Z" transform="translate(1059 329)" fill="#fff" opacity="0.3"/>
      <path id="합치기_4" data-name="합치기 4" d="M15.411,45V29.589H0V15.719H15.411V0h13.87V15.719H45v13.87H29.281V45Z" transform="translate(938 455)" fill="#2cb9c2" opacity="0.3"/>
      <path id="합치기_5" data-name="합치기 5" d="M11.3,33V21.7H0V11.527H11.3V0H21.473V11.527H33V21.7H21.473V33Z" transform="translate(1489 487)" fill="#2cb9c2" opacity="0.3"/>
      <path id="합치기_1" data-name="합치기 1" d="M36.987,108V71.014H0V37.726H36.987V0H70.274V37.726H108V71.014H70.274V108Z" transform="translate(1374 265)" fill="#fff" opacity="0.3"/>
      <path id="합치기_2" data-name="합치기 2" d="M12.329,36V23.671H0v-11.1H12.329V0h11.1V12.575H36v11.1H23.425V36Z" transform="translate(1329 145)" fill="#fff"/>
      <g id="마스크_그룹_1" data-name="마스크 그룹 1" transform="translate(937.75 -396)" clip-path="url(#clip-path-2)">
        <g id="그룹_2941" data-name="그룹 2941" transform="translate(155.125 553.143)">
          <g id="그룹_2913" data-name="그룹 2913" transform="translate(90.507 547.033)">
            <g id="그룹_2911" data-name="그룹 2911" transform="translate(3.014 0)">
              <path id="패스_18277" data-name="패스 18277" d="M618.165,601.862c-.541.016-6.435.143-6.452.014.536,4.583,1.114,9.145,1.4,13.753q.516,8.381,1.028,16.762c.175,2.843.506,9.9-3.41,10.693a124.646,124.646,0,0,0-22.408,6.778,9.557,9.557,0,0,0-4.289,2.789c-1.969,2.67-.757,6.581,1.4,9.1,5.092,5.954,14,7,21.72,5.691s15.058-4.511,22.832-5.467a23.69,23.69,0,0,0,6.336-1.2,9.372,9.372,0,0,0,5.551-9.24c-.28-3.041-2.049-5.7-2.412-8.712a84.617,84.617,0,0,1-.679-10.757c.021-2.585.232-5.164.388-7.745.5-8.219.449-16.461.4-24.7-3.713-.162-7.384.675-11.054,1.258A82.011,82.011,0,0,1,618.165,601.862Z" transform="translate(-581.749 -598.332)" fill="#fff"/>
              <path id="패스_18278" data-name="패스 18278" d="M601.75,669.6a35.916,35.916,0,0,0,6-.52,97.389,97.389,0,0,0,10.583-2.625,79.785,79.785,0,0,1,12.192-2.835c.386-.047.772-.089,1.16-.132a19.292,19.292,0,0,0,5.514-1.158,10.618,10.618,0,0,0,6.329-10.537,18.893,18.893,0,0,0-1.3-4.819,17.733,17.733,0,0,1-1.121-3.927,83.4,83.4,0,0,1-.669-10.6c.016-1.971.148-3.992.274-5.945l.111-1.733c.5-8.262.45-16.66.4-24.781a1.279,1.279,0,0,0-1.223-1.268,43.177,43.177,0,0,0-9.121.9c-.73.126-1.46.253-2.189.369a81.024,81.024,0,0,1-10.183.96h0c-.861.026-5.257.1-6.1.054a1.329,1.329,0,0,0-.47-.03,1.278,1.278,0,0,0-1.115,1.417l.213,1.805c.459,3.887.935,7.908,1.177,11.875l1.028,16.762c.443,7.251-1.055,9.093-2.389,9.364a126.291,126.291,0,0,0-22.637,6.846,10.664,10.664,0,0,0-4.835,3.216c-2.446,3.314-.96,7.866,1.456,10.692C588.525,667.269,594.613,669.6,601.75,669.6Zm36.93-68.338c.045,7.688.065,15.6-.4,23.358l-.109,1.721c-.129,1.988-.264,4.046-.28,6.09a85.639,85.639,0,0,0,.687,10.922,19.9,19.9,0,0,0,1.26,4.5,16.785,16.785,0,0,1,1.149,4.173,8.117,8.117,0,0,1-4.772,7.944,17.17,17.17,0,0,1-4.8.973c-.4.044-.8.088-1.2.136A81.788,81.788,0,0,0,617.625,664a95.449,95.449,0,0,1-10.3,2.558c-8.775,1.49-16.445-.478-20.536-5.261-1.836-2.148-2.886-5.418-1.342-7.513a8.5,8.5,0,0,1,3.745-2.366,123.761,123.761,0,0,1,22.176-6.707c5.106-1.033,4.6-9.306,4.433-12.024l-1.027-16.762c-.249-4.039-.727-8.1-1.192-12.021l-.033-.283c1.139-.007,2.731-.037,5.043-.108a83.233,83.233,0,0,0,10.506-.991c.741-.118,1.483-.244,2.224-.374A47.186,47.186,0,0,1,638.68,601.265Z" transform="translate(-582.135 -598.709)" fill="#28211f"/>
            </g>
            <g id="그룹_2912" data-name="그룹 2912" transform="translate(0 38.771)">
              <path id="패스_18279" data-name="패스 18279" d="M596.922,657.221a32.435,32.435,0,0,1-8-1.815c-3.149-1.177-7.133-3.978-8.145-7.366a7.974,7.974,0,0,1,1.6-6.964,17.247,17.247,0,0,1,5.836-4.487,54.075,54.075,0,0,1,10.695-4.1c2.165-.6,4.387-.919,6.582-1.352a41.056,41.056,0,0,1,6.847-.841c-2.366,2.657,1.257,4.751,3.551,5.149a24.339,24.339,0,0,0,5.577.054,30.069,30.069,0,0,0,12.337-3.921c2.3-1.243,4.016-3.356,6.249-4.676-.013.009,2.03,1.872,2.216,2.086a15.089,15.089,0,0,1,2,3.206,19.01,19.01,0,0,1,1.653,6.772A26.256,26.256,0,0,1,643.4,652.4a4.33,4.33,0,0,1-1.5,1.888,4.748,4.748,0,0,1-1.774.5l-7.107,1.028a6.725,6.725,0,0,1-2.267.071,3.445,3.445,0,0,1-2.636-2.6c-.95,1.8-2.815,2.3-4.779,2.841a14.948,14.948,0,0,1-3.514.395C612.373,656.764,604.462,658.017,596.922,657.221Z" transform="translate(-579.233 -625.63)" fill="#28211f"/>
              <path id="패스_18280" data-name="패스 18280" d="M602.676,659.139c3.431,0,6.88-.261,10.255-.516,2.419-.183,4.921-.374,7.309-.453a16.184,16.184,0,0,0,3.812-.44,11.269,11.269,0,0,0,4.181-1.791,4.654,4.654,0,0,0,2.645,1.575,7.91,7.91,0,0,0,2.7-.058l7.107-1.028a5.915,5.915,0,0,0,2.243-.665,5.472,5.472,0,0,0,1.993-2.414,27.44,27.44,0,0,0,2.652-14.091,20.259,20.259,0,0,0-1.772-7.226,16.24,16.24,0,0,0-2.192-3.5c-.126-.145-.437-.439-1.582-1.5-.31-.288-.572-.531-.665-.619a1.22,1.22,0,0,0-.226-.192,1.277,1.277,0,0,0-1.358-.036,22.468,22.468,0,0,0-3.122,2.361,18.32,18.32,0,0,1-3.085,2.289,28.544,28.544,0,0,1-11.8,3.771l-.47.028a21.348,21.348,0,0,1-4.815-.067c-1.443-.25-2.948-1.152-3.22-1.932-.045-.128-.165-.466.406-1.106a1.278,1.278,0,0,0,.195-1.409,1.253,1.253,0,0,0-1.226-.719,42.365,42.365,0,0,0-7.019.864c-.635.126-1.276.241-1.913.358-1.56.284-3.174.578-4.759,1.017a54.718,54.718,0,0,0-10.946,4.2,18.489,18.489,0,0,0-6.258,4.838,9.179,9.179,0,0,0-1.815,8.108c1.129,3.779,5.295,6.84,8.921,8.2a33.466,33.466,0,0,0,8.319,1.89h0A52.691,52.691,0,0,0,602.676,659.139ZM597.3,657.6h0Zm31.191-5.219a1.278,1.278,0,0,0-1.129.683c-.649,1.229-1.91,1.629-3.916,2.183a14.032,14.032,0,0,1-3.288.369c-2.443.082-4.971.273-7.418.459a86.116,86.116,0,0,1-15.3.253v0a30.99,30.99,0,0,1-7.691-1.741c-3.029-1.133-6.533-3.742-7.367-6.536a6.723,6.723,0,0,1,1.39-5.816,16.2,16.2,0,0,1,5.417-4.133,52.3,52.3,0,0,1,10.44-4c1.476-.406,3.034-.69,4.538-.964.652-.119,1.3-.237,1.952-.366a37.86,37.86,0,0,1,4.569-.675,3.244,3.244,0,0,0,.165,1.382c.74,2.115,3.514,3.316,5.2,3.608a23.119,23.119,0,0,0,5.407.1l.465-.028a30.981,30.981,0,0,0,12.868-4.072,20.577,20.577,0,0,0,3.529-2.595c.666-.567,1.305-1.114,1.971-1.586v0c.551.51,1.253,1.158,1.407,1.321a13.915,13.915,0,0,1,1.792,2.9,17.7,17.7,0,0,1,1.534,6.317,24.826,24.826,0,0,1-2.385,12.758,3.325,3.325,0,0,1-1.014,1.365,3.886,3.886,0,0,1-1.3.334l-7.107,1.028a5.9,5.9,0,0,1-1.835.081,2.168,2.168,0,0,1-1.635-1.613,1.281,1.281,0,0,0-1.074-1A1.242,1.242,0,0,0,628.489,652.38Z" transform="translate(-579.61 -626.008)" fill="#28211f"/>
            </g>
          </g>
          <g id="그룹_2916" data-name="그룹 2916" transform="translate(35.268 548.063)">
            <g id="그룹_2914" data-name="그룹 2914" transform="translate(3.015)">
              <path id="패스_18281" data-name="패스 18281" d="M657.058,602.589c-.541.016-6.437.143-6.452.014.535,4.583,1.113,9.145,1.4,13.753q.513,8.381,1.027,16.761c.175,2.843.507,9.9-3.41,10.695a124.6,124.6,0,0,0-22.406,6.778,9.542,9.542,0,0,0-4.289,2.789c-1.97,2.669-.757,6.582,1.4,9.1,5.09,5.954,14,7,21.721,5.691s15.058-4.511,22.832-5.468a23.642,23.642,0,0,0,6.336-1.2,9.368,9.368,0,0,0,5.549-9.24c-.28-3.041-2.049-5.7-2.412-8.712a84.875,84.875,0,0,1-.679-10.757c.021-2.585.232-5.164.388-7.745.5-8.219.449-16.461.4-24.7-3.711-.162-7.384.675-11.053,1.258A82.027,82.027,0,0,1,657.058,602.589Z" transform="translate(-620.641 -599.056)" fill="#fff"/>
              <path id="패스_18282" data-name="패스 18282" d="M640.641,670.332a35.891,35.891,0,0,0,6-.521,96.616,96.616,0,0,0,10.588-2.625,79.776,79.776,0,0,1,12.188-2.833c.386-.05.773-.091,1.16-.132a19.317,19.317,0,0,0,5.512-1.157,10.626,10.626,0,0,0,6.33-10.537,18.816,18.816,0,0,0-1.3-4.816A17.771,17.771,0,0,1,680,643.778a82.942,82.942,0,0,1-.67-10.6c.016-1.974.148-4,.277-5.957l.109-1.719c.5-8.243.449-16.62.4-24.721a1.337,1.337,0,0,0-1.223-1.331,42.843,42.843,0,0,0-9.107.9c-.736.126-1.469.254-2.2.371a80.858,80.858,0,0,1-10.185.96c-.861.027-5.265.112-6.1.054a1.276,1.276,0,0,0-1.587,1.386l.212,1.812c.46,3.887.935,7.907,1.177,11.871l1.028,16.761c.446,7.251-1.052,9.094-2.389,9.364a126.089,126.089,0,0,0-22.636,6.847A10.63,10.63,0,0,0,622.281,653c-2.447,3.316-.96,7.868,1.456,10.693C627.418,668,633.506,670.332,640.641,670.332Zm36.932-68.34c.045,7.725.064,15.62-.4,23.361l-.108,1.707c-.131,1.993-.267,4.055-.283,6.1a85.4,85.4,0,0,0,.689,10.919,19.922,19.922,0,0,0,1.26,4.509,16.678,16.678,0,0,1,1.148,4.167,8.116,8.116,0,0,1-4.772,7.945,17.139,17.139,0,0,1-4.8.973c-.4.044-.8.087-1.2.135a82.038,82.038,0,0,0-12.582,2.916,94.44,94.44,0,0,1-10.307,2.561c-8.77,1.49-16.447-.479-20.534-5.261-1.838-2.147-2.887-5.418-1.341-7.513a8.458,8.458,0,0,1,3.742-2.365,123.514,123.514,0,0,1,22.178-6.708c5.107-1.031,4.6-9.307,4.433-12.027l-1.028-16.758c-.249-4.038-.726-8.094-1.19-12.016l-.034-.29c1.133,0,2.733-.037,5.043-.108h0a83.266,83.266,0,0,0,10.507-.991c.746-.118,1.49-.247,2.235-.376A47.572,47.572,0,0,1,677.573,601.992Z" transform="translate(-621.028 -599.434)" fill="#28211f"/>
            </g>
            <g id="그룹_2915" data-name="그룹 2915" transform="translate(0 38.775)">
              <path id="패스_18283" data-name="패스 18283" d="M635.813,657.949a32.439,32.439,0,0,1-8-1.815c-3.147-1.177-7.131-3.978-8.145-7.366a7.978,7.978,0,0,1,1.6-6.964,17.23,17.23,0,0,1,5.836-4.487,53.912,53.912,0,0,1,10.693-4.1c2.166-.6,4.389-.919,6.582-1.352a41.035,41.035,0,0,1,6.849-.841c-2.368,2.657,1.255,4.751,3.549,5.149a24.346,24.346,0,0,0,5.577.054,30.056,30.056,0,0,0,12.337-3.921c2.3-1.243,4.018-3.356,6.249-4.676-.013.007,2.03,1.872,2.216,2.087a15.048,15.048,0,0,1,2,3.206,19.035,19.035,0,0,1,1.653,6.772,26.239,26.239,0,0,1-2.52,13.426,4.339,4.339,0,0,1-1.5,1.888,4.758,4.758,0,0,1-1.774.5l-7.107,1.028a6.765,6.765,0,0,1-2.267.071,3.447,3.447,0,0,1-2.638-2.6c-.95,1.8-2.814,2.3-4.778,2.841a14.948,14.948,0,0,1-3.514.395C651.266,657.491,643.355,658.744,635.813,657.949Z" transform="translate(-618.124 -626.358)" fill="#28211f"/>
              <path id="패스_18284" data-name="패스 18284" d="M641.569,659.866c3.43,0,6.876-.261,10.247-.517,2.423-.182,4.927-.371,7.317-.45a16.091,16.091,0,0,0,3.812-.442,11.3,11.3,0,0,0,4.18-1.79,4.675,4.675,0,0,0,2.646,1.575,7.881,7.881,0,0,0,2.7-.06l7.106-1.03a5.863,5.863,0,0,0,2.244-.665,5.456,5.456,0,0,0,1.99-2.413,27.437,27.437,0,0,0,2.652-14.091,20.2,20.2,0,0,0-1.772-7.226,16.123,16.123,0,0,0-2.19-3.5c-.128-.148-.439-.443-1.591-1.51l-.658-.611a1.177,1.177,0,0,0-.226-.192,1.283,1.283,0,0,0-1.358-.038,22.666,22.666,0,0,0-3.122,2.362,18.293,18.293,0,0,1-3.083,2.289,28.486,28.486,0,0,1-11.805,3.771l-.482.03a21.147,21.147,0,0,1-4.8-.068c-1.444-.25-2.95-1.153-3.221-1.933-.044-.126-.163-.466.406-1.106a1.278,1.278,0,0,0-1.03-2.126,42.207,42.207,0,0,0-7.02.864c-.639.127-1.28.243-1.922.359-1.558.284-3.169.577-4.751,1.014a54.921,54.921,0,0,0-10.946,4.2,18.523,18.523,0,0,0-6.256,4.84,9.171,9.171,0,0,0-1.817,8.107c1.129,3.781,5.295,6.842,8.922,8.2a33.456,33.456,0,0,0,8.317,1.888h0A52.711,52.711,0,0,0,641.569,659.866Zm-5.377-1.54h0Zm31.192-5.22a1.279,1.279,0,0,0-1.131.682c-.648,1.227-1.909,1.63-3.91,2.183a13.93,13.93,0,0,1-3.291.372c-2.449.081-4.979.271-7.428.456a86.167,86.167,0,0,1-15.3.254v0a31.023,31.023,0,0,1-7.692-1.741c-3.028-1.132-6.532-3.741-7.367-6.535a6.727,6.727,0,0,1,1.391-5.818,16.229,16.229,0,0,1,5.417-4.133,52.323,52.323,0,0,1,10.442-4c1.473-.408,3.025-.689,4.528-.961.655-.119,1.31-.239,1.961-.368a38.237,38.237,0,0,1,4.569-.678,3.243,3.243,0,0,0,.165,1.382c.739,2.115,3.514,3.316,5.2,3.607a23.073,23.073,0,0,0,5.393.1l.477-.028a30.986,30.986,0,0,0,12.869-4.073,20.539,20.539,0,0,0,3.528-2.593c.666-.57,1.307-1.115,1.97-1.588.551.51,1.254,1.159,1.412,1.324a14.153,14.153,0,0,1,1.792,2.9,17.721,17.721,0,0,1,1.534,6.316,24.88,24.88,0,0,1-2.385,12.761,3.34,3.34,0,0,1-1.014,1.364,3.893,3.893,0,0,1-1.3.332l-7.107,1.03a5.858,5.858,0,0,1-1.837.081,2.164,2.164,0,0,1-1.632-1.613,1.28,1.28,0,0,0-1.075-1A1.239,1.239,0,0,0,667.384,653.107Z" transform="translate(-618.503 -626.735)" fill="#28211f"/>
            </g>
          </g>
          <g id="그룹_2917" data-name="그룹 2917" transform="translate(51.438 268.817)">
            <path id="패스_18285" data-name="패스 18285" d="M622.761,523.328q-.3-2.463-.613-4.928c3.765,29.734,2.082,62.125.371,91.975-1.683,29.383-2.63,59.517-3.27,89.1a61.646,61.646,0,0,1-32.875.923,7.01,7.01,0,0,1-3.627-1.753c-1.086-1.2-1.206-2.929-1.274-4.522q-.343-8.174-.689-16.347c-2.454-58.277-9.965-116.238-10.686-174.635a277.159,277.159,0,0,1,3.707-50.752c2.294-13.238,4.5-32.6,14.777-42.626,2.263-2.2,5.622-2.9,8.787-3.414a201.972,201.972,0,0,1,44.512-2.26,27.181,27.181,0,0,1,8.537,1.5c8.293,3.329,13.133,14.984,17.354,22.186,28.979,49.441,22.127,107.261,17.406,161.376q-4.6,52.794-10.689,105.455a79.02,79.02,0,0,1-34.735,5.06c-2.14-.142-5.866-40.291-6.3-44.286q-2.444-22.231-3.467-44.58c-1.753-38.342-5.151-76.464-11.24-114.261" transform="translate(-568.791 -402.443)" fill="#53adc1"/>
            <path id="패스_18286" data-name="패스 18286" d="M601.477,703.832a62.793,62.793,0,0,0,18.513-2.763,1.274,1.274,0,0,0,.9-1.192c.757-35.054,1.8-63.352,3.269-89.052.81-14.118,1.721-30.018,1.878-46.337,1.285,15,2.292,30.539,3.032,46.744.68,14.862,1.849,29.887,3.473,44.659.051.473.151,1.456.288,2.822,4.238,42.4,5.546,42.489,7.2,42.6a80.385,80.385,0,0,0,35.283-5.146,1.278,1.278,0,0,0,.807-1.044c4.039-34.959,7.637-70.452,10.693-105.49l.7-7.961c4.666-52.505,9.489-106.8-18.279-154.172-.768-1.311-1.557-2.77-2.383-4.3-3.742-6.922-8.4-15.538-15.6-18.427a28.5,28.5,0,0,0-8.938-1.591,203.127,203.127,0,0,0-44.793,2.275c-3.413.555-6.955,1.3-9.475,3.761-9.526,9.286-12.247,25.807-14.434,39.081-.241,1.467-.476,2.887-.71,4.242a276.264,276.264,0,0,0-3.727,50.985c.415,33.51,3.106,67.412,5.707,100.2,1.935,24.393,3.936,49.619,4.981,74.474l.69,16.347c.064,1.487.159,3.733,1.6,5.326a8.131,8.131,0,0,0,4.265,2.135A62.483,62.483,0,0,0,601.477,703.832Zm16.877-4.938a60.777,60.777,0,0,1-31.309.638,5.974,5.974,0,0,1-2.987-1.368c-.763-.842-.881-2.184-.945-3.721l-.69-16.346c-1.048-24.9-3.051-50.152-4.988-74.568-2.6-32.745-5.283-66.6-5.7-100.029a273.734,273.734,0,0,1,3.687-50.518c.237-1.362.473-2.788.714-4.262,2.126-12.906,4.774-28.967,13.7-37.666,1.987-1.937,5.092-2.579,8.1-3.069a200.723,200.723,0,0,1,44.231-2.245,25.945,25.945,0,0,1,8.137,1.412c6.343,2.545,10.756,10.709,14.3,17.269.841,1.557,1.643,3.042,2.426,4.376,27.355,46.672,22.568,100.549,17.938,152.652l-.7,7.966c-3.032,34.759-6.6,69.96-10.6,104.648a77.932,77.932,0,0,1-32.924,4.745c-.834-1.944-2.42-10.808-5.373-40.346-.139-1.378-.237-2.369-.291-2.846-1.618-14.72-2.782-29.69-3.458-44.5-1.369-29.935-3.644-57.614-6.9-83.811q-.155-1.711-.334-3.413a1.228,1.228,0,0,0,0-.34q-.3-2.469-.614-4.935a1.25,1.25,0,0,0-.266-.633q-1.457-10.788-3.146-21.275a1.278,1.278,0,0,0-2.524.408q2.405,14.93,4.336,30.461c2.574,28.207.842,58.392-.574,83.1C620.143,636.184,619.109,664.237,618.354,698.893Zm21.865-.129.026,0Z" transform="translate(-569.154 -402.821)" fill="#28211f"/>
          </g>
          <g id="그룹_2918" data-name="그룹 2918" transform="translate(72.478 93.385)">
            <path id="패스_18287" data-name="패스 18287" d="M659.332,288.05a3.249,3.249,0,0,1,.758,1.354c1.031,4.173-4.514,14.233-5.8,18.4-4.247,13.727-8.065,27.582-11.6,41.508s-6.781,27.95-9.885,41.991c-.871,3.936-6.8,41.023-8.839,41.275a52.775,52.775,0,0,1-23.646-2.505,5.062,5.062,0,0,1-2.654-1.646,5.324,5.324,0,0,1-.618-3.039c-.08-44.049-4.73-87.509-7.488-131.344a1.886,1.886,0,0,1,.21-1.244,1.866,1.866,0,0,1,.753-.526,136.115,136.115,0,0,1,26.751-9.691,90.883,90.883,0,0,1,13.981-2.214c4.751-.361,7.691-.244,12.25,1.325C646.832,282.842,656.449,284.788,659.332,288.05Z" transform="translate(-588.268 -278.925)" fill="#53adc1"/>
            <path id="패스_18288" data-name="패스 18288" d="M617.968,434.628a53.43,53.43,0,0,0,6.536-.4c1.693-.209,2.767-1.792,8.648-35.21.608-3.453,1.088-6.181,1.281-7.057,3.548-16.042,6.687-29.373,9.878-41.952,3.806-15.005,7.593-28.562,11.578-41.444.364-1.176,1.135-2.963,1.952-4.853,2.2-5.1,4.7-10.888,3.87-14.236a4.5,4.5,0,0,0-1.041-1.893h0c-2.471-2.8-8.738-4.542-13.314-5.816-1.248-.348-2.326-.649-3.054-.9-4.773-1.645-7.918-1.76-12.763-1.39a92.254,92.254,0,0,0-14.177,2.244,136.577,136.577,0,0,0-27,9.78,2.632,2.632,0,0,0-1.693,3c.811,12.9,1.8,25.967,2.76,38.606,2.3,30.289,4.67,61.609,4.725,92.661a6.44,6.44,0,0,0,.842,3.759,6.149,6.149,0,0,0,3.288,2.132A54.162,54.162,0,0,0,617.968,434.628Zm5.769-2.885a51.519,51.519,0,0,1-22.618-2.5,4.109,4.109,0,0,1-2.018-1.16,4.339,4.339,0,0,1-.392-2.318c-.057-31.147-2.436-62.515-4.734-92.851-.957-12.632-1.947-25.693-2.757-38.572a2.376,2.376,0,0,1,0-.472c-.011.055.155-.024.234-.061a134.118,134.118,0,0,1,26.5-9.6,89.978,89.978,0,0,1,13.784-2.183c4.579-.348,7.36-.25,11.736,1.258.8.276,1.912.585,3.2.945,3.784,1.052,10.114,2.816,12.085,5.048h0a2.008,2.008,0,0,1,.474.811c.621,2.514-1.9,8.348-3.737,12.609-.881,2.041-1.642,3.8-2.047,5.112-4,12.925-7.8,26.522-11.614,41.572-3.2,12.605-6.342,25.96-9.9,42.028-.2.932-.665,3.546-1.3,7.167C629.034,407.68,625.346,428.63,623.737,431.744Zm-.148.241h0ZM659.713,288.43h0Z" transform="translate(-588.648 -279.303)" fill="#28211f"/>
          </g>
          <g id="그룹_2919" data-name="그룹 2919" transform="translate(28.621 106.379)">
            <path id="패스_18289" data-name="패스 18289" d="M686.38,625.592c1.048-45.2,1.162-90.459,1.2-135.677q.04-51.808.08-103.617c0-.963-10.357-59.778-16.565-90.083-.7-3.426-.308-3.451-1.07-6.864A203.565,203.565,0,0,0,636.856,301.9c-3.575,31.488-4.477,60.175-4.194,91.82.555,61.9-.435,123.093-2.876,184.888q-.571,14.481-1.143,28.958c-.192,4.846.885,4.718,5.21,5.718q5.181,1.2,10.362,2.383c4.606,1.052,9.235,2.034,13.819,3.177C667.459,621.193,676.952,623.251,686.38,625.592Z" transform="translate(-627.348 -288.073)" fill="#fff"/>
            <path id="패스_18290" data-name="패스 18290" d="M686.755,627.25a1.277,1.277,0,0,0,1.277-1.25c1.045-45.07,1.163-89.91,1.2-135.707l.031-34.537q.036-34.541.047-69.08c0-1.433-10.753-61.842-16.59-90.34a26.48,26.48,0,0,1-.483-3.206,26.343,26.343,0,0,0-.592-3.68,1.276,1.276,0,0,0-1.6-.95,204.754,204.754,0,0,0-33.367,12.622,1.275,1.275,0,0,0-.719,1.008c-3.264,28.755-4.521,56.262-4.2,91.978.552,61.471-.389,121.927-2.876,184.827l-1.142,28.955c-.212,5.359,1.385,5.933,5.343,6.82l.856.195q5.181,1.2,10.365,2.382c1.449.334,2.9.658,4.353.983,3.1.693,6.313,1.41,9.441,2.19,4.789,1.195,9.672,2.331,14.394,3.43,4.581,1.067,9.316,2.169,13.953,3.321A1.255,1.255,0,0,0,686.755,627.25ZM669.422,291.343c.156.864.212,1.439.27,2.037a28.767,28.767,0,0,0,.523,3.47c6.117,29.854,16.359,87.951,16.542,89.907q0,34.419-.05,69l-.033,34.537c-.036,45.243-.151,89.549-1.162,134.058-4.153-1.018-8.357-2-12.437-2.947-4.714-1.1-9.587-2.231-14.358-3.42-3.157-.788-6.383-1.51-9.5-2.206q-2.173-.484-4.342-.977-5.181-1.185-10.361-2.383l-.871-.2c-3.484-.782-3.484-.782-3.348-4.225l1.142-28.957c2.487-62.94,3.428-123.437,2.879-184.951-.317-35.314.912-62.569,4.1-90.961A201.464,201.464,0,0,1,669.422,291.343Z" transform="translate(-627.722 -288.451)" fill="#28211f"/>
          </g>
          <g id="그룹_2920" data-name="그룹 2920" transform="translate(58.66 101.08)">
            <path id="패스_18291" data-name="패스 18291" d="M657.821,387.484q-6.481-50.728-9.581-101.863c-4.677,2.312-8.614,3.893-13.291,6.205-2.99,13.687-4.975,27.633-6.637,41.575l8.243,1.79a109.3,109.3,0,0,0-7.894,12.085,3.057,3.057,0,0,0-.53,1.591,3.5,3.5,0,0,0,1.03,1.809C639.351,363.97,646.513,374.262,657.821,387.484Z" transform="translate(-626.853 -284.342)" fill="#fff"/>
            <path id="패스_18292" data-name="패스 18292" d="M658.2,389.141a1.277,1.277,0,0,0,1.268-1.44c-4.3-33.641-7.518-67.884-9.573-101.778a1.279,1.279,0,0,0-1.841-1.069c-2.318,1.146-4.5,2.129-6.6,3.082-2.129.962-4.331,1.956-6.691,3.123a1.269,1.269,0,0,0-.68.873c-3.291,15.058-5.288,30.192-6.66,41.7a1.28,1.28,0,0,0,1,1.4l6.315,1.369a111.027,111.027,0,0,0-6.807,10.628,4.183,4.183,0,0,0-.692,2.284,3.8,3.8,0,0,0,1.061,2.237l.229.284c2.9,3.779,5.549,7.317,8.12,10.747,6.411,8.55,12.467,16.626,20.584,26.115A1.271,1.271,0,0,0,658.2,389.141ZM647.459,287.984c1.971,31.887,4.975,64.072,8.931,95.757-6.715-8.046-12.069-15.188-17.7-22.7-2.578-3.437-5.235-6.981-8.138-10.769-.088-.118-.185-.234-.281-.351a2.164,2.164,0,0,1-.483-.741,2.318,2.318,0,0,1,.365-.9,108.627,108.627,0,0,1,7.8-11.943,1.276,1.276,0,0,0-.75-2.017l-7.107-1.544c1.341-11.136,3.268-25.441,6.349-39.7,2.115-1.034,4.116-1.937,6.057-2.815C644.1,289.542,645.742,288.8,647.459,287.984Z" transform="translate(-627.231 -284.72)" fill="#28211f"/>
          </g>
          <g id="그룹_2921" data-name="그룹 2921" transform="translate(0 118.279)">
            <path id="패스_18293" data-name="패스 18293" d="M689.935,297.73c-13.552,7.407-21.7,24.354-23.4,38.983-1.17,10.036-5.181,20.235-7.481,30.094-2.4,10.284-4.5,20.641-6.092,31.083-.991,6.513-1.78,13.193-.482,19.653s5.017,12.748,10.959,15.595c5.7,2.728,12.412,1.933,18.586.594a121.217,121.217,0,0,0,16.573-4.855,8.408,8.408,0,0,0,6.732-8.314q.769-4.832,1.162-9.716c.874-10.908-11.672-10.672-19.62-12.44a2.975,2.975,0,0,1-2.733-4.224,163.153,163.153,0,0,1,12.994-42.4" transform="translate(-650.516 -296.452)" fill="#fff"/>
            <path id="패스_18294" data-name="패스 18294" d="M672.7,436.626a47.416,47.416,0,0,0,9.975-1.268,122.613,122.613,0,0,0,16.747-4.906,9.619,9.619,0,0,0,7.55-9.311c.515-3.235.91-6.538,1.173-9.814.818-10.213-8.668-11.761-16.289-13.006-1.542-.253-3-.49-4.326-.785a1.81,1.81,0,0,1-1.748-2.77A161.57,161.57,0,0,1,698.668,352.7a1.277,1.277,0,1,0-2.318-1.074,164.088,164.088,0,0,0-13.1,42.731,4.182,4.182,0,0,0,3.717,5.674c1.4.311,2.889.555,4.47.812,8.655,1.413,14.738,2.978,14.152,10.28-.256,3.21-.643,6.445-1.148,9.615a7.209,7.209,0,0,1-5.917,7.317,120.2,120.2,0,0,1-16.4,4.8c-5.691,1.234-12.253,2.14-17.765-.5-5.059-2.424-8.894-7.917-10.256-14.694-1.278-6.354-.457-12.973.491-19.208,1.457-9.576,3.444-19.712,6.073-30.983.832-3.573,1.919-7.28,2.97-10.865,1.859-6.343,3.779-12.9,4.535-19.373,1.585-13.6,9.233-30.621,22.749-38.008a1.278,1.278,0,1,0-1.226-2.243c-14.318,7.823-22.4,25.7-24.061,39.955-.731,6.256-2.622,12.709-4.45,18.949-1.061,3.617-2.157,7.36-3.007,11-2.645,11.338-4.643,21.537-6.11,31.181-.984,6.459-1.831,13.332-.471,20.1,1.52,7.56,5.877,13.727,11.659,16.5A21.579,21.579,0,0,0,672.7,436.626Z" transform="translate(-650.895 -296.83)" fill="#28211f"/>
          </g>
          <g id="그룹_2922" data-name="그룹 2922" transform="translate(57.805 16.29)">
            <path id="패스_18295" data-name="패스 18295" d="M639.381,230.424a15.639,15.639,0,0,0-3.223,12.456,24.3,24.3,0,0,0,5.721,11.791,28.44,28.44,0,0,1,11.448-21.993c3.316-2.429,2.534-6.306-1.683-6.691C647.269,225.589,642.278,227.052,639.381,230.424Z" transform="translate(-634.682 -224.643)" fill="#28211f"/>
            <path id="패스_18296" data-name="패스 18296" d="M642.254,256.328a1.3,1.3,0,0,0,.426-.072,1.277,1.277,0,0,0,.852-1.179,27.238,27.238,0,0,1,10.925-20.989c2.044-1.5,2.976-3.642,2.432-5.6-.528-1.9-2.305-3.172-4.754-3.394-5.164-.474-10.4,1.444-13.346,4.876h0a16.94,16.94,0,0,0-3.518,13.481,25.584,25.584,0,0,0,6.006,12.423A1.279,1.279,0,0,0,642.254,256.328Zm8.306-28.749c.446,0,.9.02,1.344.061,1.346.122,2.29.695,2.522,1.532.251.908-.315,2-1.479,2.853A29.94,29.94,0,0,0,641.263,251.6a21.411,21.411,0,0,1-3.464-8.537,14.356,14.356,0,0,1,2.929-11.43h0A13.113,13.113,0,0,1,650.56,227.579Z" transform="translate(-635.059 -225.022)" fill="#28211f"/>
          </g>
          <g id="그룹_2923" data-name="그룹 2923" transform="translate(60.934 13.987)">
            <path id="패스_18297" data-name="패스 18297" d="M659.635,284.734c.143-.226.291-.45.436-.675a44.808,44.808,0,0,0,6.377-26.493,36.93,36.93,0,0,0-8.52-20.755c-7.255-8.561-18.741-13.669-29.877-12.285a29.249,29.249,0,0,0-19.42,11.406c-4.985,6.471-6.079,14.41-6,22.29a21.966,21.966,0,0,1-.114,3.073c-.508,3.911-.94,6.856-.317,10.824a27.6,27.6,0,0,0,6.538,14.615c6.234,6.745,12.861,8.435,21.6,9.387,1.743.189,1.189,6.026,1.271,7.624l.477,9.378c.061,1.2.2,2.544,1.132,3.292a3.953,3.953,0,0,0,2,.673,25.459,25.459,0,0,0,19.853-6.073c1.814-1.6,4.7-3.886,5.015-6.434a8.038,8.038,0,0,0-.014-1.589l-.777-10.452C659.085,289.827,658.1,287.168,659.635,284.734Z" transform="translate(-600.612 -223.021)" fill="#fff"/>
            <path id="패스_18298" data-name="패스 18298" d="M638.714,318.948a26.806,26.806,0,0,0,17.575-6.594l.517-.453c1.932-1.682,4.578-3.984,4.92-6.785a9.351,9.351,0,0,0-.007-1.821l-.78-10.47c-.051-.685-.149-1.368-.247-2.045-.274-1.9-.513-3.536.4-4.984h0l.432-.672a46.184,46.184,0,0,0,6.573-27.279,38.2,38.2,0,0,0-8.82-21.479c-7.84-9.253-19.722-14.129-31.009-12.727A30.323,30.323,0,0,0,608,235.531c-5.746,7.459-6.329,16.747-6.268,23.084a21.213,21.213,0,0,1-.1,2.9l-.06.456a34.4,34.4,0,0,0-.251,10.73,28.893,28.893,0,0,0,6.86,15.285c6.271,6.782,12.893,8.735,22.176,9.766.435.832.375,3.907.355,4.951-.013.622-.021,1.148,0,1.49l.479,9.38c.054,1.071.155,3.064,1.611,4.225a5.091,5.091,0,0,0,2.629.943A25.526,25.526,0,0,0,638.714,318.948Zm20.218-34.516c-1.417,2.244-1.074,4.619-.77,6.715.089.618.18,1.241.227,1.868l.778,10.452a7.135,7.135,0,0,1,.02,1.338c-.223,1.828-2.441,3.758-4.061,5.167l-.531.466a24.172,24.172,0,0,1-18.843,5.763,2.969,2.969,0,0,1-1.365-.4c-.513-.409-.607-1.432-.653-2.359l-.479-9.38c-.016-.3,0-.763.007-1.309.062-3.227.138-7.242-2.417-7.519-9.006-.98-14.988-2.7-20.793-8.983a26.385,26.385,0,0,1-6.214-13.946c-.57-3.63-.22-6.3.263-10l.06-.459a23.325,23.325,0,0,0,.124-3.25c-.092-9.6,1.676-16.228,5.735-21.5a27.785,27.785,0,0,1,18.567-10.918c10.277-1.274,21.563,3.372,28.742,11.844a35.636,35.636,0,0,1,8.222,20.032,43.5,43.5,0,0,1-6.182,25.7l-.436.68v0Z" transform="translate(-600.99 -223.4)" fill="#28211f"/>
          </g>
          <g id="그룹_2924" data-name="그룹 2924" transform="translate(83.122 35.739)">
            <path id="패스_18299" data-name="패스 18299" d="M634.225,241.076a7.342,7.342,0,0,0-8.155-.413" transform="translate(-624.793 -238.334)" fill="#fff"/>
            <path id="패스_18300" data-name="패스 18300" d="M634.6,242.734a1.277,1.277,0,0,0,.783-2.288,8.572,8.572,0,0,0-9.611-.489,1.278,1.278,0,0,0,1.351,2.17,6.053,6.053,0,0,1,6.7.339A1.269,1.269,0,0,0,634.6,242.734Z" transform="translate(-625.171 -238.715)" fill="#28211f"/>
          </g>
          <g id="그룹_2925" data-name="그룹 2925" transform="translate(63.481 38.161)">
            <path id="패스_18301" data-name="패스 18301" d="M647.589,241.807a6.762,6.762,0,0,0-6.583.879" transform="translate(-639.729 -240.042)" fill="#fff"/>
            <path id="패스_18302" data-name="패스 18302" d="M641.384,244.343a1.272,1.272,0,0,0,.781-.267,5.508,5.508,0,0,1,5.312-.709,1.278,1.278,0,1,0,.977-2.362,8.023,8.023,0,0,0-7.853,1.048,1.278,1.278,0,0,0,.782,2.289Z" transform="translate(-640.105 -240.42)" fill="#28211f"/>
          </g>
          <g id="그룹_2926" data-name="그룹 2926" transform="translate(71.263 55.006)">
            <path id="패스_18303" data-name="패스 18303" d="M641.089,253.181a11.227,11.227,0,0,1-2.449,2.775c-.923.749-2.068,1.531-2.115,2.718-.054,1.345,1.329,2.24,2.532,2.845a5.567,5.567,0,0,0,2.63.812" transform="translate(-635.245 -251.902)" fill="#fff"/>
            <path id="패스_18304" data-name="패스 18304" d="M641.96,263.99l.155,0a1.278,1.278,0,0,0-.1-2.555,4.881,4.881,0,0,1-2.007-.675c-1.537-.775-1.844-1.328-1.831-1.655.018-.48.723-1.041,1.345-1.537l.3-.24a12.411,12.411,0,0,0,2.73-3.09,1.278,1.278,0,1,0-2.169-1.352,9.915,9.915,0,0,1-2.172,2.459l-.281.226c-.946.753-2.241,1.785-2.305,3.436-.092,2.359,2.413,3.622,3.235,4.036A6.882,6.882,0,0,0,641.96,263.99Z" transform="translate(-635.624 -252.281)" fill="#28211f"/>
          </g>
          <g id="그룹_2927" data-name="그룹 2927" transform="translate(84.902 50.52)">
            <path id="패스_18305" data-name="패스 18305" d="M629.279,250.213c2.385-1.182,3.275,3.5.731,3.484a1.825,1.825,0,0,1-.929-3.375C629.148,250.281,629.214,250.245,629.279,250.213Z" transform="translate(-626.939 -248.745)" fill="#28211f"/>
            <path id="패스_18306" data-name="패스 18306" d="M630.4,255.353a2.664,2.664,0,0,0,2.574-1.728,3.621,3.621,0,0,0-.838-3.819,2.63,2.63,0,0,0-3.045-.359h0c-.1.048-.2.1-.3.163a3.1,3.1,0,0,0,1.592,5.742Zm0-3.676h0a1.106,1.106,0,0,1,.214.94c-.044.179-.084.182-.22.179a.5.5,0,0,1-.5-.4.51.51,0,0,1,.23-.608l-.471-1.2.568,1.145A.452.452,0,0,1,630.4,251.677Z" transform="translate(-627.318 -249.123)" fill="#28211f"/>
          </g>
          <g id="그룹_2928" data-name="그룹 2928" transform="translate(66.814 53.751)">
            <path id="패스_18307" data-name="패스 18307" d="M642.015,252.488c2.385-1.182,3.275,3.5.731,3.484a1.826,1.826,0,0,1-.929-3.375C641.884,252.556,641.95,252.52,642.015,252.488Z" transform="translate(-639.676 -251.019)" fill="#28211f"/>
            <path id="패스_18308" data-name="패스 18308" d="M643.134,257.628a2.666,2.666,0,0,0,2.575-1.73,3.617,3.617,0,0,0-.841-3.818,2.623,2.623,0,0,0-3.039-.361,3.4,3.4,0,0,0-.3.166,3.1,3.1,0,0,0,1.591,5.742Zm0-3.676h0a1.108,1.108,0,0,1,.213.94c-.044.179-.092.179-.22.179a.5.5,0,0,1-.5-.4.507.507,0,0,1,.229-.608l.1-.055A.456.456,0,0,1,643.137,253.952Z" transform="translate(-640.054 -251.397)" fill="#28211f"/>
          </g>
          <g id="그룹_2929" data-name="그룹 2929" transform="translate(91.726 6.801)">
            <path id="패스_18309" data-name="패스 18309" d="M637.9,252.3a42.5,42.5,0,0,0-2.753-16.137c-4.643-11.3-18.344-17.881-30.087-16.813-1.2.108-7.607,2.284-8.2,1.907a36.564,36.564,0,0,1,4.089,3.392,36.958,36.958,0,0,1,4.639,4.948c8.282,10.253,16.518,23.457,14.539,37.238-.435,3.032-1.39,3.518.767,5.907,1.574,1.743,4.267,4.384,6.815,4.258,6.8-.335,9.33-13.8,9.858-18.826C637.767,256.272,637.884,254.3,637.9,252.3Z" transform="translate(-595.582 -217.964)" fill="#28211f"/>
            <path id="패스_18310" data-name="패스 18310" d="M627.909,278.658c.08,0,.16,0,.241-.007,8.762-.432,10.857-17.971,11.067-19.969s.324-4.025.335-6h0a43.751,43.751,0,0,0-2.848-16.63c-5.073-12.344-19.955-18.633-31.385-17.6a26.027,26.027,0,0,0-3.41.855,40.436,40.436,0,0,1-4.347,1.089,1.278,1.278,0,0,0-1.01,2.315h0a20.419,20.419,0,0,1,2.717,2.194c.393.358.794.722,1.224,1.089a35.9,35.9,0,0,1,4.474,4.781c7.1,8.787,16.3,22.105,14.27,36.254-.1.677-.223,1.219-.33,1.683-.433,1.88-.581,3.052,1.413,5.261C623.169,277.123,625.653,278.657,627.909,278.658Zm-20.043-57.766c10.122,0,22.183,5.69,26.474,16.13A41.2,41.2,0,0,1,637,252.665h0c-.011,1.89-.119,3.825-.321,5.748-.631,6-3.25,17.417-8.65,17.683-.984.06-2.853-.571-5.8-3.839-1.2-1.327-1.149-1.547-.82-2.974.121-.52.259-1.131.369-1.893,2.174-15.136-7.411-29.063-14.811-38.223a38.287,38.287,0,0,0-4.8-5.117c-.411-.351-.794-.7-1.169-1.04-.224-.2-.449-.408-.679-.612.635-.168,1.392-.379,2.3-.636,1.155-.327,2.59-.736,2.944-.767C606.306,220.926,607.08,220.892,607.865,220.892Zm-9.942-.341h0Z" transform="translate(-595.961 -218.34)" fill="#28211f"/>
          </g>
          <g id="그룹_2930" data-name="그룹 2930" transform="translate(69.704)">
            <path id="패스_18311" data-name="패스 18311" d="M651.473,257.357a18.3,18.3,0,0,1-19.006-5.788c-4.9-5.781-6.08-14.679-13.175-18.417a11.948,11.948,0,0,0-9.784-.55c-2.535.99-4.529,2.757-6.778,4.183-.3-2.744-1.5-5.123-1.3-8a14.646,14.646,0,0,1,2.8-7.638,17.347,17.347,0,0,1,13.2-6.682c7.1-.274,14.2,3.475,19.475,7.956,6.028,5.123,8.181,12.217,10.85,19.473.926,2.515,1.721,5.151,3.318,7.32,1.76,2.39,3.558,2.886,6.222,3.823.322.114.7.3.724.641.017.281-.226.5-.45.672A18.422,18.422,0,0,1,651.473,257.357Z" transform="translate(-600.126 -213.173)" fill="#28211f"/>
            <path id="패스_18312" data-name="패스 18312" d="M646.789,259.716a20.032,20.032,0,0,0,5.408-.748h0a19.573,19.573,0,0,0,6.509-3.215,2.038,2.038,0,0,0,.956-1.77,2,2,0,0,0-1.577-1.77l-.535-.186c-2.291-.8-3.674-1.278-5.08-3.189a22.264,22.264,0,0,1-2.728-5.843l-1.132-3.118c-2.453-6.772-4.768-13.17-10.507-18.048-3.8-3.233-11.479-8.607-20.355-8.262a18.539,18.539,0,0,0-14.173,7.2,16.014,16.014,0,0,0-3.044,8.307,16.25,16.25,0,0,0,.7,5.271,21.439,21.439,0,0,1,.6,2.957,1.279,1.279,0,0,0,1.956.942c.714-.453,1.4-.94,2.092-1.426a21.44,21.44,0,0,1,4.465-2.647,10.644,10.644,0,0,1,8.723.491c4.011,2.112,5.992,6.089,8.088,10.3a38.1,38.1,0,0,0,4.707,7.812A19.844,19.844,0,0,0,644.7,259.6,18.979,18.979,0,0,0,646.789,259.716Zm4.715-3.21a17.028,17.028,0,0,1-17.684-5.384,35.56,35.56,0,0,1-4.367-7.3c-2.186-4.389-4.445-8.926-9.185-11.423a13.228,13.228,0,0,0-10.847-.609,23.544,23.544,0,0,0-5.009,2.94l-.386.271c-.1-.435-.206-.862-.312-1.283a14.022,14.022,0,0,1-.633-4.465,13.437,13.437,0,0,1,2.549-6.966,15.967,15.967,0,0,1,12.219-6.165c5.823-.229,12.612,2.565,18.6,7.654,5.224,4.44,7.428,10.527,9.762,16.971l1.128,3.108a24.507,24.507,0,0,0,3.076,6.5c1.775,2.41,3.619,3.147,5.907,3.95a17.011,17.011,0,0,1-4.813,2.2Z" transform="translate(-600.505 -213.552)" fill="#28211f"/>
          </g>
          <path id="패스_18313" data-name="패스 18313" d="M634.477,252.379a1.278,1.278,0,0,0,.188-2.542,15.036,15.036,0,0,1-5.827-1.855,1.278,1.278,0,1,0-1.187,2.264,17.46,17.46,0,0,0,6.637,2.119A1.241,1.241,0,0,0,634.477,252.379Z" transform="translate(-544.47 -199.144)" fill="#28211f"/>
          <path id="패스_18314" data-name="패스 18314" d="M647.252,253.977a1.278,1.278,0,0,0,.188-2.542,14.977,14.977,0,0,1-5.825-1.855,1.278,1.278,0,1,0-1.19,2.263,17.437,17.437,0,0,0,6.638,2.12A1.2,1.2,0,0,0,647.252,253.977Z" transform="translate(-575.391 -198.472)" fill="#28211f"/>
          <path id="패스_18315" data-name="패스 18315" d="M630.832,267.757A21.791,21.791,0,0,0,642.06,264.6a1.278,1.278,0,1,0-1.331-2.182,19.178,19.178,0,0,1-10.22,2.775h-.024a1.278,1.278,0,0,0-.024,2.557Q630.646,267.757,630.832,267.757Z" transform="translate(-554.576 -193.091)" fill="#28211f"/>
          <g id="그룹_2931" data-name="그룹 2931" transform="translate(112.258 43.103)">
            <path id="패스_18316" data-name="패스 18316" d="M603.106,247.654c.6-1.594,2.111-2.005,3.735-2.514,6.519-2.037,9.958,5.421,6.579,10.629-1.69,2.606-5.995,3.2-8.684,1.648" transform="translate(-601.827 -243.523)" fill="#fff"/>
            <path id="패스_18317" data-name="패스 18317" d="M608.552,259.927a7.41,7.41,0,0,0,6.32-3.086,9.078,9.078,0,0,0-.125-10.259,6.925,6.925,0,0,0-7.908-2.285l-.183.058c-1.675.52-3.571,1.109-4.367,3.227a1.279,1.279,0,0,0,2.395.9c.338-.9,1.213-1.213,2.731-1.686l.189-.058a4.359,4.359,0,0,1,5.106,1.389,6.485,6.485,0,0,1,.019,7.324c-1.231,1.9-4.752,2.524-6.971,1.237a1.279,1.279,0,1,0-1.283,2.213A8.232,8.232,0,0,0,608.552,259.927Z" transform="translate(-602.207 -243.9)" fill="#28211f"/>
          </g>
          <g id="그룹_2932" data-name="그룹 2932" transform="translate(122.954 57.928)">
            <path id="패스_18318" data-name="패스 18318" d="M600.164,260.981a16.661,16.661,0,0,1,2.852,4c2.3,4.538,2.562,9.821,2.393,14.906s-.72,10.2.112,15.214c.814,4.9,3.221,9.987,7.706,12.5-1.72-.961-5.177-.033-7.178-.173-6.535-.459-13.835-2.609-18.377-7.637a21.968,21.968,0,0,1-5.58-15.519c.25-5.656,2.691-11.388,1.074-16.815-1.808-6.065-4.71-12.706,4.538-12.183A19.012,19.012,0,0,1,600.164,260.981Z" transform="translate(-579.993 -253.96)" fill="#28211f"/>
            <path id="패스_18319" data-name="패스 18319" d="M613.6,309.252a1.279,1.279,0,0,0,.625-2.395c-3.6-2.017-6.18-6.242-7.069-11.592a55.086,55.086,0,0,1-.243-11.638c.055-1.108.111-2.217.146-3.323.163-4.887-.01-10.553-2.531-15.527a17.876,17.876,0,0,0-3.069-4.3h0a20.23,20.23,0,0,0-13.311-6.106c-3.322-.19-5.529.486-6.756,2.055-1.952,2.5-.729,6.437.453,10.242.159.51.318,1.021.469,1.528.962,3.224.349,6.631-.3,10.237a46.958,46.958,0,0,0-.827,6.155,23.179,23.179,0,0,0,5.91,16.434c5.627,6.227,14.467,7.719,19.236,8.054a17.414,17.414,0,0,0,2.714-.122c1.407-.132,3.159-.294,3.927.134h0A1.274,1.274,0,0,0,613.6,309.252Zm-4.075-2.909c-.239.021-.477.043-.714.065a15.816,15.816,0,0,1-2.3.116c-4.386-.308-12.493-1.655-17.518-7.218a20.592,20.592,0,0,1-5.254-14.606,44.752,44.752,0,0,1,.79-5.816c.673-3.744,1.368-7.613.233-11.421-.153-.517-.315-1.037-.477-1.557-.987-3.177-2.008-6.464-.879-7.91.663-.849,2.214-1.212,4.6-1.077a17.64,17.64,0,0,1,11.611,5.325h0a15.32,15.32,0,0,1,2.633,3.687c2.258,4.458,2.409,9.723,2.257,14.285-.037,1.094-.091,2.189-.145,3.284a57.023,57.023,0,0,0,.273,12.182A20.553,20.553,0,0,0,609.525,306.343Zm-8.988-44.983h0Z" transform="translate(-580.366 -254.338)" fill="#28211f"/>
          </g>
          <path id="패스_18320" data-name="패스 18320" d="M632.074,261.423a8.63,8.63,0,0,0,8.921-7.194,7.427,7.427,0,0,0-1.4-6.623,10.794,10.794,0,0,0-3.356-2.917,9.276,9.276,0,0,0-13.055,11.6c1.507,3.985,4.514,4.788,7.253,5.046h0C630.921,261.385,631.476,261.423,632.074,261.423Zm-1.514-1.356h0Zm1.364-13.889a6.474,6.474,0,0,1,3.1.758,8.258,8.258,0,0,1,2.556,2.237,4.832,4.832,0,0,1,.943,4.413,6.992,6.992,0,0,1-3.4,4.688,8.34,8.34,0,0,1-4.438.52h0c-2.922-.276-4.258-1.167-5.1-3.4a6.643,6.643,0,0,1,6.347-9.212Z" transform="translate(-543.72 -200.916)" fill="#28211f"/>
          <path id="패스_18321" data-name="패스 18321" d="M646.929,263.194a9.367,9.367,0,0,0,4.16-.845A9.512,9.512,0,0,0,655.853,256a7.424,7.424,0,0,0-1.4-6.621,10.774,10.774,0,0,0-3.355-2.917,9.276,9.276,0,0,0-13.055,11.6c1.505,3.985,4.512,4.788,7.253,5.046h0C645.873,263.166,646.415,263.194,646.929,263.194Zm-1.511-1.355h0Zm1.363-13.889a6.484,6.484,0,0,1,3.1.757,8.235,8.235,0,0,1,2.557,2.238,4.833,4.833,0,0,1,.943,4.413,6.973,6.973,0,0,1-3.4,4.687,8.278,8.278,0,0,1-4.438.521c-2.923-.276-4.257-1.167-5.1-3.4a6.641,6.641,0,0,1,6.346-9.212Z" transform="translate(-579.68 -200.172)" fill="#28211f"/>
          <path id="패스_18322" data-name="패스 18322" d="M635.122,252.915a1.215,1.215,0,0,0,.2-.016c1.523-.24,3.076-.412,4.617-.508a1.279,1.279,0,0,0-.159-2.552c-1.622.1-3.258.283-4.859.537a1.278,1.278,0,0,0,.2,2.539Z" transform="translate(-559.628 -198.302)" fill="#28211f"/>
          <path id="패스_18323" data-name="패스 18323" d="M611.057,251.173a1.266,1.266,0,0,0,.261-.027l17.623-3.649a1.279,1.279,0,0,0-.518-2.5l-17.623,3.65a1.278,1.278,0,0,0,.257,2.53Z" transform="translate(-514.27 -200.348)" fill="#28211f"/>
          <g id="그룹_2933" data-name="그룹 2933" transform="translate(95.051 96.775)">
            <path id="패스_18324" data-name="패스 18324" d="M567.7,390.693c1.064,29.1-1.334,58.217-2,87.328-.226,9.86-.452,19.719-.926,29.57-.344,7.143-.817,14.278-1.291,21.412-2.234,33.682-1.488,67.85-2.375,101.746q21.654-1.794,43.346-3.065c10.632-.622,21.27-1.182,31.912-1.586,2.572-.1,8.935,1.092,11.155-.476,3.265-2.306,1.738-9.138,1.662-12.5-.489-21.365-1.376-42.716-2.287-64.066-1.8-42.251-3.694-84.541-2.67-126.839.773-31.87,3.2-63.683,3.494-95.567.109-11.808.408-17.482-.392-29.272-8.905-7.357-31.939-12.913-48.047-14.794-4.434,21.764-9.1,43.593-13.535,65.357C582.683,362.946,567.562,387.017,567.7,390.693Z" transform="translate(-559.823 -281.311)" fill="#fff"/>
            <path id="패스_18325" data-name="패스 18325" d="M561.482,632.407a.878.878,0,0,0,.1-.006c14.375-1.19,28.948-2.22,43.316-3.062,12.368-.724,22.5-1.229,31.885-1.585a28.6,28.6,0,0,1,2.868.138c3.294.247,7.026.528,8.976-.846,3.2-2.26,2.723-7.441,2.375-11.222-.082-.88-.156-1.684-.172-2.349-.476-20.813-1.318-41.339-2.288-64.09l-.159-3.732c-1.723-40.319-3.5-82.012-2.51-123.021.337-13.923,1-28.075,1.643-41.761.828-17.63,1.683-35.861,1.851-53.824.02-2.206.047-4.2.073-6.052.112-8.239.186-13.682-.469-23.32a1.274,1.274,0,0,0-.46-.9C638.8,288.75,614.062,283.362,599.8,281.7a1.28,1.28,0,0,0-1.4,1.016q-3.326,16.319-6.766,32.672-3.413,16.349-6.769,32.684c-1.8,8.847-8.009,21.161-12.54,30.153-3.779,7.5-5.592,11.176-5.529,12.895.706,19.349-.136,39.056-.95,58.115-.408,9.549-.829,19.421-1.051,29.137l-.008.324c-.22,9.581-.449,19.488-.918,29.215-.344,7.13-.825,14.379-1.29,21.388-1.446,21.8-1.649,44.157-1.845,65.776-.108,11.82-.219,24.041-.533,36.023a1.279,1.279,0,0,0,1.278,1.312Zm75.595-7.215c-.135,0-.263,0-.385.007-9.405.358-19.553.862-31.938,1.588-13.916.815-28.024,1.807-41.958,2.95.287-11.546.393-23.279.5-34.641.2-21.584.4-43.9,1.842-65.63.465-7.022.946-14.281,1.291-21.436.469-9.757.7-19.682.92-29.278l.007-.325c.222-9.691.643-19.55,1.051-29.086.815-19.109,1.66-38.868.95-58.317l-1.278.047,1.278-.047c-.04-1.143,2.774-6.725,5.256-11.652,4.6-9.12,10.892-21.611,12.761-30.792q3.326-16.321,6.768-32.672,3.292-15.774,6.533-31.529c16.771,2.089,37.38,7.469,45.791,14.027.606,9.191.534,14.538.425,22.553-.026,1.861-.052,3.855-.072,6.063-.168,17.917-1.021,36.124-1.848,53.729-.642,13.7-1.308,27.866-1.646,41.817-.994,41.094.788,82.831,2.512,123.193l.158,3.731c.97,22.739,1.812,43.251,2.287,64.041.017.714.1,1.579.182,2.525.291,3.162.689,7.492-1.3,8.9-1.2.846-4.874.568-7.31.386C638.782,625.263,637.839,625.192,637.076,625.192Z" transform="translate(-560.203 -281.69)" fill="#28211f"/>
          </g>
          <g id="그룹_2934" data-name="그룹 2934" transform="translate(121.845 176.529)">
            <path id="패스_18326" data-name="패스 18326" d="M611.195,376.864a213.85,213.85,0,0,1-29.867-2.639q.437-17.74.876-35.483l18.3,1.41c4.572.351,9.176-.111,13.653,1.186.679.2-1.145,15.441-1.294,17.1Q612.027,367.648,611.195,376.864Z" transform="translate(-580.05 -337.465)" fill="#fff"/>
            <path id="패스_18327" data-name="패스 18327" d="M611.573,378.52a1.277,1.277,0,0,0,1.273-1.162l1.667-18.431c.025-.288.1-.991.209-1.956,1.76-16.005,1.487-16.088.18-16.48a36.741,36.741,0,0,0-9.654-1.068c-1.406-.03-2.859-.06-4.269-.169l-18.3-1.409a1.3,1.3,0,0,0-.956.325,1.28,1.28,0,0,0-.42.917l-.875,35.483a1.277,1.277,0,0,0,1.077,1.294,215.978,215.978,0,0,0,30.045,2.655Zm1.843-35.778c.02,2.52-.909,10.984-1.236,13.95-.108.99-.188,1.71-.214,2.005l-1.56,17.242a213.3,213.3,0,0,1-27.4-2.426l.814-33.016,16.958,1.307c1.481.114,2.973.145,4.413.175A37.556,37.556,0,0,1,613.417,342.742Z" transform="translate(-580.429 -337.843)" fill="#28211f"/>
          </g>
          <g id="그룹_2935" data-name="그룹 2935" transform="translate(143.254 161.216)">
            <path id="패스_18328" data-name="패스 18328" d="M592.256,328.982a25.262,25.262,0,0,0-7.427-1.018q-.739,8.025-1.976,15.994a12.724,12.724,0,0,1,2.162.329.908.908,0,0,1,.48.216.924.924,0,0,1,.088.829,93.236,93.236,0,0,0-1.792,12.628c1.376.034,2.737-.031,4.1-.031.213-.041.67-5.068.753-5.587q.454-2.9,1.035-5.782c.717-3.555,1.055-7.224,1.582-10.817Q591.761,332.361,592.256,328.982Z" transform="translate(-581.576 -326.684)" fill="#28211f"/>
            <path id="패스_18329" data-name="패스 18329" d="M585.045,359.626c.548,0,1.1-.01,1.642-.02.528-.01,1.057-.021,1.586-.021a1.3,1.3,0,0,0,.246-.023c1.084-.212,1.115-.514,1.647-5.546.058-.551.1-.971.122-1.1.3-1.916.645-3.843,1.025-5.725.487-2.412.805-4.891,1.112-7.289.154-1.2.307-2.4.482-3.6l.991-6.761a1.278,1.278,0,0,0-.906-1.412,26.786,26.786,0,0,0-7.8-1.069,1.278,1.278,0,0,0-1.256,1.162c-.49,5.3-1.152,10.656-1.966,15.914a1.278,1.278,0,0,0,1.19,1.473,10.087,10.087,0,0,1,1.476.2,94.654,94.654,0,0,0-1.741,12.435,1.278,1.278,0,0,0,1.243,1.371C584.438,359.624,584.742,359.626,585.045,359.626Zm2.2-2.588-.607.011c-.362.007-.723.014-1.087.017a92.363,92.363,0,0,1,1.66-11.091,2.145,2.145,0,0,0-.406-1.967,2.106,2.106,0,0,0-1.129-.589c-.351-.081-.675-.146-.983-.2.673-4.5,1.236-9.057,1.674-13.588a23.95,23.95,0,0,1,4.836.666l-.827,5.636c-.176,1.209-.332,2.424-.489,3.642-.3,2.353-.612,4.786-1.082,7.107-.386,1.92-.739,3.883-1.045,5.837-.021.145-.072.612-.138,1.227C587.542,354.53,587.378,356.071,587.245,357.039Z" transform="translate(-581.953 -327.062)" fill="#28211f"/>
          </g>
          <g id="그룹_2936" data-name="그룹 2936" transform="translate(101.474 92.781)">
            <path id="패스_18330" data-name="패스 18330" d="M582.876,391.591l39.534-39.566a2.856,2.856,0,0,0,.862-4.066q-3.818-8.211-7.633-16.421a87.141,87.141,0,0,1,17.285-6.5,1.785,1.785,0,0,0,.777-.339c.538-.484.305-1.359.033-2.031q-5.309-13.077-9.5-26.571c-1.3-4.2-3.257-9.167-4.346-13.4-.351-1.363-6.776-2.324-10.49-2.914-.778-.124-3.667,19.243-3.968,20.975q-1.951,11.174-4.283,22.277-4.661,22.2-10.834,44.054Q586.831,379.407,582.876,391.591Z" transform="translate(-581.598 -278.5)" fill="#fff"/>
            <path id="패스_18331" data-name="패스 18331" d="M583.258,393.247a1.281,1.281,0,0,0,.9-.374L623.7,353.305a4.07,4.07,0,0,0,1.116-5.508l-7.106-15.289a85.9,85.9,0,0,1,15.92-5.862,2.943,2.943,0,0,0,1.312-.626c.588-.53,1.13-1.561.361-3.461-3.511-8.65-6.694-17.555-9.463-26.47-.507-1.632-1.111-3.38-1.724-5.156-.957-2.77-1.949-5.634-2.6-8.184-.47-1.824-3.64-2.609-11.043-3.781l-.484-.077a1.4,1.4,0,0,0-1,.243c-.656.477-1.131.822-4.1,19.694-.165,1.052-.283,1.8-.331,2.079-1.287,7.373-2.724,14.853-4.274,22.235-3.095,14.731-6.732,29.525-10.815,43.969-2.3,8.147-4.8,16.377-7.421,24.463a1.278,1.278,0,0,0,1.216,1.672Zm49.862-69.108c-.044.01-.1.024-.133.034a88.451,88.451,0,0,0-17.54,6.6,1.277,1.277,0,0,0-.584,1.68l7.633,16.42a3,3,0,0,1,.383,1.209c-.034.425-.508.932-.991,1.416l-35.8,35.832c2.047-6.484,4.005-13.031,5.839-19.525,4.1-14.5,7.749-29.35,10.855-44.137,1.555-7.411,3-14.921,4.291-22.323.05-.285.17-1.047.338-2.12,1.525-9.7,2.575-15.62,3.132-17.658,2.449.391,7.519,1.234,8.542,2.007.68,2.6,1.663,5.443,2.615,8.194.6,1.75,1.2,3.471,1.7,5.079,2.788,8.983,6,17.957,9.534,26.672A2.767,2.767,0,0,1,633.12,324.138Zm-13.96-40.5Z" transform="translate(-581.98 -278.878)" fill="#28211f"/>
          </g>
          <g id="그룹_2937" data-name="그룹 2937" transform="translate(12.199 157.9)">
            <path id="패스_18332" data-name="패스 18332" d="M629.88,444.453l88.414,16.817L683.2,342.445l-88.414-16.817Z" transform="translate(-593.508 -324.348)" fill="#b3d5e0"/>
            <path id="패스_18333" data-name="패스 18333" d="M718.672,462.927a1.28,1.28,0,0,0,1.227-1.64L684.8,342.461a1.281,1.281,0,0,0-.987-.893L595.4,324.75a1.278,1.278,0,0,0-1.464,1.618l35.1,118.825a1.278,1.278,0,0,0,.987.895l88.413,16.818A1.373,1.373,0,0,0,718.672,462.927Zm-36.1-118.993L716.854,460l-85.589-16.281L596.984,327.653Zm-52.313,100.9h0Z" transform="translate(-593.886 -324.727)" fill="#28211f"/>
          </g>
          <g id="그룹_2938" data-name="그룹 2938" transform="translate(8.118 156.094)">
            <path id="패스_18334" data-name="패스 18334" d="M649.31,418.571l54.018,9.746a51.459,51.459,0,0,1-4.911-13.665,156.3,156.3,0,0,1-4.122-43.468c.426-9.321,1.767-20.721,7.458-28.451a8.474,8.474,0,0,1,4.4-3.463c1.842-.48,4.129.369,4.674,2.192.249-1.8-1.966-2.822-3.737-3.238-20.726-4.874-47.73-9.726-68.617-13.869a22.563,22.563,0,0,0-12.158,11.964c-2.368,5.292-3.194,11.135-3.67,16.911-1.646,19.978,2.044,41.839,8.084,60.952C631.041,415.181,644.149,417.538,649.31,418.571Z" transform="translate(-620.978 -323.077)" fill="#fff"/>
            <path id="패스_18335" data-name="패스 18335" d="M703.7,429.973a1.277,1.277,0,0,0,1.109-1.912,50.3,50.3,0,0,1-4.778-13.328,154.736,154.736,0,0,1-4.088-43.113c.376-8.219,1.534-20.039,7.211-27.751a7.157,7.157,0,0,1,3.689-2.984c1.189-.308,2.786.187,3.127,1.322a1.3,1.3,0,0,0,1.324.908,1.28,1.28,0,0,0,1.167-1.1c.3-2.153-1.464-3.894-4.711-4.657-15.063-3.542-33.807-7.145-50.345-10.323-6.4-1.23-12.585-2.42-18.316-3.555a1.258,1.258,0,0,0-.7.057,23.933,23.933,0,0,0-12.875,12.639c-2.537,5.668-3.335,11.94-3.778,17.328-1.506,18.252,1.385,40.073,8.138,61.442.369,1.163,1.274,1.716,16.563,4.673,1.142.222,2.169.42,2.991.584l.024.006,54.016,9.746A1.231,1.231,0,0,0,703.7,429.973Zm.662-90.777a11.65,11.65,0,0,0-3.265,3.159c-6.09,8.272-7.314,20.6-7.708,29.15a157.4,157.4,0,0,0,4.157,43.824,59.22,59.22,0,0,0,3.819,11.646l-51.443-9.282c-.825-.166-1.852-.364-3-.585-4.262-.825-12.919-2.5-14.73-3.315-6.569-20.936-9.377-42.258-7.91-60.079.428-5.173,1.186-11.176,3.565-16.494a21.449,21.449,0,0,1,11.107-11.161c5.633,1.115,11.7,2.282,17.965,3.485C672.421,332.525,689.862,335.877,704.359,339.2Zm-54.678,79.753h0Zm-17.7-5.268Z" transform="translate(-621.347 -323.455)" fill="#28211f"/>
          </g>
          <g id="그룹_2939" data-name="그룹 2939" transform="translate(87.13 206.42)">
            <path id="패스_18336" data-name="패스 18336" d="M604.058,368.928c-3.224-.089-6.383-.943-9.6-1.169a3.128,3.128,0,0,0-2.659.7,2.178,2.178,0,0,0-.034,2.494,5.2,5.2,0,0,0,2.021,1.694c5.019,2.765,10.972,3.106,16.7,3.385a33.477,33.477,0,0,1-13.929-2.406c-2.747-1.111-5.592-2.623-8.5-2.074a1.858,1.858,0,0,0-1.19.6c-3.576,4.795,6.248,7.279,9.23,8.231a57.145,57.145,0,0,0,15.994,2.64c-4.582.065-5.485.517-19.044-2.47a5.141,5.141,0,0,0-2.48.014,2.117,2.117,0,0,0-1.616,1.7c-.088,1.04.844,1.859,1.723,2.42,5.907,3.772,13.24,4.326,20.235,4.772a57.637,57.637,0,0,1-13.345-1.452,3.168,3.168,0,0,0-2.508.111,2.08,2.08,0,0,0-.189,2.875,5.6,5.6,0,0,0,2.716,1.643A51.568,51.568,0,0,0,613.81,395.6c8.588.166,17.58-1.757,25.523,1.514.372.153,1.021-.337,1.153-.717q3.454-10,6.536-20.134l-15.254-4.225c-1.755-.486-4.413-.666-5.976-1.561-1.824-1.044-3.325-3.782-4.652-5.4a10.84,10.84,0,0,0-2.525-2.468,10.722,10.722,0,0,0-2.221-.953,43.57,43.57,0,0,0-6.406-1.838.679.679,0,0,0-.53.053.689.689,0,0,0-.2.514c-.119,1.344-.149,2.916.888,3.778a9.4,9.4,0,0,0,1.483.811,1.607,1.607,0,0,1,.942,1.307C612.516,368.86,605.633,368.97,604.058,368.928Z" transform="translate(-584.81 -358.51)" fill="#fff"/>
            <path id="패스_18337" data-name="패스 18337" d="M639.865,398.8a2.053,2.053,0,0,0,.842-.19,2.605,2.605,0,0,0,1.365-1.417c2.3-6.651,4.5-13.44,6.549-20.178a1.278,1.278,0,0,0-.881-1.6l-15.252-4.225c-.652-.18-1.373-.314-2.138-.456a12.8,12.8,0,0,1-3.547-.983,12.393,12.393,0,0,1-3.045-3.413c-.435-.614-.852-1.2-1.253-1.689a11.961,11.961,0,0,0-2.839-2.744,11.826,11.826,0,0,0-2.481-1.075,44.721,44.721,0,0,0-6.594-1.888,1.885,1.885,0,0,0-1.52.285,1.907,1.907,0,0,0-.706,1.429c-.1,1.133-.311,3.5,1.341,4.872a5.273,5.273,0,0,0,1.217.714c.155.072.308.142.456.226a1.054,1.054,0,0,1,.285.223c-.016.013-.043.053-.1.108-.9.859-4.382,1.3-7.091,1.233h0a39.319,39.319,0,0,1-5.109-.592c-1.44-.23-2.931-.467-4.435-.574a4.306,4.306,0,0,0-3.72,1.143,3.212,3.212,0,0,0-.677,2.572,8.321,8.321,0,0,0-2.338.1,3.125,3.125,0,0,0-1.98,1.1,4.2,4.2,0,0,0-.838,3.947c.6,1.814,2.448,3.129,4.741,4.167a3.29,3.29,0,0,0-2.068,2.659c-.114,1.344.663,2.557,2.308,3.606a23.816,23.816,0,0,0,3.707,1.919,3,3,0,0,0-.544,1.324,3.691,3.691,0,0,0,.7,2.76,6.739,6.739,0,0,0,3.3,2.074,52.648,52.648,0,0,0,16.637,3.031c2.508.045,5.069-.08,7.543-.2,6.231-.312,12.119-.605,17.518,1.619A1.694,1.694,0,0,0,639.865,398.8Zm.331-2.49h0Zm5.6-18.786c-1.909,6.215-3.944,12.466-6.059,18.6-5.8-2.241-12.078-1.927-18.157-1.625-2.432.121-4.948.244-7.366.2a50.1,50.1,0,0,1-15.833-2.883,4.616,4.616,0,0,1-2.126-1.213,1.165,1.165,0,0,1-.209-.815.378.378,0,0,1,.112-.237c.273-.192,1.068-.009,1.494.088a59.867,59.867,0,0,0,13.64,1.483,1.277,1.277,0,0,0,.071-2.552c-6.494-.416-13.854-.886-19.63-4.576-.869-.552-1.158-1-1.138-1.236.017-.189.3-.469.689-.579a3.914,3.914,0,0,1,1.861,0c12.168,2.681,14.335,2.625,17.907,2.531.446-.011.915-.024,1.43-.031a1.278,1.278,0,0,0,.013-2.556,55.815,55.815,0,0,1-15.637-2.579l-.845-.261c-2.058-.626-7.526-2.292-8.206-4.366-.1-.3-.159-.794.456-1.619a1.183,1.183,0,0,1,.406-.115,8.022,8.022,0,0,1,4.157.533c.243.156.487.3.724.427a26.357,26.357,0,0,0,8.552,2.778,35,35,0,0,0,8.814.764,1.278,1.278,0,0,0,.007-2.554,74.405,74.405,0,0,1-8.419-.739,31.9,31.9,0,0,1-5.09-1.577c-.4-.162-.8-.331-1.2-.5-.71-.3-1.449-.614-2.21-.892a2.788,2.788,0,0,1-.77-.767.979.979,0,0,1-.081-.991c.138-.159.536-.337,1.6-.256,1.393.1,2.762.315,4.214.548a42.1,42.1,0,0,0,5.441.623c1.111.027,6.8.082,8.924-1.937a2.758,2.758,0,0,0,.9-1.96,2.826,2.826,0,0,0-1.591-2.449c-.2-.116-.42-.219-.638-.318a3.32,3.32,0,0,1-.658-.361,2.514,2.514,0,0,1-.479-1.96,48.5,48.5,0,0,1,5.492,1.643,6.921,6.921,0,0,1,4.171,3.024c.368.447.748.986,1.146,1.547a13.948,13.948,0,0,0,3.86,4.151,14.148,14.148,0,0,0,4.35,1.278c.689.128,1.355.249,1.92.406Z" transform="translate(-585.188 -358.889)" fill="#28211f"/>
          </g>
          <g id="그룹_2940" data-name="그룹 2940" transform="translate(130.42 108.471)">
            <path id="패스_18338" data-name="패스 18338" d="M572.013,290.824c7.131,3.23,13.862,11.186,17.732,17.989,11.852,20.84,19.621,44.973,27.586,67.506,3.478,9.841,6.965,19.724,9.858,29.719,4.241,14.652,2.214,32.648-15.893,35.541-5.761.92-11.642.08-17.4-.828-15.812-2.493-30.137-4.445-45.756-7.959-3.423-.771-8.363-2.069-11.807-2.745-3.491-.686-7.094-1.652-10.52-2.159,1.1-6.549,2.065-14.024,2.886-20.61a70.618,70.618,0,0,1,1.372-7.785c.673-2.846,1.032-5.292,1.768-8.779,9.97.855,20.023,2.784,29.982,4.177,3.672.513,7.349.983,11.04,1.328,2.562.239,5.836,1.27,8.179,1.2-2.061-9.979-7.093-20.181-10.946-29.606" transform="translate(-524.531 -289.546)" fill="#fff"/>
            <path id="패스_18339" data-name="패스 18339" d="M606.348,443.638a34.931,34.931,0,0,0,5.516-.418c6.738-1.077,11.79-4.2,15.014-9.283,4.352-6.86,5.046-17.021,1.906-27.876-2.933-10.135-6.465-20.127-9.882-29.79q-1.5-4.248-3-8.566c-7.011-20.071-14.258-40.828-24.678-59.145-3.788-6.661-10.588-15.024-18.315-18.523a1.279,1.279,0,0,0-1.055,2.329c7.177,3.251,13.723,11.436,17.149,17.458,10.3,18.116,17.512,38.76,24.484,58.724q1.508,4.316,3.007,8.574c3.4,9.629,6.924,19.586,9.836,29.648,2.895,10,2.294,19.645-1.608,25.8-2.814,4.437-7.276,7.171-13.258,8.128-5.394.862-10.891.135-17-.829q-4.406-.695-8.678-1.348c-12.508-1.926-24.321-3.745-37-6.6-1.3-.293-2.818-.662-4.389-1.044-2.6-.631-5.295-1.285-7.452-1.709-1.311-.257-2.638-.555-3.965-.852-1.757-.395-3.562-.8-5.333-1.109,1.018-6.269,1.924-13.284,2.686-19.394a69.507,69.507,0,0,1,1.348-7.65c.392-1.653.68-3.187.987-4.811.17-.9.349-1.851.558-2.887,6.279.589,12.684,1.6,18.891,2.571,3.3.518,6.6,1.037,9.892,1.5,4.43.621,7.854,1.031,11.1,1.335,1,.094,2.125.317,3.316.554a23.064,23.064,0,0,0,5.018.652,1.276,1.276,0,0,0,1.216-1.535c-1.619-7.839-5-15.71-8.263-23.321-.945-2.2-1.878-4.376-2.751-6.511a1.278,1.278,0,0,0-2.366.967c.879,2.147,1.817,4.335,2.768,6.552,2.986,6.957,6.066,14.133,7.745,21.193-.9-.115-1.9-.312-2.868-.506-1.2-.239-2.446-.486-3.578-.591-3.2-.3-6.59-.707-10.982-1.321-3.274-.459-6.56-.974-9.85-1.491-6.623-1.041-13.471-2.116-20.2-2.694a1.261,1.261,0,0,0-1.361,1.01c-.317,1.506-.565,2.819-.8,4.054-.3,1.594-.587,3.1-.964,4.7a72.064,72.064,0,0,0-1.4,7.921c-.808,6.5-1.782,14.025-2.878,20.556a1.279,1.279,0,0,0,1.074,1.476c2.082.308,4.292.8,6.43,1.283,1.349.3,2.7.605,4.032.866,2.1.413,4.766,1.061,7.341,1.684,1.587.386,3.119.758,4.431,1.054,12.76,2.87,24.615,4.7,37.168,6.63,2.851.439,5.734.882,8.669,1.345A79.5,79.5,0,0,0,606.348,443.638Z" transform="translate(-524.897 -289.924)" fill="#28211f"/>
          </g>
          <path id="패스_18340" data-name="패스 18340" d="M565.6,372.02a1.278,1.278,0,0,0,.528-2.443c-3.052-1.382-7.532-2.224-11.862-3.039-2.493-.47-4.846-.913-6.648-1.416a1.278,1.278,0,0,0-.686,2.463c1.907.531,4.313.986,6.861,1.464,3.988.751,8.507,1.6,11.281,2.856A1.259,1.259,0,0,0,565.6,372.02Z" transform="translate(-360.594 -149.87)" fill="#28211f"/>
        </g>
      </g>
    </g>
  </g>
</svg>
