<svg xmlns="http://www.w3.org/2000/svg" width="46" height="46" viewBox="0 0 46 46">
  <g id="main_visual_ic" transform="translate(-91.623 -362.453)">
    <circle id="타원_183" data-name="타원 183" cx="23" cy="23" r="23" transform="translate(91.623 362.453)" fill="#f1f1f1"/>
    <g id="그룹_3874" data-name="그룹 3874" transform="translate(99.547 368.365)">
      <g id="그룹_3873" data-name="그룹 3873" transform="translate(0 2.513)">
        <g id="그룹_3872" data-name="그룹 3872" transform="translate(0 2.01)">
          <path id="패스_18243" data-name="패스 18243" d="M125.575,410.688H103.129a3.586,3.586,0,0,1-3.582-3.582V384.5a3.586,3.586,0,0,1,3.582-3.582.81.81,0,1,1,0,1.621,1.964,1.964,0,0,0-1.962,1.961v22.6a1.964,1.964,0,0,0,1.962,1.962h22.445a1.964,1.964,0,0,0,1.962-1.962V384.5a1.964,1.964,0,0,0-1.962-1.961.81.81,0,1,1,0-1.621,3.586,3.586,0,0,1,3.583,3.582v22.6A3.586,3.586,0,0,1,125.575,410.688Z" transform="translate(-99.547 -380.923)" fill="#3e3a39"/>
          <path id="패스_18244" data-name="패스 18244" d="M130.813,407.394H109.173a.811.811,0,0,1-.81-.81V381.733a.81.81,0,0,1,.81-.81h6.1a.81.81,0,1,1,0,1.621h-5.288v23.23H130v-23.23h-2.987a.81.81,0,1,1,0-1.621h3.8a.81.81,0,0,1,.81.81v24.851A.81.81,0,0,1,130.813,407.394Z" transform="translate(-105.188 -380.923)" fill="#3e3a39"/>
        </g>
        <path id="패스_18245" data-name="패스 18245" d="M135.747,380.788h-8.935a.81.81,0,0,1-.81-.81v-3.824a.81.81,0,0,1,.81-.81h8.935a.81.81,0,0,1,.81.81v3.824A.81.81,0,0,1,135.747,380.788Zm-8.125-1.621h7.315v-2.2h-7.315Z" transform="translate(-116.475 -375.343)" fill="#3e3a39"/>
      </g>
      <path id="패스_18246" data-name="패스 18246" d="M137.483,372.219a.81.81,0,0,1-.81-.81,1.423,1.423,0,1,0-2.847,0,.81.81,0,0,1-1.621,0,3.044,3.044,0,1,1,6.088,0A.81.81,0,0,1,137.483,372.219Z" transform="translate(-120.444 -368.365)" fill="#3e3a39"/>
    </g>
    <path id="패스_18247" data-name="패스 18247" d="M134.755,401.442H123.263a.81.81,0,1,1,0-1.621h11.491a.81.81,0,1,1,0,1.621Z" transform="translate(-14.657 -20.128)" fill="#3e3a39"/>
    <path id="패스_18248" data-name="패스 18248" d="M134.755,411.942H123.263a.81.81,0,0,1,0-1.621h11.491a.81.81,0,0,1,0,1.621Z" transform="translate(-14.657 -26.846)" fill="#3e3a39"/>
    <path id="패스_18249" data-name="패스 18249" d="M129.173,429.764a1.077,1.077,0,0,1-.764-.317l-3.061-3.061a1.08,1.08,0,1,1,1.528-1.528l2.3,2.3,5.268-5.268a1.08,1.08,0,1,1,1.528,1.528l-6.032,6.032A1.076,1.076,0,0,1,129.173,429.764Z" transform="translate(-16.307 -34.045)" fill="#288fa4"/>
  </g>
</svg>
