<svg xmlns="http://www.w3.org/2000/svg" width="40" height="40" viewBox="0 0 40 40">
  <g id="top_cart" transform="translate(-0.231)">
    <rect id="사각형_2691" data-name="사각형 2691" width="40" height="40" transform="translate(0.231)" fill="none"/>
    <g id="그룹_3996" data-name="그룹 3996" transform="translate(1.372)">
      <g id="그룹_3892" data-name="그룹 3892" transform="translate(1.859 7.116)">
        <g id="그룹_3991" data-name="그룹 3991">
          <path id="패스_18314" data-name="패스 18314" d="M244.574,334.889h20.62a1.89,1.89,0,0,1,1.9,2.654l-2.876,7.088a4.181,4.181,0,0,1-3.7,2.654H249.71L242.1,326.907h-6.5" transform="translate(-235.601 -326.907)" fill="none" stroke="#288fa4" stroke-width="2.5"/>
          <g id="그룹_3990" data-name="그룹 3990" transform="translate(12.528 23.398)">
            <path id="패스_18315" data-name="패스 18315" d="M260.853,366.66a2.709,2.709,0,1,1-2.708-2.709A2.708,2.708,0,0,1,260.853,366.66Z" transform="translate(-255.436 -363.951)" fill="none" stroke="#288fa4" stroke-width="2.5"/>
            <path id="패스_18316" data-name="패스 18316" d="M277.39,366.66a2.708,2.708,0,1,1-2.708-2.709A2.708,2.708,0,0,1,277.39,366.66Z" transform="translate(-261.528 -363.951)" fill="none" stroke="#288fa4" stroke-width="2.5"/>
          </g>
        </g>
      </g>
    </g>
  </g>
</svg>
